/* XPM */
static char *a8bxu_ry3x4[] = {
/* columns rows colors chars-per-pixel */
"74 74 161 2 ",
"   c None",
".  c #3C2213",
"X  c #3F2A1E",
"o  c #2C2523",
"O  c #352C25",
"+  c #3B2D24",
"@  c #362D2B",
"#  c #382F28",
"$  c #3F3026",
"%  c #3C322B",
"&  c #3E3431",
"*  c #442616",
"=  c #492917",
"-  c #432718",
";  c #4C2C1A",
":  c #522E1B",
">  c #4E301F",
",  c #53301D",
"<  c #59311C",
"1  c #61361F",
"2  c #432E21",
"3  c #4A2F20",
"4  c #433126",
"5  c #4B3425",
"6  c #41362E",
"7  c #42382F",
"8  c #513727",
"9  c #533827",
"0  c #5C3A26",
"q  c #563928",
"w  c #5A3B28",
"e  c #403532",
"r  c #453A32",
"t  c #4A3F35",
"y  c #453E3B",
"u  c #633720",
"i  c #663921",
"p  c #6C3D23",
"a  c #633E28",
"s  c #693F29",
"d  c #713F24",
"f  c #4B4036",
"g  c #4E4339",
"h  c #52463C",
"j  c #55483E",
"k  c #6D4129",
"l  c #754125",
"z  c #7A4426",
"x  c #74432A",
"c  c #7D4629",
"v  c #7F482B",
"b  c #574A41",
"n  c #5A4E43",
"m  c #564D48",
"M  c #584F48",
"N  c #5E5146",
"B  c #5B514A",
"V  c #615347",
"C  c #635549",
"Z  c #66584C",
"A  c #695B4E",
"S  c #625A53",
"D  c #6D5F52",
"F  c #6F6053",
"G  c #6F635A",
"H  c #726356",
"J  c #766659",
"K  c #78675B",
"L  c #75685C",
"P  c #7B6C5D",
"I  c #6E6760",
"U  c #736B65",
"Y  c #7F6F60",
"T  c #766E6A",
"R  c #7D756F",
"E  c #7E7774",
"W  c #7F7975",
"Q  c #804729",
"!  c #864B2B",
"~  c #806F60",
"^  c #817161",
"/  c #887767",
"(  c #897867",
")  c #877A6E",
"_  c #8C7A69",
"`  c #917E6D",
"'  c #827972",
"]  c #93806F",
"[  c #958271",
"{  c #998573",
"}  c #9E8A77",
"|  c #9D8A79",
" . c #A28D7A",
".. c #A6917D",
"X. c #A8937F",
"o. c #928A84",
"O. c #98918B",
"+. c #9E9791",
"@. c #AA9581",
"#. c #AE9984",
"$. c #AC9B8C",
"%. c #B19C87",
"&. c #B49E89",
"*. c #A29A95",
"=. c #A59D99",
"-. c #B6A08A",
";. c #BAA38D",
":. c #ACA197",
">. c #A9A29D",
",. c #BEA791",
"<. c #BFA891",
"1. c #B5A79B",
"2. c #BEAE9E",
"3. c #AEA7A1",
"4. c #B4AAA1",
"5. c #B6AFAA",
"6. c #BBB4AE",
"7. c #C4AC95",
"8. c #C5AE99",
"9. c #C7B09B",
"0. c #C9B39E",
"q. c #C5B3A1",
"w. c #CBB7A3",
"e. c #CCB8A5",
"r. c #C7B7A8",
"t. c #C4B8AE",
"y. c #CEBAA8",
"u. c #CEBBA9",
"i. c #D0BEAD",
"p. c #C9BEB5",
"a. c #C8C2BD",
"s. c #D2C1B1",
"d. c #D3C2B2",
"f. c #D5C5B6",
"g. c #D3C2B2",
"h. c #D7C8BA",
"j. c #D9CABD",
"k. c #CCC6C0",
"l. c #CFC7C1",
"z. c #D1CBC5",
"x. c #D4CBC4",
"c. c #DBCEC2",
"v. c #DCD0C4",
"b. c #DDD1C6",
"n. c #DDD7D2",
"m. c #DFD9D4",
"M. c #E0D6CC",
"N. c #E0DAD5",
"B. c #E4DDD7",
"V. c #E5DED7",
"C. c #E6DED7",
"Z. c #E3DBD3",
"A. c #E6DFD9",
"S. c #E4DED9",
"D. c #E3DDD8",
"F. c #E7E0DA",
"G. c #E7E1DB",
"H. c #E8E2DC",
"J. c #E8E2DD",
"K. c #E9E3DE",
"L. c #E9E3DE",
/* pixels */
"                                                                                                                                                    ",
"                                                                                                                                                    ",
"                                                                                                                                                    ",
"                                                                                                                                                    ",
"                                                                                                                                                    ",
"                                                                                                                                                    ",
"                                                                                                                                                    ",
"                                                                                                                                                    ",
"                                                                                                                                                    ",
"                                                                                                                                                    ",
"                                                                                                                                                    ",
"                                                                                                                                                    ",
"                                                                                                                                                    ",
"                                                                                                                                                    ",
"                    O O O O O O O O O O O O O O O O O O O O O O O O O O O O O O O O O O O O O O O O O O O O O O O O O O O O O O                     ",
"                  O O O O O O O O O O O O O O O O O O O O O O O O O O O O O O O O O O O O O O O O O O O O O O O O O O O O O O O O                   ",
"              O O O O r D D D D D D U R R R R R R R R R R R R L D D D D D Z # O O % C D D D t O O O # n D D D D D D D D D C % O O O O               ",
"            O O O O h @.7.7.7.7.7.s.B.K.K.K.K.K.K.K.K.K.K.K.h.9.7.7.7.7.7.7.( # O O n <.<.K % O O O ~ ;.7.7.7.7.7.7.7.7.7.<. .f O O O O O           ",
"          O O O # j &.7.7.7.7.9.j.K.K.K.K.K.K.K.K.K.K.K.B.s.7.7.7.7.7.7.7.7.7.P O O O A C O O O r { 7.7.7.7.7.7.7.7.7.7.7.7.7.;.H 6 O O O           ",
"        O O O # J ;.7.7.` A Z D U U U U U U U U U U U U G Z Z Z Z Z Z ~ 7.7.7.q.' O O O O O O N @.<.^ Z Z Z Z Z Z Z Z Z Z Z _ 7.7. .h O O O         ",
"        O O O P 7.7.%.j O O O O O O O O O O O O O O O O O O O O O O O O ^ 7.s.K.K.' O O O # F 7.;.Z O O O O O O O O O O O O # J <.7...O O O         ",
"      O O O F 7.7.7.C O O O O O O O O O O O O O O O O O O O O O O O O O 7 :.K.K.K.z.g O O ~ <.7.C O O O O O O O O O O O O O O O C 7.7.N O O         ",
"      O O %  .7.7. .O O O 8 Q Q Q Q Q Q Q Q Q Q Q Q Q Q Q Q Q Q Q v 4 O O r N.K.K.k.f O O 7.7...O O O 8 Q Q Q Q Q Q Q Q c 5 O O # X.7.[ O O O       ",
"    O O O n ;.7.7.g O O 4 l l z z v v Q Q Q Q ! Q Q Q v z l p 1 < < > O O O a.K.K.6.r O h 7.7.^ O O 4 v v v v v v z z z l l + O O ^ 7.#.t O O       ",
"    O O O ^ 7.7. .O O O , < < < < < < < 1 1 1 1 1 1 1 < < < < < < < , # O O S.K.K.>.O O A 7.7.n O O 5 1 < < < < < < < < < < 3 O O C <.7.C O O O     ",
"    O O # ;.7.7.J O O 2 < < < < < < < < < < < < < < < < < < < < < < , O O M K.K.K.o.O O P 7.7.r O O : < < < < < < < < 1 1 p i # O r &.7.( O O O     ",
"  O O O n 7.7.r.B O O a l l l l z z z z z z z z z z z z z z z z z l 0 O O I K.K.v.G O O [ 7.#.% O O d l l l z c v Q Q ! ! ! Q 5 O O } 7.&.O O O     ",
"  O O O [ 7.f.z.% O 4 v ! ! ! a # O O O O O O O O O 9 Q ! ! ! ! ! ! a O O R S.y.7.V O % } 7. .% O 4 ! ! ! ! ! ! ! ! ! ! ! ! ! w O O A 7.7.j O O     ",
"  O O % &.s.F.+.O O 8 ! ! ! q O O O O O O O O O O O O 5 ! ! ! ! ! ! a O O ) 9.7.7.f O r ..7.] % O 5 ! ! ! ! ! ! ! ! ! ! ! ! ! k O O 7 7.7.( O O O   ",
"  O O j q.F.K.S O O # 4 4 4 O O O O O O O O O O O O O O 4 4 4 4 4 4 + O O ^ 7.7.7.% O r #.7./ O O # 4 4 4 4 4 4 4 4 4 4 4 4 4 $ O O O X.7.%.# O O   ",
"  O O L B.K.K.% O O O O O O O O g -.7.9.j.K.K.K.N.U O O O O O O O O O O O ` %.%.7.O O g -.7.^ O O O O O O O O O O O O O O O O O O O O ` 7.;.g O O   ",
"O O O o.K.K.K.R O O O O O O O O H 7.e.p.T T *.D.K.O.O O O O O O O O O O r @.A D 7.O O g -.7.} % O O O O O O O O O O O O O O O O O O 6 @.7.<.C O O   ",
"O O O *.K.K.K.K.K.K.K.K.K.U O O { i.N.y @ e e =.K.3.O O B G.c.8.7.7.7.7.7.7.C C 7.O O g -.7.7.7.7.7.7.7.7.7.7.7.7.7.7.7.7.7.7.7.7.7.7.7.7.7.K O O   ",
"O O % 5.K.K.K.K.K.K.K.K.x.B O O t.F.>.o % e e m B.1.O O O i.7.7.7.7.7.7.7.7.P A 7.O O g -.7.7.7.7.7.7.7.7.7.7.7.7.7.7.7.7.7.7.7.7.7.7.7.7.7.( O O O ",
"O O % z.K.K.K.K.K.K.K.F.,.g O f n.K.W o & e e e 9.-.O O O #.7.7.7.7.7.7.7.7.<.-.7.O O g -.7.7.7.7.7.7.7.7.7.7.7.7.7.7.7.7.7.7.7.7.7.7.7.7.7.} # O O ",
"O O O O O O O O O O O O O O O M m.K.E o & e e e 7.7.# O O O O O O O O O O O O O O O O O O O O O O O O O O O O O O O O O O O O O O O O O O O O O O O ",
"O O O O O O O O O O O O O O O I D.K.E o e e e e 7.7.h O O O O O O O O O O O O O O O O O O O O O O O O O O O O O O O O O O O O O O O O O O O O O O O ",
"O O O r t t t t t t t t 6 O O ' G.F.' o & e e C 7.7.C O O 6 t t t t t t t t t t t # O # f h h h h h h h h h h h h h h h h h h h h h h h h h g O O O ",
"O O % ..-.-.-.-.-.-.-.-.D O O O.M.i.| o @ & e { 7.y.' O O D -.-.-.-.-.-.-.-.-.-.-.t O r @.7.7.7.7.7.7.7.7.7.7.7.7.7.7.7.7.7.7.7.7.7.7.7.<._ } % O O ",
"O O % %.7.7.7.7.7.7.7.7.b O # [ 7.7.7.N o & K 7.c.K.3.O O A 7.7.7.7.7.7.7.7.7.7.7.f O r @.7.7.7.7.7.7.7.7.7.7.7.7.7.7.7.7.7.7.7.7.7.7.7.&.C P % O O ",
"O O # } 7.7.{ ^ ^ ^ ^ ^ r O %  .7.7.7.} o e ' Z.F.v.$.O O g ^ ^ ^ ^ ^ ^ ^ @.7.7.7.f O r @.7.;.( ^ ^ ^ ^ ^ ^ ^ ^ ^ ^ ^ ^ ^ ^ ^ ^ ^ ^ ^ { ;._ / # O O ",
"O O # } 7.@.t O O O O O O O % %.7.7.7.P O e U x.w.8.&.O O O O O O O O O O n 7.7.7.f O r @.7.[ % O O O O O O O O O O O O O O O O O O O t @.7.} # O O ",
"O O O _ 7.@.r O O O O O O O r 7.7.7.0.C O % b ;.7.7.;.r O O O O O O O O O g 7.7.7.f O r @.7.` # O O O O O O O O O O O O O O O O O O O r X.7._ O O O ",
"O O O ( 7.#.t O O 3 3 2 O O n 7.7.s.Z.4.| {  .<.7.7.;.h O O 3 3 3 3 2 O O g 7.7.7.f O r @.7.` # O + > > > > > > > > > > > > > > ; # O t #.7.( O O O ",
"O O O J ;.&.h O O < < 3 O O f @.p.k.2.%.%.%.%.%.%.%.{ r O # , < < < , O O g 7.7.7.f O r @.7.` # O 2 < < < < < < < < < < < < < < < O O g &.7.P O O O ",
"  O O C H _ j O O , < , O O O O O O O O O O O O O O O O O + < < < < , O O g 7.7.7.f O r @.7.` # O 2 < < < < < < < < < < < < < < < O O h ;.7.K O O   ",
"  O O n Z ^ n O O > < < 3 O O O O O O O O O O O O O O O O > < < < < , O O g 7.7.7.f O r @.7.` # O 2 < < < < < < < < < < < < < < > O O n 7.7.Z O O   ",
"  O O n / { D O O 3 < < < ; + + + + + 2 2 2 2 2 2 2 2 3 , < < < < < , # O 6 7.7.7.f O r @.7.` # O 2 < < < 1 p z v Q ! Q z d i < > O O C 7.<.C O O   ",
"  O O f -.7.^ O O + ; * * . . . . . * * * * = = = ; : : : : < : : ; - O O O 7.7.7.n O %  .7.| % O + < < z ! ! ! Q v z l l p p 1 X O O J 7.;.b O O   ",
"  O O 7 ..Z P O O O . . . . * ; : < < < < < < < < : ; * * . . . . . . O O O <.7.7.V O % } 7. .% O O = < 1 < < < < < < < < < < < + O O / 7.;.f O O   ",
"  O O O @. . .O O O = 1 p p p p p p p p i i i i i i i i 1 < : ; * . . O O O ..7.7.V O % } 7. .% O O : < 1 i i i p p p p p p p p # O O { 7.-.6 O O   ",
"  O O O ] 7.7.O O O x ! ! ! ! ! ! ! ! ! ! ! ! ! ! ! ! ! ! ! ! ! ! p < # O O { _ P C O % { <...% O O ! ! ! ! ! ! ! ! ! ! ! ! ! Q O O O @.7.%.O O O   ",
"  O O O J 7.7.j O O k ! ! ! ! ! ! ! ! ! ! ! ! ! ! ! ! ! ! ! ! ! ! ! v 5 O O ^ / Z J O O / Z / 6 O O ! ! ! ! ! ! ! ! ! ! ! ! ! x O O O 7.7.{ O O O   ",
"    O O b 7.7.H O O w ! ! ! ! ! ! ! ! ! ! ! ! ! ! ! ! ! ! ! ! ! ! ! ! q O O H ;.&.J O O / Z ^ 6 O O Q ! ! ! ! ! ! ! ! ! ! ! ! k O O h 7.7.K O O O   ",
"    O O O | #.{ O O 8 ! ! ! ! ! ! ! ! ! ! ! ! ! ! ! ! ! ! ! ! ! ! ! ! a O O C 7.7./ O O P ;.<.r O O x ! ! ! ! ! ! ! ! Q c l p 5 O O A 7.7.C O O     ",
"    O O O F ^ ..% O 5 c c l p p p p p p p p p d l z v Q ! ! ! ! ! ! ! x O O f 7.;./ O O K 7.<.r O O x ! ! ! Q v l p u < < < < 3 O O / 7.7.r O O     ",
"    O O O C ^ { g O # , < < < < < < < < < < < < < < < < < < 1 p d l v x O O 7 ` ^ Z O O g ^ ..C O O 5 < < < < < < < < < < < < + O O @.;.[ O O O     ",
"    O O O g Y ( C O O > < < < < < < < < < < < < < < < < < < < < < < < < O O % J ^ D % O t ^ [ F O O 8 l l l d p p p i i p p i + O 6 &.` D O O O     ",
"      O O r P / H O O 3 < < < < < i p d l z z z z z z d i < < < < < < < # O % F ^ H % O 6 ^ ^ H O O 5 ! ! ! ! ! ! ! ! ! ! ! c O O j } ^ n O O O     ",
"      O O % H ^ / O O # v Q Q ! ! ! ! ! ! ! ! ! ! ! ! ! ! ! ! Q Q c z z 5 O O Z ^ J % O # ^ ^ D O O 4 ! ! ! ! ! ! ! ! ! ! ! s O O n ^ Y g O O       ",
"      O O O A ^ [ O O O x ! ! ! ! ! ! ! ! ! ! ! ! ! ! ! ! ! ! ! ! ! ! ! q O O N ^ P 6 O O J ^ P O O $ v ! ! ! ! ! ! ! ! ! ! 8 O O N ^ P r O O       ",
"      O O O j ^ ( b O O q ! ! ! ! ! ! ! ! ! ! ! ! ! ! ! ! ! ! ! ! ! ! ! k O O h Y ^ r O O Z ^ ^ % O # x ! ! ! ! ! ! ! ! ! ! # O O D ^ H % O O       ",
"        O O % ^ ^ H O O 4 v ! ! ! ! ! ! ! ! ! ! ! ! ! ! ! ! ! ! ! ! ! ! x # O t Y ^ j O O j ^ ^ t O # k ! ! ! ! ! ! ! ! ! k O O % P ^ Z O O O       ",
"        O O O A ^ ^ % O # k Q Q Q Q Q Q Q Q Q Q Q Q Q Q Q Q Q Q Q Q Q Q x $ O % P ^ C O O 7 ^ ^ n O O q q q q 5 5 5 $ O O O O O h ^ ^ h O O         ",
"        O O O g ^ ^ h O O O O O O O O O O O O O O O O O O O O O O O O O O O O O A ^ J O O # K ^ Z O O O O O O O O O O O O O O O J ^ P % O O         ",
"          O O % J ^ A # O O O O O O O O O O O O O O O O O O O O O O O O O O O O N ^ ^ % O O D ^ H % O O O O O O O O O O O O O h ^ ^ C O O O         ",
"          O O O C ^ P n g g g g g g g g g g g g g g g g g g g g g g g g g g g j P ^ ^ j O O n ^ Y C g g n n n V A A D H J J P ^ ^ P r O O O         ",
"            O O g Y ^ ^ ^ ^ ^ ^ ^ ^ ^ ^ ^ ^ ^ ^ ^ ^ ^ ^ ^ ^ ^ ^ ^ ^ ^ ^ ^ ^ ^ ^ ^ ^ ^ A O O f P ^ ^ ^ ^ ^ ^ ^ ^ ^ ^ ^ ^ ^ ^ ^ ^ ^ A # O O           ",
"            O O O P ^ ^ ^ ^ ^ ^ ^ ^ ^ ^ ^ ^ ^ ^ ^ ^ ^ ^ ^ ^ ^ ^ ^ ^ ^ ^ ^ ^ ^ ^ ^ ^ ^ J % O % J P P P P P P P K J J J H H H Z C C r O O O           ",
"            O O O r h h h h h h h h h h h h h h h h h h h h h h h h h h h h h h h h h h % O O r f f f f r r r 6 % % % O O O O O O O O O             ",
"              O O O O O O O O O O O O O O O O O O O O O O O O O O O O O O O O O O O O O O O O O O O O O O O O O O O O O O O O O O O O O             ",
"              O O O O O O O O O O O O O O O O O O O O O O O O O O O O O O O O O O O O O O O O O O O O O O O O O O O O O O O O O O O                 ",
"                                                                                                                                                    ",
"                                                                                                                                                    "
};
