/* XPM */
static char *a395j_xcozf[] = {
/* columns rows colors chars-per-pixel */
"74 74 165 2 ",
"   c None",
".  c #352517",
"X  c #3A2314",
"o  c #3B2817",
"O  c #362719",
"+  c #36281B",
"@  c #3A2B1E",
"#  c #352C25",
"$  c #3B2E24",
"%  c #372E2A",
"&  c #382F29",
"*  c #3F3126",
"=  c #3C332B",
"-  c #422515",
";  c #492817",
":  c #442A19",
">  c #4D2D1A",
",  c #432917",
"<  c #532F17",
"1  c #522E1A",
"2  c #4B311C",
"3  c #4C3617",
"4  c #54301D",
"5  c #59311C",
"6  c #5A3816",
"7  c #61361E",
"8  c #6C391A",
"9  c #673516",
"0  c #773A16",
"q  c #442F22",
"w  c #492F20",
"e  c #443124",
"r  c #4C3425",
"t  c #41362D",
"y  c #42382F",
"u  c #483A2C",
"i  c #513524",
"p  c #553827",
"a  c #573928",
"s  c #5C3B28",
"d  c #5E3A26",
"f  c #403630",
"g  c #433930",
"h  c #493E35",
"j  c #633720",
"k  c #653820",
"l  c #6B3B22",
"z  c #643D29",
"x  c #713F24",
"c  c #5B4017",
"v  c #614516",
"b  c #79441A",
"n  c #785616",
"m  c #534022",
"M  c #4B4037",
"N  c #4D433A",
"B  c #52463C",
"V  c #55483E",
"C  c #6C4129",
"Z  c #744125",
"A  c #7A4427",
"S  c #724329",
"D  c #7D4629",
"F  c #6E5221",
"G  c #4B4441",
"H  c #564A41",
"J  c #5A4D42",
"K  c #5F5246",
"L  c #5E544B",
"P  c #605347",
"I  c #625549",
"U  c #66584C",
"Y  c #695B4E",
"T  c #6C5E51",
"R  c #6F6153",
"E  c #726356",
"W  c #756658",
"Q  c #7B6B5C",
"!  c #7F6F60",
"~  c #746861",
"^  c #843E16",
"/  c #894219",
"(  c #954315",
")  c #9E4615",
"_  c #91471C",
"`  c #835D16",
"'  c #805D1C",
"]  c #A54A18",
"[  c #B04E18",
"{  c #AC511D",
"}  c #B7531B",
"|  c #8C6416",
" . c #AC7B15",
".. c #874B2B",
"X. c #C1561A",
"o. c #C45A1F",
"O. c #CA5A1C",
"+. c #D65F1D",
"@. c #DE621E",
"#. c #E3651F",
"$. c #F4761F",
"%. c #F47C1E",
"&. c #D86220",
"*. c #EE6921",
"=. c #E56620",
"-. c #F26B21",
";. c #F37020",
":. c #806F5F",
">. c #817161",
",. c #887666",
"<. c #8B7A69",
"1. c #927F6E",
"2. c #877D75",
"3. c #B48115",
"4. c #BD8815",
"5. c #B48524",
"6. c #C48C15",
"7. c #C88F15",
"8. c #CB9215",
"9. c #DC9E15",
"0. c #F5831D",
"q. c #F78B1B",
"w. c #F7911A",
"e. c #F99C18",
"r. c #FAA417",
"t. c #FBAB16",
"y. c #F4AF15",
"u. c #FCB514",
"i. c #F9B416",
"p. c #FBBA24",
"a. c #FBBB29",
"s. c #FBBF36",
"d. c #FBC03A",
"f. c #92806F",
"g. c #968372",
"h. c #9A8674",
"j. c #9D8977",
"k. c #9F8B78",
"l. c #A28D7A",
"z. c #A7937F",
"x. c #FAC44A",
"c. c #FBC240",
"v. c #FAC95A",
"b. c #FACE6B",
"n. c #F9D173",
"m. c #F9D37C",
"M. c #968B83",
"N. c #AA9581",
"B. c #AE9985",
"V. c #A2948A",
"C. c #B19B86",
"Z. c #B49E89",
"A. c #B7A08B",
"S. c #BAA38D",
"D. c #BFA791",
"F. c #BFA891",
"G. c #BAADA1",
"H. c #C4AC95",
"J. c #C6BCB2",
"K. c #F6D58A",
"L. c #F8DC9C",
"P. c #C9C3BD",
"I. c #F8DFA6",
"U. c #F8E2AE",
"Y. c #F7E5BB",
/* pixels */
"                                                                                                                                                    ",
"                                                                                                                                                    ",
"                                                                      # # # # # #                                                                   ",
"                                                                # # # # # # # # # #                                                                 ",
"                                              # # # # # # # # # # = N # & f & # # # # # # # # # # # # # # # # # # # # # # # #                       ",
"                              # # # # # # # # # # # # # # # # = L U % f h = # # # # # # # # # # # # # # # # # # # # # # # # # # # #                 ",
"                        # # # # # # # # # # # # # # # # # = 2.P.G & H 2.U # # # # # # # # # # # # # # # # # # # # # # # # # # # # # #               ",
"                      # # # # # # # y B U Y R h # # # t T G.V.h = ~ J.M.% # # N >.>.>.>.>.>.>.>.>.>.>.>.>.>.>.>.>.>.U B = = M = # # # #             ",
"                    # # # # # # # # # # # # # # # # # = N M & # & h t # # # # # # # # # # # # # # # # # # # # # # # # # # # # # # # # # #           ",
"                    # # # # # # # # # # # # # # # # # # # # # # # # # # # # # # # # # # # # # # # # # # # # # # # # # # h h t # # # # # #           ",
"                    # # # = f f f f f f f y = # # # # # # # # # # # # = h N N N N N N N N N N N N N N N N N N N N = # # B.H.F.Z.W = # # # #         ",
"                      # # = f f f f f f f f t # # = N N N N N N N N N N N N N N N N N N N N N N N N N N N N N N N t # # ,.I # f R h.<.= # #         ",
"                      # # = f f f f f f f f f # # = N N N N N N N N N N N N N N N N N N N N N N N N N N N N N N N h # # K f # # # # J U # #         ",
"                      # # # f f f f f f f f f = # # N N N N N N N N N N N N N N N N N N N N N N N N N N N N N N N N # # M U # # # # # N # # #       ",
"                      # # # y f f f f f f f f = # # h N N N N N N N N N N N N N N N N N N N N N N N N N N N N N N N = # # h.# # * # # y = # #       ",
"                        # # = f f f f f f f f = # # t N N N N N N N N N N N N N N N N N N N N N N N N N N N N N N N h # # W h # e e # = g # #       ",
"                        # # = f f f f f f f f y # # & N N N N N N N N N N N N N N N N N N N N N N N N N N N N N N N M # # g I # # s # # J # #       ",
"                        # # & f f f f f f f f f # # # M N N N N N N N N N N N N N N N N N N N N N N N N N N N N N N N = # # T # # a & # N = # #     ",
"                        # # # y f f f f f f f f = # # h N N N N N N N N N N N N N N N N N N N N N N N N N N N N N N N f # # U # # e e # # B # #     ",
"                        # # # t f f f f f f f f = # # f N N N N N N N N N N N N N N N N N N N N N N N N N N N N N N N M # # K # # $ a # # h # # #   ",
"                          # # = f f f f f f f f y # # = N N N N N N N N N N N N N N N N N N N N N N N N N N N N N N N N = # g U # # C # # g # # #   ",
"                          # # = f f f f f f f f f # # = N N N N N N N N N N N N N N N N N N N N N N N N N N N N N N N N t # # ,.# # z e # = f # #   ",
"                          # # # f f f f f f f f f = # # N N N N N N N N N N N N N N N N N N N N N N N N N N N N N N N N h # # U f # e z # # J # #   ",
"                          # # # y f f f f f y y = $ + O . . O @ $ $ e t y h M N N N N N N h g y g h N N N N N N N N N N M # # & V # # C & # h = # # ",
"                          # # # = f f f f = + O O . . . . . . . . . . . . O O + $ y h * + O O . . O O @ t M N N N N N N N = # # V # # s & # # B # # ",
"                            # # = f f t $ . . . . . o c n b 8 7 > > . . . . . . . . . . . . . . . . . . . O t N N N N N N f # # I # # $ # # P g # # ",
"                            # # = f * . . . . 3 | 8.u.u.u.w.-.-.-.-.-.=.] 8 , . . . . . . : / o._ 5 . . . . . g N N N N N N # # P # # # # # N.g # # ",
"                            # # # @ O . . 3 5.K.v.p.m.d.u.i.w.%.;.-.-.-.-.-.-.&.o.{ { } &.-.-.-.-.-.O./ 9 . . @ N N N N N N = # = U # # # g H.= # # ",
"                            # # # . . o n y.s.Y.K.x.U.x.u.u.u.u.u.u.u.u.u.u.t.w.0.$.;.-.-.-.;.;.-.-.-.+.] < . . t N N N N N t # # U # # # P l.# #   ",
"                        . . + # + . o 7.y.s.L.n.p.u.a.u.u.u.u.u.u.u.u.u.u.u.u.u.u.u.t.r.r.r.t.t.%.-.-.-.O.^ . . O M N N N N h # # N t # # Q f # #   ",
"                  . . . . . . . . . v u.u.a.K.c.u.u.u.u.u.u.u.u.u.u.u.u.u.u.u.u.u.u.u.u.u.u.u.u.e.-.-.-.-.X.< . . # # # # # # # # = g # # E # # #   ",
"              . . . . . . . . . . . 3.u.u.u.u.u.u.u.u.u.u.u.u.u.u.u.u.u.u.u.u.u.u.u.u.u.u.u.u.u.e.-.-.-.-.*.) . . O # # # # # # # = Y # T N # #     ",
"            . . . o c ` 3.4.` F ' 6.u.u.u.u.u.u.u.u.u.u.u.u.u.u.u.u.u.u.u.u.u.u.u.u.e.;.%.;.%.%.;.-.-.-.-.-.} < . . $ h M M M f # # ,.H.W # # #     ",
"          . . . . 7.u.u.u.u.p.I.m.u.u.u.u.u.u.u.u.u.u.u.u.u.u.u.u.u.u.u.u.u.u.u.u.u.$.0.u.%.$.r.e.;.-.-.-.*.] 0 . . . . u U U K # # V N.= # #       ",
"        . . . v 9.u.u.u.u.b.a.U.n.u.u.u.u.u.u.u.u.u.u.u.u.u.u.u.u.u.t.e.q.q.e.t.e.q.-.-.$.-.q.u.u.q.-.-.=.X.) ) 6 . . . . @ K U = # & V # # #       ",
"        . . 6 u.u.u.u.u.u.a.u.u.u.u.u.u.u.u.u.u.u.u.t.t.t.i.u.u.u.t.$.-.-.-.-.-.-.-.-.-.w.-.-.-.0.-.-.@.) ) ) ) ) ^ < o . . u U g # # # # #         ",
"        . .  .u.u.u.u.u.u.u.u.u.u.u.u.u.u.u.u.u.u.r.$.-.;.$.%.0.%.;.-.-.-.-.-.-.-.-.-.-.;.O.X.#.-.#.+.[ ) ) ) ) ) ) ) ( o . @ f = # # # #           ",
"      . . o 4.u.u.u.u.u.u.u.u.u.u.u.u.u.u.u.u.u.u.$.-.-.-.-.-.-.-.-.-.-.-.-.-.-.-.-.-.-.-.[ ) ) ) ) ) ) ) ) ) ) ) ) ) ( , . O # # # # #             ",
"# # # # # # e m m m m m m m m m m m m m m m m m m i i i i i i i i i i i i i i i i i i i i e e e e e e e e e e e e e e q # # # # # # # #             ",
"# # # # # # # # # # # # # # # # # # # # # # # # # # # # # # # # # # # # # # # # # # # # # # # # # # # # # # # # # # # # # # # # # # #               ",
"# # # # # # # # # # # # # # # # # # # # # # # # # # # # # # # # # # # # # # # # # # # # # # # # # # # # # # # # # # # # # # # # # # #               ",
"# # K Z.Z.Z.Z.Z.Z.Z.Z.Z.Z.Z.Z.Z.Z.Z.Z.Z.Z.Z.Z.Z.Z.Z.Z.Z.Z.Z.Z.Z.Z.Z.Z.Z.Z.M # B H.H.H.H.H.H.H.H.H.H.H.H.H.H.H.H.H.H.H.H.H.H.N.k.K # #               ",
"# # P H.H.H.H.H.H.H.H.H.H.H.H.H.H.H.H.H.H.H.H.H.H.H.H.H.H.H.H.H.H.H.H.H.H.N # B H.H.H.H.H.H.H.H.H.H.H.H.H.H.H.H.H.H.H.H.H.H.<.U J # #               ",
"# # B H.H.N.U I I I I I I I I I I I I I I I I I I I I I I I I I I U S.H.H.N # B H.H.k.I I P I I I I I I I I I I I I I I U N.C.l.B # #               ",
"# # B H.H.U # # # # # # # # # # # # # # # # # # # # # # # # # # # # h.H.H.N # B H.H.V # # # # # # # # # # # # # # # # # # U H.H.N # #               ",
"# # g H.H.E # # # # # # # # # # # # # # # # # # # # # # # # # # # # g.H.H.N # B H.H.V # # # # # # # # # # # # # # # # # # E H.H.g # #               ",
"# # = H.H.Q # # 2 4 4 4 4 4 4 4 4 4 4 4 4 4 4 4 4 4 4 4 4 4 1 q # # g.H.H.N # B H.H.V # & 4 5 5 5 5 5 5 5 5 5 5 5 5 4 # # Q H.F.= # #               ",
"  # # A.f.f.# # 4 5 5 5 5 5 5 5 5 5 5 5 5 5 5 5 5 5 5 5 5 5 5 w # # g.H.H.N # B H.H.V # & 4 5 5 5 5 5 5 5 5 5 5 5 5 4 # # g.H.D.# #                 ",
"  # # >.U N.# # > 5 5 5 5 5 5 5 5 5 5 5 5 5 5 5 5 5 5 5 5 5 5 w # # g.H.H.N # B H.H.V # & 4 5 5 5 5 5 5 5 5 5 5 5 5 2 # # l.H.N.# #                 ",
"  # # ,.R Z.= # q 5 5 5 5 4 4 4 4 4 5 5 5 5 5 5 5 5 5 5 5 5 5 w # # 1.H.H.N # B H.H.V # & 4 5 5 5 j Z D ..D A l 5 5 w # # A.H.h.# #                 ",
"  # # U D.S.g # $ 1 ; - - - - - - - ; ; > ; > > 1 1 1 4 1 1 > : # # ,.H.H.J # h H.H.U # & 4 5 Z ......D D A A Z l 7 $ # = S.H.Q # #                 ",
"  # # B ,.E N # # X X X - ; 1 4 5 5 5 5 5 5 4 1 ; - X X X X X X # # >.H.H.U # g H.H.E # # : 4 7 5 5 5 5 5 5 5 5 5 5 $ # h S.H.U # #                 ",
"  # # # Z.C.H # # > l x Z Z Z Z l l l l l l l l l k 5 5 1 - X X # # E H.H.U # g H.H.E # # > 5 7 l l l Z Z Z Z Z Z Z # # B D.H.h # #                 ",
"  # # # C.H.U # # S ........................................x 7 # # U N.E E # = D.z.>.# # D ........................# # J H.F.# # #                 ",
"  # # # l.H.:.# # z ............................................e # K N.U >.# # N.I f.# # D ......................S # # U H.Z.# # #                 ",
"    # # ,.S.k.# # a ............................................r # M H.H.,.# # B.f.k.# # C ....................D d # # >.H.l.# # #                 ",
"    # # H >.N.# # r ............................................r # = H.H.h.# # k.H.Z.# # z ..............Z k 5 5 q # # g.H.1.# #                   ",
"    # # h >.k.B # $ k 7 7 5 5 5 5 5 5 5 5 7 7 j k l l x A D ....a # # B.g.Q # # E h.Z.= # r l l l k 7 5 5 5 5 5 5 $ # # A.Z.E # #                   ",
"    # # = ! <.W # # 4 5 5 5 5 5 5 5 5 5 5 5 5 5 5 5 5 5 5 5 5 5 r # # R >.E & # H >.N.t # e k 7 7 7 7 5 5 5 5 5 5 $ # t S.>.B # #                   ",
"    # # # E >.g.# # w 5 5 5 5 7 j l l Z Z Z Z Z l k 5 5 5 5 5 5 > # # I >.W = # h >.,.h # e ......................& # U k.>.f # #                   ",
"      # # V >.f.t # $ D D ..............................D D A A z # # N >.W = # = >.Q g # # ....................S # # W >.Q # # #                   ",
"      # # = ! <.h # # D ........................................D # # t >.Q = # # Q >.M # # D ..................p # & E >.U # #                     ",
"      # # = W >.U # # z ..........................................# # = Q >.g # # E >.V # # C ..................# # = W >.N # #                     ",
"      # # # U >.W # # r ..........................................r # = E >.V # # U >.U # # d ................C # # h >.Q = # #                     ",
"        # # N >.>.f # & p p p p p p p p p p p p p p p p p p p p p e # # U >.Y # # K >.W # # * e e e * $ $ # # # # # U >.R # # #                     ",
"        # # & Q >.K # # # # # # # # # # # # # # # # # # # # # # # # # # B >.Q # # B >.>.= # # # # # # # # # # # # = >.>.K # #                       ",
"        # # # K >.W = # # # # # # # # # # # # # # # # # # # # # # # # # U >.>.g # = >.>.I # # = f f N B B K K K Y W >.>.t # #                       ",
"          # # g Q >.>.>.>.>.>.>.>.>.>.>.>.>.>.>.>.>.>.>.>.>.>.>.>.>.>.>.>.>.>.H # # E >.>.>.>.>.>.>.>.>.>.>.>.>.>.>.>.I # # #                       ",
"          # # # W >.>.>.>.>.>.>.>.>.>.>.>.>.>.>.>.>.>.>.>.>.>.>.>.>.>.>.>.>.>.U # # h >.>.>.>.>.>.>.>.>.>.>.>.>.E R T t # #                         ",
"            # # M K K K K K K K K K K K K K K K K K K K K K K K K K K K K K K J # # & B V V V N h h y t t # # # # # # # # #                         ",
"            # # # # # # # # # # # # # # # # # # # # # # # # # # # # # # # # # # # # # # # # # # # # # # # # # # # # # # #                           ",
"              # # # # # # # # # # # # # # # # # # # # # # # # # # # # # # # # # # # # # # # # # # # # # # # # #                                     ",
"                                                                                                                                                    ",
"                                                                                                                                                    "
};
