/* XPM */
static char *adus0_lqlm2[] = {
/* columns rows colors chars-per-pixel */
"74 74 133 2 ",
"   c None",
".  c #252241",
"X  c #2C2341",
"o  c #27264B",
"O  c #28254A",
"+  c #342442",
"@  c #3B2542",
"#  c #3E2A46",
"$  c #282750",
"%  c #282954",
"&  c #2B2B5B",
"*  c #312C5E",
"=  c #2B2E63",
"-  c #342E64",
";  c #362F69",
":  c #2C3166",
">  c #2D3169",
",  c #2F3969",
"<  c #2F3670",
"1  c #2F3870",
"2  c #3A3271",
"3  c #313B74",
"4  c #3F367C",
"5  c #333F7B",
"6  c #452642",
"7  c #4C2743",
"8  c #442C47",
"9  c #492C47",
"0  c #422E48",
"q  c #4C2E48",
"w  c #542843",
"e  c #5D2943",
"r  c #47304A",
"t  c #51344C",
"y  c #632A44",
"u  c #6C2B44",
"i  c #702F46",
"p  c #663048",
"a  c #663A4F",
"s  c #713047",
"d  c #74334A",
"f  c #79364C",
"g  c #773B4F",
"h  c #7C3A4E",
"j  c #6E3D51",
"k  c #7E3D50",
"l  c #324075",
"z  c #34437D",
"x  c #784254",
"c  c #813E51",
"v  c #854254",
"b  c #894656",
"n  c #8D4958",
"m  c #924E5C",
"M  c #96515E",
"N  c #433986",
"B  c #473E8A",
"V  c #483F8B",
"C  c #364682",
"Z  c #364883",
"A  c #384B87",
"S  c #394C8A",
"D  c #3B548D",
"F  c #3C5393",
"G  c #3E5C95",
"H  c #3F5B99",
"J  c #3F6099",
"K  c #474187",
"L  c #4B448E",
"P  c #4D4691",
"I  c #514C95",
"U  c #405E9B",
"Y  c #555097",
"T  c #5B5395",
"R  c #5A5398",
"E  c #41629C",
"W  c #6A629E",
"Q  c #5F5FA5",
"!  c #4364A2",
"~  c #446AA4",
"^  c #456BAA",
"/  c #4771AA",
"(  c #4871AF",
")  c #4975B2",
"_  c #4A78B4",
"`  c #4A78B6",
"'  c #4B7AB6",
"]  c #4B7CB6",
"[  c #4A78B5",
"{  c #4C7EB8",
"}  c #4D7FBC",
"|  c #6365AB",
" . c #6365AA",
".. c #676BAF",
"X. c #6D6EAE",
"o. c #696DB1",
"O. c #696DB1",
"+. c #7373B0",
"@. c #7676B1",
"#. c #7477B5",
"$. c #7477B5",
"%. c #7C7BB3",
"&. c #7B7DB7",
"*. c #7B7DB7",
"=. c #4E82BF",
"-. c #4E85BF",
";. c #4D81BA",
":. c #7F80B8",
">. c #7F80B8",
",. c #4F83C0",
"<. c #5189C5",
"1. c #5089C3",
"2. c #528DC9",
"3. c #528EC8",
"4. c #538ECA",
"5. c #538FCB",
"6. c #528EC8",
"7. c #5491CD",
"8. c #5493CD",
"9. c #5697D3",
"0. c #579AD5",
"q. c #5698D2",
"w. c #599ED9",
"e. c #5AA1DC",
"r. c #8687BB",
"t. c #8687BB",
"y. c #9994BC",
"u. c #9D98BD",
"i. c #A7A4C5",
"p. c #A7A4C5",
"a. c #A9A4C4",
"s. c #ADA9C7",
"d. c #ADA9C7",
/* pixels */
"                                                          . . . . . . . . . . . . . . . .                                                           ",
"                                                    . . $ & & & & & & & O O & & & & & & & $ . .                                                     ",
"                                              o O O $ $ z G G G G G G > $ $ > G G G G G G z $ $ O O o                                               ",
"                                        O O O = $ o > > ~ 0.0.0.0.0.3.3 $ $ 3 3.0.0.0.0.0.~ > > o $ = O O O                                         ",
"                                    . . % = = : $ o > > A H H H H H F < $ $ > F H H H H H A > > o $ : = = % . .                                     ",
"                                  O & & D { ] z = % $ = C F F F F F D > $ $ > S F F F F F C = $ % = z ] { D & & O                                   ",
"                                o : E E ( ,.=.~ z & . = 3 A F F F F D > $ $ > S F F F F A 3 = . & z ~ =.,.( E E : o                                 ",
"                              O : G 9.9.) F F <.J & O & = 3 S S S S S > $ $ > S S S S S 3 = & O & J <.F F ) 9.9.G : O                               ",
"                          . . & E 3.H H F F F F z : = O & > > > > > > > $ $ > > > > > > > & O = : z F F F F H H 3.E & . .                           ",
"                        $ & & ~ _ ~ F F F F F F z > = O O % > > > > = $ O O $ = > > > > > % O = > z F F F F F F ~ _ ~ & & $                         ",
"                      $ % & > J E F F F F F F Z 3 = % . . O % % % % % . . . . % % % % % % o . % = 3 Z F F F F F F E J > & % $                       ",
"                    . & & o & = 5 S F F F F S > = % . . . . . . . . . . . . . . . . . . . . . . % = > S F F F F S 5 = & o & & .                     ",
"                    . & : & . & > 3 F F F S > > % . . . . . . . . . . . . . . . . . . . . . . . . % > > S F F F 3 > & . & : & .                     ",
"                  O & ~ -./ = $ & > 3 3 3 < : $ O . . . 6 e e e w 6 . . . . . . 6 e e e e 6 . . . O $ : < 3 3 3 > & $ = / -.~ & O                   ",
"                  O = ~ } ' ~ , % & > > > = % O . . . . 7 u u u u e 6 X . . X 6 e u u u u 7 . . . . O % = > > > & % , ~ ' } ~ = O                   ",
"                O % Z D F ! 7.H , o & & & % . . . . . + w u f f i u y X . . X y u i f f u w + . . . . . % & & & o , H 7.! F D Z % O                 ",
"              . $ z w.^ F F F 3.~ & . . . . . . . . X e u f M M h u y + . . X y u h M M f u e X . . . . . . . . & ~ 3.F F F ^ w.z $ .               ",
"              . $ 3 ! H F F F ! S & . . . . . 7 @ . X e h n M M m c y + . . X y c m M M n h e X . @ 7 . . . . . & S ! F F F H ! 3 $ .               ",
"              $ & > z S F F F C 3 & . . . X 7 y 6 . X e v M M M M v y X . . + y v M M M M v e X . 6 y 7 X . . . & 3 C F F F S z > & $               ",
"            . & > > > z S S S < = % . . X 6 u u 6 . X e v M M M M v y X . . X y v M M M M v e X . 6 u u 6 X . . % = < S S S z > > > & .             ",
"            . & : : : > > > > > % . . . 7 u u u 6 . X e v M M M M v y X . . X y v M M M M v e X . 6 u u u 7 . . . % > > > > > : : : & .             ",
"              O O O O & > > > $ O . . 7 y u u u 6 . X e v M M M M v y X . . X y v M M M M v e X . 6 u u u y 7 . . O $ > > > & O O O O               ",
"              $ % % % % $ $ $ O . . . e f h u u 6 . X e v M M M M b y X . . X y v M M M M v e X . 6 u u h f e . . . O $ $ $ % % % % $               ",
"            . & > > > % o O . . . X @ y c n f u 6 . X e v M M M M v y X . . X y v M M M M v e X . 6 u f n c y @ X . . . O o % > > > & .             ",
"            . & > > > > > = . . . + u u c M M d 6 . X e v M M M M b y X . . X y v M M M M v e X . 6 d M M c u u + . . . = > > > > > & .             ",
"            . & G 3.3.3.E = = O . + u v m M M d 6 . X e v M M M M b y X . . + y v M M M M v e X . 6 d M M m v u + . O = = E 3.3.3.G & .             ",
"            . & S ' ' ' ) E > o . + u n M M M d 6 . X e v M M M M v y X . . + y v M M M M v e X . 6 d M M M n u + . o > E ) ' ' ' S & .             ",
"            . & 5 F F F ^ ' > o . + u n M M M d 6 . X e v M M M M b y X . . + y v M M M M v e X . 6 d M M M n u + . o > ' ^ F F F 5 & .             ",
"            . & 5 F F F F S > o . + y b M M m s 6 . X e c m M M m v y X . . X y v m M M m c e X . 6 s m M M b y + . o > S F F F F 5 & .             ",
"            . & z F F F F S > o . X + y v n s 6 X . . X w k M M c e + . . . . + e c M M c w X . . X 6 s n v y + X . o > S F F F F 5 & .             ",
"            . & 5 F F F F S > o . . . @ q t 6 X . . . . + 9 t t 9 @ . . . . . . @ 9 t t 9 + . . . . X 6 t q @ . . . o > S F F F F 5 & .             ",
"            . & 3 Z Z Z Z z > o . O & & & & & & & & & & & * * & & * & & & & & & & & & * * * & & & & & & & & & & O . o > z Z Z Z Z 3 & .             ",
"            . & > > > > > : = O . & B B B B B B B B B B B B B B B B B B B B B B B B V L K K L L L L L L V B B B & . O = : > > > > > & .             ",
"            . & > > > > > = O . * K | | | | | | | | | | | | | | | | | | | | | | | | X.y.@.%.u.u.u.u.u.u.+.| | | K * . O = > > > > > & .             ",
"              o $ $ $ $ $ o . . - P o.o.o.o.o.o.o.o.o.o.o.o.o.o.o.o.o.o.o.o.o.o.o.o.#.i.:.r.s.s.s.s.s.s.&.o.o.o.P - . . o $ $ $ $ $ o               ",
"              o o o o o o o . . - P o.o.o.o.o.o.o.o.o.o.o.o.o.o.o.o.o.o.o.o.o.o.o.o.#.i.:.r.s.s.s.s.s.s.&.o.o.o.P - . . o o o o o o o               ",
"            . & > 3 3 3 3 , O . - L | O.o.o.o.o.o.o.o.o.o.o.o.o.o.o.o.o.o.o.o.o.o.o.#.i.:.r.s.s.s.s.s.s.&.o.O.| L - . O , 3 3 3 3 > & .             ",
"            . & G q.q.q.q.;.: O - N V  .o.o.o.o.o.o.o.o.o.o.o.o.o.o.o.o.o.o.o.o.o.o.#.i.:.r.s.s.s.s.s.s.&.o. .V N - O : ;.q.q.q.q.G & .             ",
"            . & S ) ( ( ( ! > o - N N P I I I I I I I I I I I I I I I I I I I I I I Y W R R W W W W W W R I P N N - o > ! ( ( ) ( A & .             ",
"            . & z F F F F S > o % 2 N N N N N N N N N N N N N N N N N N N N N N N N N N N N N N N N N N N N N N 2 % o > S F F F F 5 & .             ",
"            . & 5 F F F F S > o . o 4 4 4 4 4 4 4 4 4 4 4 4 4 4 4 4 4 4 4 4 4 4 4 4 4 4 4 4 4 4 4 4 4 4 4 4 4 4 o . o > S F F F F 5 & .             ",
"            . & 5 F F F F S > o . . O O O O O O O O O O O O O O O O O O O O O O O O O O O O O O O O O O O O O O . . o > S F F F F 5 & .             ",
"            . & 5 F F F F S > o . . . 7 w w w X . . . . 6 w w w w 6 . . . . . . 6 w w w w 6 . . . . X w w w 7 . . . o > S F F F F 5 & .             ",
"            . & 3 C C C C z > o . X 6 y u u u 7 + . . @ e u u u u e 6 X . . X 6 e u u u u e @ . . + 7 u u u y 6 X . o > z C C C C 3 & .             ",
"            . & > > > > > = = O . + u u i s u u 6 . X e u u s s u u y X . . X y u u s s u u e X . 6 u u s i u u + . O = = > > > > > & .             ",
"            . & > > > > > = . . . + u u c b u u 6 . X e u f m m h u y X . . X y u h m m f u e X . 6 u u b c u u + . . . = > > > > > & .             ",
"              o o o o o o O . . . + u c m m b s 6 . X e h n M M n k y X . . + y k n M M n h e X . 6 s b m m c u + . . . O o o o o o o               ",
"              o $ $ $ $ $ o . . . + u n M M M d 6 . X e v M M M M v y X . . + y v M M M M v e X . 6 d M M M n u + . . . o $ $ $ $ $ o               ",
"            . & 3 Z Z Z Z l O . . + u n M M M d 6 . X e v M M M M v y X . . X y v M M M M v e X . 6 d M M M n u + . . O l Z Z Z Z 3 & .             ",
"            . & E e.e.e.e.1.> O . + u n M M M d 6 . X e v M M M M v y X . . X y v M M M M v e X . 6 d M M M n u + . O > 1.e.e.e.e.E & .             ",
"            . & A ^ ^ ^ ^ U > o . + u n M M M d 6 . X e v M M M M v y X . . X y v M M M M v e X . 6 d M M M n u + . o > U ^ ^ ^ ^ A & .             ",
"            . & 5 F F F F S > o . + u n M M M d 6 . X e v M M M M v y + . . X y v M M M M v e X . 6 d M M M n u + . o > S F F F F 5 & .             ",
"            . & 5 F F F F S > o . + e v m m b p @ . X w g n M M m k w X . . X w k m M M n g w X . @ p b m m v e + . o > S F F F F 5 & .             ",
"            . & 5 F F F F S > o . . . w c b u + . . . . 7 h M M h w . . . . . . w h M M h 7 . . . . + u b c w . . . o > S F F F F 5 & .             ",
"            . & 5 F F F F S > o . . . + # # + X . . . . X @ 0 0 # + . . . . . . + # 0 0 @ X . . . . X + # # + . . . o > S F F F F 5 & .             ",
"            . & 5 F F F F S > o . O - - - - - - - - - - - - - - - - - - - - - - - - - - - - - - - - - - - - - - O . o > S F F F F 5 & .             ",
"            . & 3 S S S S C > o O - P P P P P P P P P P P P P P P P P P P P P P P P I T I I T T T T T T I P P P - O o > C S S S S 3 & .             ",
"            . & > > > > > > : O - P o.o.o.o.o.o.o.o.o.o.o.o.o.o.o.o.o.o.o.o.o.o.o.o.#.i.:.r.s.s.s.s.s.s.&.o.o.o.P - O : > > > > > > & .             ",
"            . & > > > > > = O . - P o.o.o.o.o.o.o.o.o.o.o.o.o.o.o.o.o.o.o.o.o.o.o.o.#.i.:.r.s.s.s.s.s.s.&.o.o.o.P - . O = > > > > > & .             ",
"              $ $ $ $ $ $ o . . - P o.o.o.o.o.o.o.o.o.o.o.o.o.o.o.o.o.o.o.o.o.o.o.o.#.i.:.r.s.s.s.s.s.s.&.o.o.o.P - . . o $ $ $ $ $ $               ",
"              O o o o o o O . . - L Q ..o.o.o.o.o.o.o.o.o.o.o.o.o.o.o.o.o.o.o.o.o.o.#.i.:.r.s.s.s.s.s.s.&.o...Q L - . . O o o o o o O               ",
"            . & > > > > > : . . - N N Q ............................................+.p.*.t.a.a.a.a.a.a.%...Q N N - . . : > > > > > & .             ",
"            . & G 3.3.3.3._ : O - N N L L L L L L L L L L L L L L L L L L L L L L L L I P I T T T T T T P L L N N - O : _ 3.3.3.3.G & .             ",
"            . & S ' ' ' ' ~ > o $ ; N N N N N N N N N N N N N N N N N N N N N N N N N N N N N N N N N N N N N N ; $ o > ~ ' ' ' ' S & .             ",
"            . & 5 F F F F S > o . o 2 2 2 2 2 2 2 2 2 2 2 2 2 2 2 2 2 2 2 2 2 2 2 2 2 2 2 2 2 2 2 2 2 2 2 2 2 2 o . o > S F F F F 5 & .             ",
"            . & 5 F F F F A : O . . . X X X X . . . . . X X X X X X . . . . . . X X X X X X . . . . . X X X X . . . O : A F F F F 5 & .             ",
"            . & > < < < < : O . . . . w y y e + . . . . 6 y y y y 7 . . . . . . 7 y y y y 6 . . . . + e y y w . . . . O : < < < < > & .             ",
"              o $ $ $ $ $ o . . . X 7 y u u u w @ . . 6 e u u u u y 7 X . . X 7 y u u u u e 6 . . @ w u u u y 7 X . . . o $ $ $ $ $ o               ",
"              o o o o $ o O . . . + u u s f u u 6 . X e u i h h s u y X . . X y u s h h i u e X . 6 u u f s u u + . . . O o o o o o o               ",
"            . & > > 3 3 1 : O . . + y u v n i u 6 . X e u h M M k u e X . . X e u k M M h u e X . 6 u i n v u y + . . O : 1 3 3 > > & .             ",
"            . & 5 H 7.8.) C = O . X + x m m n 8 X . . X a m M M m j X . . . . X j m M M m a X . . X 8 n m m x + X . O = C ) 8.7.H 5 & .             ",
"          . . & > z G G S 3 $ . . . . r t t t X . . . . # t t t t 0 . . . . . . 0 t t t t # . . . . X t t t r . . . . $ 3 S G G z > & . .           ",
"        . . . $ & & & & & % . . . . . . . . . . . . . . . . . . . . . . . . . . . . . . . . . . . . . . . . . . . . . . % & & & & & $ . . .         ",
"      . . . . . . . . . . . . . . . . . . . . . . . . . . . . . . . . . . . . . . . . . . . . . . . . . . . . . . . . . . . . . . . . . . . .       "
};
