/* XPM */
static char *azaop_2qqrt[] = {
/* columns rows colors chars-per-pixel */
"74 74 120 2 ",
"   c None",
".  c #252241",
"X  c #2A2241",
"o  c #27264B",
"O  c #29264D",
"+  c #332543",
"@  c #3D2542",
"#  c #362946",
"$  c #3E2B47",
"%  c #282750",
"&  c #282954",
"*  c #2A2B5B",
"=  c #302B56",
"-  c #312C5C",
";  c #2B2E63",
":  c #342D63",
">  c #362F68",
",  c #2C3166",
"<  c #2D3169",
"1  c #2F3969",
"2  c #373261",
"3  c #393363",
"4  c #39316F",
"5  c #2F3670",
"6  c #2F3870",
"7  c #3A3271",
"8  c #313B74",
"9  c #3F367C",
"0  c #333F7B",
"q  c #442642",
"w  c #4B2743",
"e  c #4D2D47",
"r  c #402D48",
"t  c #562843",
"y  c #5F2943",
"u  c #4D304A",
"i  c #52344C",
"p  c #632A44",
"a  c #6C2B44",
"s  c #643C51",
"d  c #683A50",
"f  c #324075",
"g  c #34437D",
"h  c #704154",
"j  c #7A4355",
"k  c #8B4757",
"l  c #824959",
"z  c #894C5B",
"x  c #96515E",
"c  c #433986",
"v  c #463C89",
"b  c #483F8B",
"n  c #364682",
"m  c #364883",
"M  c #384B87",
"N  c #394C8A",
"B  c #3B548D",
"V  c #3C5393",
"C  c #3E5C95",
"Z  c #3F5B99",
"A  c #3F6099",
"S  c #4B448E",
"D  c #554D8B",
"F  c #4D4791",
"G  c #514B94",
"H  c #405E9B",
"J  c #5D5596",
"K  c #41629C",
"L  c #5F5FA5",
"P  c #4364A2",
"I  c #446AA4",
"U  c #466DAC",
"Y  c #456BA9",
"T  c #4771AA",
"R  c #4871AF",
"E  c #4873AE",
"W  c #4975B1",
"Q  c #4974B2",
"!  c #4A77B4",
"~  c #4874B1",
"^  c #4A78B4",
"/  c #4A78B6",
"(  c #4B7AB6",
")  c #4B7CB6",
"_  c #4A78B5",
"`  c #4C7EB8",
"'  c #4D7FBC",
"]  c #6162A8",
"[  c #6467AC",
"{  c #676AAF",
"}  c #686BB0",
"|  c #686CB0",
" . c #696DB1",
".. c #696DB1",
"X. c #7779B5",
"o. c #797BB6",
"O. c #4D81BA",
"+. c #4E82BF",
"@. c #4E85BF",
"#. c #4F83C0",
"$. c #5189C5",
"%. c #5089C3",
"&. c #528DC9",
"*. c #528EC8",
"=. c #538ECA",
"-. c #538FCB",
";. c #528EC8",
":. c #5491CD",
">. c #5493CD",
",. c #5697D3",
"<. c #5698D2",
"1. c #579AD5",
"2. c #599ED9",
"3. c #5AA1DC",
"4. c #8282B8",
"5. c #8485BA",
"6. c #9B96BC",
"7. c #9D98BD",
"8. c #A9A5C5",
"9. c #ACA8C7",
/* pixels */
"                                                          . . . . . . . . . . . . . . . .                                                           ",
"                                                    . . % * * * * * * * o o * * * * * * * % . .                                                     ",
"                                              O o o % % g C C C C C C < % % < C C C C C C g % % o o O                                               ",
"                                        o o o ; % O < < I 1.1.1.1.1.*.8 % % 8 *.1.1.1.1.1.I < < O % ; o o o                                         ",
"                                    . . & ; ; , % O < < m Z Z Z Z Z V 5 % % < V Z Z Z Z Z m < < O % , ; ; & . .                                     ",
"                                  o * * B ` ) g ; & % ; n V V V V V B < % % < N V V V V V n ; % & ; g ) ` B * * o                                   ",
"                                O , K K E #.+.I g * . ; 8 m V V V V B < % % < N V V V V m 8 ; . * g I +.#.E K K , O                                 ",
"                              o , C ,.,.W V V $.A * o * ; 8 N N N N N < % % < N N N N N 8 ; * o * A $.V V W ,.,.C , o                               ",
"                          . . * K *.Z Z V V V V g , ; o * < < < < < < < % % < < < < < < < * o ; , g V V V V Z Z *.K * . .                           ",
"                        % * * I ! I V V V V V V g < ; o o & < < < < ; % o o % ; < < < < < & o ; < g V V V V V V I ! I * * %                         ",
"                      % & * < A K V V V V V V m 8 ; & . . o & & & & & . . . . & & & & & & O . & ; 8 m V V V V V V K A , * & %                       ",
"                    . * * O * ; 0 N V V V V N < ; & . . . . . . . . . . . . . . . . . . . . . . & ; < N V V V V N 0 ; * O * * .                     ",
"                    . * , * . * < 8 V V V N < < & . . . . . . . . . . . . . . . . . . . . . . . . & < < N V V V 8 < * . * , * .                     ",
"                  o * I @.T ; % * < 8 8 8 5 , % o . . . . . . . . . . . . . . . . . . . . . . . . o % , 5 8 8 8 < * % ; T @.I * o                   ",
"                  o ; I ' ( I 1 & * < < < ; & o . . . . . . . . . . . . . . . . . . . . . . . . . . o & ; < < < * & 1 I ( ' I ; o                   ",
"                o & m B V P :.Z 1 O * * * & . . . . . . . . . . . . . . . . . . . . . . . . . . . . . . & * * * O 1 Z :.P V B m & o                 ",
"              . % g 2.Y V V V *.I * . . . . . . . . . . . . . . . . . . . . . . . . . . . . . . . . . . . . . . * I *.V V V Y 2.g % .               ",
"              . % 8 P Z V V V P N * . . . . . w @ . . . . . . . . . . . . . . . . . . . . . . . . . . . . . . . * N P V V V Z P 8 % .               ",
"              % * < g N V V V n 8 * . . . X w p t @ . . . . . . . . . . . . . . . . . . . . . . . . . . . . . . * 8 n V V V N g < * %               ",
"            . * < < < g N N N 5 ; & . . # e a a a t . . . . . . . . . . . . . . . . . . . . . . . . . . . . . . & ; 5 N N N g < < < * .             ",
"            . * , , , < < < < < & . . . s k a a a t . . . . . . . . . . . . . . . . . . . . . . . . . . . . . . . & < < < < < , , , * .             ",
"              o o o o * < < < % o . . d z k a a a t X t @ . . . . . . . . . . . . . . . . . . . . . . . . . . . . o % < < < * o o o o               ",
"              % & & & & % % % o . . . j x k a a a t X y q . . . . . . . . . . . . . . . . . . . . . . . . . . . . . o % % % & & & & %               ",
"            . * < < < & O o . . . X r l x k a a a t X y q . . . . . . . . . . . . . . . . . . . . . . . . . . . . . . . o O & < < < * .             ",
"            . * < < < < < ; . . . r x x x k a a a t X y q . . . . . . . . . . . . . . . . . . . . . . . . . . . . . . . ; < < < < < * .             ",
"            . * C *.*.*.K ; ; o . r x x x k a a a t X y q . . . . . . . . . . . . . . . . . . . . . . . . . . . . . o ; ; K *.*.*.C * .             ",
"            . * N ( ( ( W K < O . r x x x k a a a t X y q . . . . . . . . . . . . . . . . . . . . . . . . . . . . . O < K W ( ( ( N * .             ",
"            . * 0 V V V U ( < O . r x x x k a a a t X y q . . . . . . . . . . . . . . . . . . . . . . . . . . . . . O < ( U V V V 0 * .             ",
"            . * 0 V V V V N < O . r x x x k a a a t X y q . . . . . . . . . . . . . . . . . . . . . . . . . . . . . O < N V V V V 0 * .             ",
"            . * g V V V V N < O . r x x x k a a a t X y q . . . . . . . . . . . . . . . . . . . . . . . . . . . . . O < N V V V V 0 * .             ",
"            . * 0 V V V V N < O . + i i i i q q t t X y q . . . . . . . . . . . . . . . . . . . . . . . . . . . . . O < N V V V V 0 * .             ",
"            . * 8 m m m m g < O . o * * * * = X @ q X y q . . . . . . . . . . . . . . . . . . . . . . . . . . . . . O < g m m m m 8 * .             ",
"            . * < < < < < , ; o . = S S S S S = . . X y q . . . . . . . . . . . . . . . . . . . . . . . . . . . . . o ; , < < < < < * .             ",
"            . * < < < < < ; o . - D 7.7.7.7.6.D - . X y q . . . . . . . . . . . . . . . . . . . . . . . . . . . . . . o ; < < < < < * .             ",
"              O % % % % % O . . : G 5.5.5.5.4.G 9 - X y q . . . . . . . . . . . . . . . . . . . . . . . . . . . . . . . O % % % % % O               ",
"              O O O O O O O . . : F | | | | | S c 7 X y q . . . . . . . . . . . . . . . . . . . . . . . . . . . . . . . O O O O O O O               ",
"            . * < 8 8 8 8 1 o . : S [ } | | | S c 7 X y q . . . . . . . . . . . . . . . . . . . . . . . . . . . . . . o 1 8 8 8 8 < * .             ",
"            . * C <.<.<.<.O., o : v b ] | | | S c 7 X y q . . . . . . . . . . . . . . . . . . . . . . . . . . . . . o , O.<.<.<.<.C * .             ",
"            . * N ~ E E E P < O : c c F G G G v 4 & X y q . . . . . . . . . . . . . . . . . . . . . . . . . . . . . O < P E E E E M * .             ",
"            . * 0 V V V V N < O & 7 c c c c c 7 & . X y q . . . . . . . . . . . . . . . . . . . . . . . . . . . . . O < N V V V V 0 * .             ",
"            . * 0 V V V V N < O . O 9 9 9 9 9 O X X X y q . . . . . . . . . . . . . . . . . . . . . . . . . . . . . O < N V V V V 0 * .             ",
"            . * 0 V V V V N < O . . o o o o X . w t X y q . . . . . . . . . . . . . . . . . . . . . . . . . . . . . O < N V V V V 0 * .             ",
"            . * 0 V V V V N < O . # h h h d t t p t X y q . . . . . . . . . . . . . . . . . . . . . . . . . . . . . O < N V V V V 0 * .             ",
"            . * 8 n n n n g < O . r x x x k a a a t X y q . . . . . . . . . . . . . . . . . . . . . . . . . . . . . O < g n n n n 8 * .             ",
"            . * < < < < < ; ; o . r x x x k a a a t X y q . . . . . . . . . . . . . . . . . . . . . . . . . . . . . o ; ; < < < < < * .             ",
"            . * < < < < < ; . . . r x x x k a a a t X y q . . . . . . . . . . . . . . . . . . . . . . . . . . . . . . . ; < < < < < * .             ",
"              O O O O O O o . . . r x x x k a a a t X y q . . . . . . . . . . . . . . . . . . . . . . . . . . . . . . . o O O O O O O               ",
"              O % % % % % O . . . r x x x k a a a t X y q . . . . . . . . . . . . . . . . . . . . . . . . . . . . . . . O % % % % % O               ",
"            . * 8 m m m m f o . . r x x x k a a a t X y q . . . . . . . . . . . . . . . . . . . . . . . . . . . . . . o f m m m m 8 * .             ",
"            . * K 3.3.3.3.%.< o . r x x x k a a a t X y q . . . . . . . . . . . . . . . . . . . . . . . . . . . . . o < %.3.3.3.3.K * .             ",
"            . * m Y Y Y Y H < O . r x x x k a a a t X y q . . . . . . . . . . . . . . . . . . . . . . . . . . . . . O < H Y Y Y Y m * .             ",
"            . * 0 V V V V N < O . r x x x k a a a t X y q . . . . . . . . . . . . . . . . . . . . . . . . . . . . . O < N V V V V 0 * .             ",
"            . * 0 V V V V N < O . r x x x k a a a t X y q . . . . . . . . . . . . . . . . . . . . . . . . . . . . . O < N V V V V 0 * .             ",
"            . * 0 V V V V N < O . r x x x k a a a t X y q . . . . . . . . . . . . . . . . . . . . . . . . . . . . . O < N V V V V 0 * .             ",
"            . * 0 V V V V N < O . X r r r $ + + t t X y q . . . . . . . . . . . . . . . . . . . . . . . . . . . . . O < N V V V V 0 * .             ",
"            . * 0 V V V V N < O . o > > > > : o + @ X y q . . . . . . . . . . . . . . . . . . . . . . . . . . . . . O < N V V V V 0 * .             ",
"            . * 8 N N N N n < O o 3 J J J J J 2 o . X y q . . . . . . . . . . . . . . . . . . . . . . . . . . . . . O < n N N N N 8 * .             ",
"            . * < < < < < < , o : J 9.9.9.9.8.J : . X y q . . . . . . . . . . . . . . . . . . . . . . . . . . . . . o , < < < < < < * .             ",
"            . * < < < < < ; o . : G o.o.o.o.X.F 9 > X y q . . . . . . . . . . . . . . . . . . . . . . . . . . . . . . o ; < < < < < * .             ",
"              % % % % % % O . . : F | | | | | S c 7 X y q . . . . . . . . . . . . . . . . . . . . . . . . . . . . . . . O % % % % % %               ",
"              o O O O O O o . . : S L { | | | S c 7 X y q . . . . . . . . . . . . . . . . . . . . . . . . . . . . . . . o O O O O O o               ",
"            . * < < < < < , . . : c c L { { { S c 7 X y q . . . . . . . . . . . . . . . . . . . . . . . . . . . . . . . , < < < < < * .             ",
"            . * C *.*.*.*.^ , o : c c S S S S v > o X y q . . . . . . . . . . . . . . . . . . . . . . . . . . . . . o , ^ *.*.*.*.C * .             ",
"            . * N ( ( ( ( I < O % > c c c c c > O . X y q . . . . . . . . . . . . . . . . . . . . . . . . . . . . . O < I ( ( ( ( N * .             ",
"            . * 0 V V V V N < O . O 7 7 7 7 4 o + + X y q . . . . . . . . . . . . . . . . . . . . . . . . . . . . . O < N V V V V 0 * .             ",
"            . * 0 V V V V M , o . . X X X X X X w t X y q . . . . . . . . . . . . . . . . . . . . . . . . . . . . . o , M V V V V 0 * .             ",
"            . * < 5 5 5 5 , o . . $ l l l j p p p t X y q . . . . . . . . . . . . . . . . . . . . . . . . . . . . . . o , 5 5 5 5 < * .             ",
"              O % % % % % O . . . r x x x k a a a t . @ + . . . . . . . . . . . . . . . . . . . . . . . . . . . . . . . O % % % % % O               ",
"              O O O O % O o . . . r x x x k a a y q . . . . . . . . . . . . . . . . . . . . . . . . . . . . . . . . . . o O O O O O O               ",
"            . * < < 8 8 6 , o . . r x x x k a p q . . . . . . . . . . . . . . . . . . . . . . . . . . . . . . . . . . o , 6 8 8 < < * .             ",
"            . * 0 Z :.>.W n ; o . r x x x k a @ X . . . . . . . . . . . . . . . . . . . . . . . . . . . . . . . . . o ; n W >.:.Z 0 * .             ",
"          . . * < g C C N 8 % . . + i i i u q X . . . . . . . . . . . . . . . . . . . . . . . . . . . . . . . . . . . % 8 N C C g < * . .           ",
"        . . . % * * * * * & . . . . . . . . . . . . . . . . . . . . . . . . . . . . . . . . . . . . . . . . . . . . . . & * * * * * % . . .         ",
"      . . . . . . . . . . . . . . . . . . . . . . . . . . . . . . . . . . . . . . . . . . . . . . . . . . . . . . . . . . . . . . . . . . . .       "
};
