/* XPM */
static char *aecnf_g50yl[] = {
/* columns rows colors chars-per-pixel */
"74 74 95 2 ",
"   c None",
".  c #17160F",
"X  c #18160F",
"o  c #181710",
"O  c #1D1A13",
"+  c #211E17",
"@  c #231F18",
"#  c #252119",
"$  c #2B251E",
"%  c #2E2621",
"&  c #2F2920",
"*  c #312723",
"=  c #332A24",
"-  c #382F27",
";  c #392E29",
":  c #3D322A",
">  c #42352E",
",  c #44392F",
"<  c #453730",
"1  c #463931",
"2  c #4B3C35",
"3  c #4F3F38",
"4  c #4E4036",
"5  c #54443B",
"6  c #58463E",
"7  c #59483E",
"8  c #5D4B42",
"9  c #614E44",
"0  c #645046",
"q  c #665248",
"w  c #6B554B",
"e  c #6E584E",
"r  c #705A4F",
"t  c #735C51",
"y  c #756053",
"u  c #796155",
"i  c #7D6558",
"p  c #81675B",
"a  c #856B5E",
"s  c #886C5F",
"d  c #8A6F62",
"f  c #8E7164",
"g  c #907466",
"h  c #957769",
"j  c #97796A",
"k  c #9B7D6D",
"l  c #9F7F70",
"z  c #A58575",
"x  c #A98777",
"c  c #AD8B7B",
"v  c #B08D7C",
"b  c #B18F7D",
"n  c #B59180",
"m  c #B69280",
"M  c #BA9583",
"N  c #BD9885",
"B  c #BE9886",
"V  c #C09A87",
"C  c #C19A88",
"Z  c #C19B89",
"A  c #C29B89",
"S  c #C39C8A",
"D  c #C49D8A",
"F  c #C49D8B",
"G  c #C59E8B",
"H  c #C79F8C",
"J  c #C79F8D",
"K  c #C7A08D",
"L  c #C8A08D",
"P  c #C8A08E",
"I  c #C8A18E",
"U  c #C9A18E",
"Y  c #CAA28F",
"T  c #C3A090",
"R  c #CAA491",
"E  c #CBA593",
"W  c #CCA695",
"Q  c #C9A898",
"!  c #CEAA98",
"~  c #D0AD9D",
"^  c #D4B4A5",
"/  c #DBC1B5",
"(  c #DCC2B6",
")  c #DCC2B7",
"_  c #DFC7BC",
"`  c #DCD1CC",
"'  c #E3CFC6",
"]  c #E4D1C8",
"[  c #E5D3CA",
"{  c #EADBD4",
"}  c #EBDED9",
"|  c #ECDED8",
" . c #EEE3DE",
".. c #F0E6E2",
"X. c #F1E7E3",
/* pixels */
"                                                                                                                                                    ",
"                            . . . . . . . . . . . . . . . . . . . . . . . . . . . . . . . . . . . . . .                                             ",
"            . . . . . . . . . . . . . . . . . . . . . . . . . . . . . . . . . . . . . . . . . . . . . . . . . . . . . . . . . . . . . .             ",
"        . . . . . . . . . . . . . . . . . . . . . . . . . . . . . . . . . . . . . . . . . . . . . . . . . . . . . . . . . . . . . . . . .           ",
"      . . . . . . . . . . o # # # $ * * * * : : : : : : : : : : : : : : : : : : : : : : : & . . . @ # @ o O # # O o . . . . . . . . . . . .         ",
"    . . . . . $ i k z U U U U U U U U U U U U U U U U U U U U U U U U U U U U U U U U U U y . . o z U R } X.X.X.X.` k k k k k k j q o . . . .       ",
"    . . . . i G U U U U U U U U U U U U U U U U U U U U U U U U U U U U U U U U U U U U U 7 . . o x U _ X.X.X.X.X.X.| ! U U U U U U n 4 . . . .     ",
"    . . . 2 H U U U U U U U U U U U U U U U U U U U U U U U U U U U U U U U U U U U U U U , . . o v W X.X.X.X.X.X.X.X.[ U U U U U U U c . . . .     ",
"    . . . B U U U U U U U U U U U U U U U U U U U U U H H H G G G S S Z Z Z Z Z S G H U U @ . . O B ^ X. .{ ' ) / ) [ [ Q Z Z Z Z S G U 2 . . .     ",
"  . . . @ U U U U U U U U B n z z j j j f a a a a a a p p p i i u u t t t t t t u u p g v @ . . O V T ~ R U U U U U U U c t t t t t i s 8 . . .     ",
"  . . . # U U U n l f i t t t t t t t t t t t t t t t t t t t t t t t t t t t t t t t t e o . . O k f U U U U U U U U U G t t t t t t t 5 . . .     ",
"  . . . # U M d t t t t t t t t t t t t t t t t t t t t t t t t t t t t t t t t t t t t w o . . # t a U U U U U U U U U U d t t t t t t 8 . . .     ",
"  . . . * l t t t t t t t t t t t t t t t t t t t t t t t t t t t t t t t t t t t t t t q o . . * t t Z U U U U U U U U U k t t t t t t q . . .     ",
"  . . . # t t t t t t t t t t t t t t t t t t t t t t t t t t t t t t t t t t t t t t t 0 o . . 1 t t f K U U U U U U U G i t t t t t t t . . .     ",
"  . . . # t t t t t t t t t t t t t t t t t t t t t t t t t t t t t t t t t t t t t t t 9 o . . 2 t t t x U U U U U U U z t t t t t t t t . . .     ",
"  . . . # t t t t t t t t t t t t t t t t t t t t t t t t t t t t t t t t t t t t t t t 8 . . . 8 t t t t g U U U U U h t t t t t t t t t O . . .   ",
"  . . . O t t t t t t t t t t t t t t t t t t t t t t t t t t t t t t t t t t t t t t t 5 . . . w t t t t t u s f s i t t t t t t t t t t O . . .   ",
"  . . . o t 8 5 8 t t t t t t t t t t t t t t t t t t t t t t t t t t t t t t t t t t t 2 . . . t t t t t t t t t t t t t t t t t t t t t O . . .   ",
"    . . . t 6 2 2 e t t t t t t t t t t t t t t t t t t t t t t t t t t t t t t t t t t : . . o t t t t t t t t t t t t t t t t t t t t t @ . . .   ",
"    . . . t e 5 8 t t t t t t t t t t t t t t t t t t t t t t t t t t t t t t t t t t t : . . O t t t t t t t t t t t t t t t t t t t t t # . . .   ",
"    . . . 0 t t t t t t t t t t t t t t t t t t t t t t t t t t t t t t t t t t t t t t $ . . # t t t t t t t t t t t t t t t t t t t t t # . . .   ",
"    . . . > 2 : : : 1 5 5 9 0 q w w e e t t t t t t t t t t t t t t t t t t t t t t t t # . . # t t t t t t t t t t e w w q 0 0 5 1 : $ . . . . .   ",
"    . . . . . . . . . . . . . o o O O @ @ @ = = : 2 2 6 8 8 8 w t t t t t t t t t t t t o . . # 8 8 4 2 2 : = $ @ @ @ O O o o . . . . . . . . . .   ",
"    . . . . . . . . . . . . . . . . . . . . . . . . . . . . . . . . . . . . . . . . . . . . . . . . . . . . . . . . . . . . . . . . . . . . . . .   ",
"    . . . . . O O O o . . . . . . . . . . . . . . . . . . . . . . . . . . . . . . . . . . . . . . . . . . . . . . . . . . . . . . . O @ # o . . .   ",
"  . . . O e r r r r r r w 7 . . . o . . . . . . . . . . . . . . . . . . . . . . . . . . . . . . . . . . . . . . . . . O $ : , 6 0 r r t t $ . . .   ",
"  . . . O t t t t t t t t t . . . * t t w w 0 0 8 8 8 6 5 5 5 1 1 1 1 1 1 1 1 1 1 1 1 1 1 1 4 5 5 5 7 8 8 9 0 0 w e t t t t t t t t t t t $ . . .   ",
"  . . . @ t t t t t t t t t . . . * t t t t t t t t t t t t t t t t t t t t t t t t t t t t t t t t t t t t t t t t t t t t t t t t t t t $ . . .   ",
"  . . . # t t t t t t t t t . . . * t t t t t t t t t t t t t t t t t t t t t t t t t t t t t t t t t t t t t t t t t t t t t t t t t t t $ . . .   ",
"  . . . $ t t t t t t t t t . . . * t t t t t t t t t t t t t t t t t t t t t t t t t t t t t t t t t t t t t t t t w 6 5 6 e t t t t t t * . . .   ",
"  . . . $ t t t t t t t t r . . . * t t t t w e t t t t t t t t t t t t t t t t t t t t t t t t t t t t t t t t t t 2 2 2 2 8 t t t t t t * . . .   ",
"  . . . $ t t t t t t t t q . . . : t t t 8 2 2 0 t t t t t t t t t t t t t t t t t t t t t t t t t t t t t t t t w 2 2 2 2 9 t t t t t t * . . .   ",
"  . . . * t t t t t t t t q . . . : t t t 2 2 2 2 t t t t t t t t t t t t t t t t t t t t t t t t t t t t t t t t q 2 2 2 5 r t t t t t t * . . .   ",
"  . . . * t t t t t t t t q . . . : t t t 7 2 2 2 w t t t t t t t t t t t t t t t t t t t t t t t t t t t t t t t r 6 3 8 t t t t t t t t $ . . .   ",
"  . . . * t t t t t t t t q . . . : t t t r 6 5 6 t t t t t t t t t t t t t t t t t t t t t t t t t t t t t t t t t t t t t t t t t t t t $ . . .   ",
"  . . . * t t t t t t t t q . . . : t t t t t t t t t t t t t t t t t t t t t t t t t t t t t t t t t t t t t t t t t t t t t t t t t t t # . . .   ",
"  . . . * t t t t t t t t 8 . . . : t 8 q t t e t t t t t t t t t t t t t t t t t t t t t t t t t t t t t t t t t t t t t t t t t t t t t # . . .   ",
"  . . . * t t t t t t t t 7 . . . 2 r 2 6 t 8 2 w t t t t t t t t t t t t t t t t t t t t t t t t t t t t t t t t t t t t t t t t t t t t O . . .   ",
"  . . . * t t t t t t t t 7 . . . 2 t 0 w t q 5 t t t t t t t t t t t t t t t t t t t t t t t t t t t t t t t t t t t t t t t t t t t t t O . . .   ",
"  . . . * t t t t t t t t 7 . . . 2 t t t t t t t t t t t t t t t t t t t t t t t t t t t t t t t t t t t t t t t t t t t t t t t t t t t O . . .   ",
"  . . . * t t t t t t t t 7 . . . 2 t t t t t t t t t t t t t t t t t t t q 8 6 6 8 0 w t t t t t t t t t t t t t t t t t t t t t t t t t O . . .   ",
"  . . . $ t t t t t t t t 7 . . . 2 t t t t t t t t t t t t t t t t t t 5 2 2 2 2 2 2 2 5 w t t t t t t t t t t t t t t t t t t t t t t t O . . .   ",
"  . . . $ t t t t t t t t 5 . . . 2 t t t t t t t t t t t t t t t t r 5 2 2 2 2 2 2 2 2 2 2 3 0 t t t t t t t t t t t t t t t t t t t t t O . . .   ",
"  . . . $ t t t t t t t t 2 . . . 6 t t t t t t t t t t t t t t t t 9 2 2 2 2 2 2 2 2 2 2 2 2 2 5 q t t t t t t t t t t t t t t t t t t t O . . .   ",
"  . . . $ t t t t t t t t 2 . . . 6 t t t t t t t t t t t t t t t t 2 2 2 2 2 2 2 2 2 2 2 2 2 2 2 2 9 t t t t t t t t t t t t t t t t t t O . . .   ",
"  . . . $ t t t t t t t t 2 . . . 6 t t t t t t t t t t t t t t t q 2 2 2 2 2 2 2 2 2 2 2 2 2 2 2 2 2 8 t t t t t t t t t t t t t t t t t O . . .   ",
"  . . . O - - - - - : 1 1 * . . . : 6 6 6 6 6 6 6 6 6 6 6 6 6 0 0 5 > > > > > > > > > : : : : : : : : : 5 6 6 6 2 1 1 1 1 1 1 > - - - - - o . . .   ",
"  . . . . . . . . . . . . . . . . . . . . . . . . . . . . . . . . . . . . . . . . . . . . . . . . . . . . . . . . . . . . . . . . . . . . . . . .   ",
"  . . . . . . . . . . . . . . . . . . . . . . . . . . . . . . . . . . . . . . . . . . . . . . . . . . . . . . . . . . . . . . . . . . . . . . . .   ",
"  . . . . . . . . . . . . . . . . . . . . . . . . . . . . . . . . . . . . . . . . . . . . . . . . . . . . . . . . . . . . . . . . . . . . . . . .   ",
"  . . . O 6 q q q q 8 7 7 7 7 7 7 6 2 2 2 2 2 2 2 2 2 2 2 2 2 : & $ $ $ $ $ $ $ $ $ $ = * X . . @ = = = = : 2 2 5 7 7 7 7 7 7 8 q q q q q # . . .   ",
"  . . . O 2 q t t t t t t t t t t t t t t t t t t t t t t t t q 2 2 2 2 2 2 2 2 2 2 2 2 > o . . * 2 2 2 2 6 t t t t t t t t t t t t t t t $ . . .   ",
"  . . . O 2 2 w t t t t t t t t t t t t t t t t t t t t t t 0 2 2 2 2 2 2 2 2 2 2 2 2 2 > o . . * 2 2 2 2 8 t t t t t t t t t t t t t t t # . . .   ",
"  . . . O 2 2 6 t t t t t t t t t t t t t t t t q 9 8 8 8 5 2 2 2 2 2 2 2 2 2 2 2 2 2 2 > . . . = 2 2 2 2 0 t t t t t t t t t t t t t t t # . . .   ",
"  . . . O 2 2 2 6 t t t t t t t t t t e w w 9 3 2 2 2 2 2 2 2 2 1 2 2 2 2 2 2 2 2 2 2 2 : . . . : 2 2 2 2 w t t t t t t t q q t t t t t t # . . .   ",
"  . . . o 2 2 2 2 5 e t t t t t t 8 2 2 2 2 2 2 2 2 2 2 2 2 1 = = - 2 2 2 2 2 2 2 2 2 2 : . . . : 2 2 2 2 t t t t t t t 8 2 2 8 t t t t t # . . .   ",
"  . . . o 2 2 2 2 2 2 6 0 r t w 5 2 2 2 2 2 2 2 2 2 2 2 2 2 > * * * = 2 2 2 2 2 2 2 2 2 - . . . > 2 2 2 2 t t t t t t 9 2 2 2 2 9 t 0 6 5 O . . .   ",
"  . . . o 2 2 2 2 2 2 2 2 2 2 2 2 2 2 2 2 2 2 2 2 2 2 2 2 2 > * * * * 1 2 2 2 2 2 2 2 2 = . . . 2 2 2 2 2 9 t t t t w 2 2 2 2 2 2 2 2 2 2 o . . .   ",
"  . . . o 2 2 2 2 2 2 2 2 2 2 2 2 2 2 2 2 2 2 2 2 2 2 2 2 2 < * * * * 1 2 2 2 2 2 2 2 2 = . . . 2 2 2 2 2 2 6 q q 6 2 2 2 2 2 2 2 2 2 2 2 o . . .   ",
"    . . . 2 2 2 2 2 2 2 2 2 2 2 2 2 2 2 2 2 2 2 2 2 2 2 2 2 2 > = * - 2 2 2 2 2 2 2 2 2 % . . o 2 2 2 2 2 2 2 2 2 2 2 2 2 2 2 2 2 2 2 2 2 . . .     ",
"    . . . 2 2 2 2 2 2 2 2 2 2 2 2 2 2 2 2 2 2 2 2 2 2 2 2 2 2 2 2 1 2 2 > = - 2 2 2 2 1 # . . o : 1 2 2 2 2 2 2 2 2 2 2 2 2 2 2 2 2 2 2 2 . . .     ",
"    . . . > 2 2 2 2 2 2 2 2 2 2 2 2 2 2 2 2 2 2 2 2 2 2 2 2 2 2 2 2 2 2 = * * > 2 2 < = @ . . o * = 2 2 2 2 2 2 2 2 2 2 2 2 2 2 2 2 2 2 , . . .     ",
"    . . . : 2 2 2 2 2 2 2 2 2 2 2 2 2 2 2 2 2 2 2 2 2 2 2 2 2 2 2 2 2 < * * * < 2 > * * O . . o * * < 2 2 2 2 2 2 2 2 2 2 2 2 2 2 2 2 2 : . . .     ",
"    . . . $ = - : < 2 2 2 2 2 2 2 2 2 2 2 2 2 2 2 2 2 2 2 2 2 2 2 2 2 2 - = - 2 2 * * * O . . o * * < 2 2 2 2 2 2 2 2 2 2 2 2 2 1 > - = # . . .     ",
"    . . . @ * * * * = : 1 2 2 2 2 2 2 2 2 2 2 2 1 < : : : < 1 2 2 2 2 2 2 2 2 2 1 * * * O . . o * * > 2 2 2 2 2 2 2 1 : - = * * * * * * @ . . .     ",
"    . . . . % * * * * * * = - > 1 2 2 2 2 1 : = = * * * * * * = - < 2 2 2 2 2 2 : * * * . . . O * * = : < 2 < > - = * * * * * * * * * % . . . .     ",
"    . . . . @ * * * * * * * * * * * * * * * * * * * * * * * * * * * = = - - - = * * * * . . . O * * * * * * * * * * * * * * * * * * * @ . . . .     ",
"      . . . . o # $ % % * * * * * * * * * * * * * * * * * * * * * * * * * * * * * * * * . . . O * * * * * * * * * * * * * * % % $ $ o . . . .       ",
"      . . . . . . . . . . o O O O O O O @ @ # $ $ * * * * * * * * * * * * * * * * * * * . . . O * * * * * * * $ $ # @ O o . . . . . . . . . .       ",
"        . . . . . . . . . . . . . . . . . . . . . . o o o o o O O O O O O O O O O O O O . . . o o o o o o . . . . . . . . . . . . . . . . .         ",
"            . . . . . . . . . . . . . . . . . . . . . . . . . . . . . . . . . . . . . . . . . . . . . . . . . . . . . . . . . . . . . .             ",
"                    . . . . . . . . . . . . . . . . . . . . . . . . . . . . . . . . . . . . . . . . . . . . . . . . . . . . . . .                   ",
"                                                    . . . . . . . . . . . . . . . . . . . . . . . . . . .                                           ",
"                                                                                                                                                    "
};
