/* XPM */
static char *a6ro0_fviu1[] = {
/* columns rows colors chars-per-pixel */
"74 74 166 2 ",
"   c None",
".  c #171615",
"X  c #181615",
"o  c #1B1917",
"O  c #1D1B18",
"+  c #201A17",
"@  c #231C19",
"#  c #291F1B",
"$  c #1A231A",
"%  c #1B2B1D",
"&  c #19321E",
"*  c #22231C",
"=  c #2C221D",
"-  c #262A1B",
";  c #32241E",
":  c #3A271F",
">  c #3C281F",
",  c #2D351E",
"<  c #2F381F",
"1  c #1C3621",
"2  c #1C3D23",
"3  c #242621",
"4  c #262A23",
"5  c #292E26",
"6  c #342620",
"7  c #362922",
"8  c #3B2B23",
"9  c #2A3027",
"0  c #2D342A",
"q  c #3D3025",
"w  c #313A20",
"e  c #31392E",
"r  c #343E31",
"t  c #422E25",
"y  c #453027",
"u  c #483127",
"i  c #463129",
"p  c #4B342A",
"a  c #52372B",
"s  c #55392D",
"d  c #5A3B2E",
"f  c #573B30",
"g  c #5C3E31",
"h  c #603F31",
"j  c #1E4426",
"k  c #1B4C26",
"l  c #1F4B29",
"z  c #1C5229",
"x  c #204C2A",
"c  c #3E4D25",
"v  c #20532C",
"b  c #215B2F",
"n  c #364233",
"m  c #225D30",
"M  c #236533",
"N  c #246B36",
"B  c #425327",
"V  c #544130",
"C  c #5E4133",
"Z  c #5E4835",
"A  c #41523F",
"S  c #654233",
"D  c #674333",
"F  c #644132",
"G  c #614134",
"H  c #634235",
"J  c #664335",
"K  c #654436",
"L  c #674536",
"P  c #674537",
"I  c #654435",
"U  c #644133",
"Y  c #684334",
"T  c #694434",
"R  c #694637",
"E  c #6D4737",
"W  c #6A4536",
"Q  c #644D37",
"!  c #6C4837",
"~  c #6E4837",
"^  c #6B4738",
"/  c #6A4738",
"(  c #6B4838",
")  c #6C4839",
"_  c #6D4939",
"`  c #6C4838",
"'  c #6E4939",
"]  c #6F4A3A",
"[  c #6D4939",
"{  c #714B3B",
"}  c #704B3A",
"|  c #714A39",
" . c #734C3B",
".. c #724C3B",
"X. c #754C3B",
"o. c #734C3C",
"O. c #744D3C",
"+. c #774F3D",
"@. c #764E3D",
"#. c #754E3D",
"$. c #734C3A",
"%. c #794F3D",
"&. c #784F3E",
"*. c #794F3D",
"=. c #6D533B",
"-. c #79503E",
";. c #78503E",
":. c #7B513F",
">. c #7C513F",
",. c #7D523F",
"<. c #7B513E",
"1. c #51672D",
"2. c #536C2F",
"3. c #51682E",
"4. c #566F30",
"5. c #597331",
"6. c #5B7832",
"7. c #4A5F48",
"8. c #7D5240",
"9. c #7E5340",
"0. c #7F5340",
"q. c #7F5441",
"w. c #7E5340",
"e. c #785B40",
"r. c #576E54",
"t. c #597156",
"y. c #5C7559",
"u. c #5F795C",
"i. c #617C5E",
"p. c #805441",
"a. c #815541",
"s. c #825541",
"d. c #815542",
"f. c #825542",
"g. c #835642",
"h. c #835643",
"j. c #845743",
"k. c #855743",
"l. c #845643",
"z. c #845743",
"x. c #816244",
"c. c #8C6949",
"v. c #97724E",
"b. c #9D7651",
"n. c #A57C55",
"m. c #648436",
"M. c #678937",
"N. c #678837",
"B. c #688937",
"V. c #6B8D39",
"C. c #6C8F39",
"Z. c #6A8D39",
"A. c #71973B",
"S. c #72973B",
"D. c #759D3D",
"F. c #AC8157",
"G. c #AE8258",
"H. c #B2855A",
"J. c #B6885C",
"K. c #B98A5D",
"L. c #80AC42",
"P. c #85B444",
"I. c #8BBD46",
"U. c #8FC248",
"Y. c #91C549",
"T. c #93C84A",
/* pixels */
"                                                                                                                                                    ",
"                                                                                                                                                    ",
"                                          X X X X X X X .                                                                                           ",
"                                        X X o + o o X X X X X X X X X X X X X X                                                                     ",
"                      X X X X X X   X X X X ; : : : ; ; ; = # # @ + o o X X X X X                                                                   ",
"                    X X X X o X X X X X X o : t t 8 @ X o o + + + + + + o X X X X X X X X X X                                                       ",
"                  X X 7 s h a + X X o o X @ > t t ; X o @ + + + O o O o o X X + @ @ = = = X X                                                       ",
"                  X @ s F t t O X X o o X o @ # = @ X 7 G G F C g g g g s @ X s L ( G ] W o X                                                       ",
"                X X ; h F 6 t o O 8 = O X X X X X X X s k.k.k.k.k.k.k.k.:.= X ^ k.k.f u  .O X                                                       ",
"              X X X 7 h F F y o ; k.k.p.>.] G d p = X g k.k.k.k.k.k.k.k.:.= X ] k.k.9.G O.+ X                                                       ",
"              X @ + O p F F t X 8 k.k.k.k.k.k.k.9.8 X L k.k.k.k.k.k.k.k.:.= X ^ k.k.p.] | @ X                                                       ",
"            X X s p X # d F p = C k.k.k.k.k.k.k.>.7 X ] k.k.k.k.k.k.k.k.9.7 @ O.k.k.O.@ p + X                                                       ",
"            X @ :.! = X @ s F | p.k.k.k.k.k.k.k.p.a 7 p.k.k.k.k.k.k.k.k.k.>.O.k.k.k.| X 8 + X                                                       ",
"            X 6 :.F s # X = d %.k.k.k.k.k.k.k.k.k.k.k.k.k.k.k.k.k.k.k.k.k.k.k.k.k.k.:.= p o X                                                       ",
"            X = F F F s = = s >.k.k.k.O.| :.p.k.k.k.k.k.k.k.k.k.k.k.k.k.k.k.k.k.k.p.] u 8 o X                                                       ",
"            X X u F F F d d F 9.k.k.G 6 = 6 8 u g W :.p.k.k.k.k.k.k.k.k.k.k.k.| s 7 = O X X X                                                       ",
"              X @ F F F F F D p.k.9.8 X X X X X X o o @ 7 s L :.k.k.k.k.:.f = o X X X = 8 o X                                                       ",
"              X X u F F F F W p.k.| = X ^ L s t 6 = @ + o X X o y 9.p.p O X o @ 6 p | p.:.@ X                                                       ",
"            X X X 7 F F F F Y >.k.D O = p.k.k.k.p.%.] G s u 8 o @ ] O.o + 8 s ] 9.k.k.k.%.= X                                                       ",
"            X X t d F F F F F E p.g X # g o.p.k.k.k.k.k.k.p.:.+ @ ] :.X ;  .k.k.k.k.O.p = o X                                                       ",
"            X X s F F F F F F F | ^ @ X X X = u ( q.p.k.k.k.:.X =  .q.O = O.k.p.| 8 X X X X X                                                       ",
"            X X d F F F F F F F F X.g o o - $ X X @ 8 s L  .F X @ 7 8 o @ C g 7 o X - < O X                                                         ",
"            X o g F F F F F F F F | L O - C.M.4.c - o X O = = X X X X X X @ X o < 2.S.V.- X                                                         ",
"            X o g F F F F F F | p.p.O.+ - D.T.Y.I.P.S.3.< o X X + g g X X X - B.P.Y.T.V.O X                                                         ",
"            X o g d t g F p F %.k.k.p.; o 5.Y.T.T.T.T.T.I.B X X = | 9.o X X - P.T.T.U.1.X X                                                         ",
"            X X a s @ s h ; d | k.k.k.C X < D.Y.T.T.T.I.6.* X X 6 O.k.7 X X X B D.L.M.- X X                                                         ",
"              X ; h p d F s g W k.k.k.p.8 o < 5.S.D.m.B * O 6 X 8 9.k.d X = @ o , w * X X X                                                         ",
"              X X u F F F F F F p.k.k.k.:.7 X o O O o X + g u X y p.k.] + = O.6 X X o y = X                                                         ",
"              X X @ a u @ 6 s F :.k.k.k.k.9.s 6 = = = y ] k.7 o s k.k.%.6 X  .k.:.O.p.>.8 X X                                                       ",
"              X X X = 8 X X ; g W O.9.k.k.k.k.p.>.:.p.k.k.p.= o u W ^ W 7 X g k.k.k.k.k. .6 X X                                                     ",
"              X X X X + X X 7 h F F W | p.k.k.k.k.k.k.k.k.%.@ X O @ @ @ o o O.k.k.k.k.k.k.t X X                                                     ",
"              X X X X X X X @ d F F F F F | p.k.k.k.k.k.k.p.t @ + X o X X p k.k.k.k.k.p.W O X                                                       ",
"            X X o ; u s a 6 X ; d g F F F F W X.9.p.k.k.k.k.k.p.p.p.p.:.:.p.k.k.p.>.| d 6 X X                                                       ",
"            X o t h F W :.| = X @ ; t p d F F F W | >.k.k.k.k.k.k.k.k.k.k.k.p.%.] d t = X X                                                         ",
"            X = h F W >.k.p.p o X X X o @ = 8 a h F F ! >.k.k.k.k.k.k.k.p.%.W g 8 @ X X X                                                           ",
"          . X t F F | k.k.k.^ @ X o $ o X X X X o = t s g F W W W W D F h d 7 o X X X                                                               ",
"          X X u t s | k.k.k.9.= X o % o X o $ % $ o X X + ; 8 u p a p t = o X X X                                                                   ",
"          X X 8 o 6 | p.k.k.k.y X X X o @ X % m b x 2 % o X X X o + o X X @ + X                                                                     ",
"          X X 6 @ 6 | p.k.k.k.W X o 6 s d # X % M v v M M b $ X X X X + p g 7 X                                                                     ",
"          X X @ d d | p.k.k.k.p.= X t F F p @ X $ X o x M j o X X X X = F F p X X                                                                   ",
"        X X X X p = W p.k.k.k.k.G o @ d F F u o X @ o o 1 o o 7 6 = + t F ! ] X X                                                                   ",
"        X X @ X 6 p E p.k.k.k.k.p.8 X 7 F F F u y s 7 X X o t F h d s F %.p.p.@ X                                                                   ",
"        X o 8 o o F D >.k.k.k.k.k.W @ X W X.E E E E E 7 X t ] | |  .X.p.k.k.p.; X                                                                   ",
"        X O a = X a F | k.k.k.k.k.p.y X 6 >.k.k.k.k.k.p.] 9.k.k.k.k.k.k.k.k.p.8 X                                                                   ",
"        X @ h 6 X 7 F W p.k.k.k.k.k. .# o s p.k.k.k.k.k.k.k.k.k.k.k.k.k.k.k.k.p X                             X X X X                               ",
"        X ; F y X @ g F u g p.k.k.O.D g X = | k.k.k.k.k.k.k.k.k.k.k.k.k.k.k.k.g X X                       X X X X O X X                             ",
"      X X 8 F d o O a d X @ ] k.p.y X D 6 X g k.k.k.k.k.k.k.k.k.k.k.k.k.k.k.k.L o X                     . X @ Q n.v.O X           X X X X X         ",
"      X X u F F # X 8 F = X p p.k.g o @ + X = g O.k.k.k.k.k.k.k.k.k.k.k.k.k.k.] @ X                     X X q c.b.Z X X X X X X X X X * * o X X     ",
"      X X s F F @ X = d a X = | p.s O X o @ X X 7 ] k.k.k.k.k.k.k.k.k.k.k.k.k.| = X                   X X o o = 7 O X X X @ = 6 t o = x.c.=.= X     ",
"      X o h F F @ X + s F = X 8 6 o X # W :.G = X 8 9.k.k.k.k.k.k.k.k.k.k.k.k.O.6 X             X X X X O ] t O X X @ u 6 7 t # g o q F.K.J.e.o X   ",
"      X + F F F p = X t d 7 X X X @ p 9.k.k.k.9.O @ ] :.:.:.:.:.:.:.:.%.%.O.O.] 6 X   X X X X X o O @ @ p k.k.9.L X 7 u ; t g p = X 7 F.K.K.F.@ X   ",
"      X + t t t 8 ; X O + X o = y ] p.k.k.k.k.p.@ X = 6 ; ; = = = = # @ @ @ + O X X X X + = 7 y s G ] ( 9.k.k.k.^ o y >.s + X X o X @ n.K.K.J.= X   ",
"    X X X X X X X X X X X 6 g  .p.k.k.k.k.k.k.p.@ X X o O O O $ * * * 3 4 4 4 5 5 9 X @ g | :.p.p.L g O.k.k.k.9. .s W >.g 6 t y p = X c.K.K.H.* X   ",
"  X o 4 0 0 0 e e r e O X g k.k.k.k.k.k.k.k.k.k.F o * u.u.u.u.i.i.i.i.i.i.i.i.i.i.i.4 o G k.k.k.g X 6 ] O.! W E %.p.k.k.k.p.9.W F t X V K.G.Z X X   ",
"  X * A 7.7.7.7.7.7.A * X F p.k.k.k.k.k.k.k.k.k.O.= X r.u.u.u.y.y.t.t.t.t.t.t.t.r.r.r X p >.%.X.E g F F E X.p.k.k.k.k.k.k.p.X.F F a + O Z 6 X X     ",
"  X * n n n n n n r 0 O X d %.k.k.k.k.k.k.k.k.9.D # X 0 e 0 0 0 0 9 9 5 5 5 4 4 4 3 $ X p | W F F F E %.p.k.k.k.k.k.p.:.| W d a u 7 + X X X X       ",
"  X X o o o o o o o X . . u ! p.k.k.k.k.k.k.%.W t o X X X X X X X X X o o o o o o X X 6 D | W F F F W | | | X.X.X.] g u 7 = @ + o X X X X           ",
"    X X X $ $ $ % % % $ . ; F :.k.k.k.k.p.| F p X o j b z z m M M M M M N N N M 1 X o ; 7 7 7 8 8 8 7 7 7 ; = # O X X X X X X X X X                 ",
"      X . $ k z z z k 2 X + p W 9.p.p.>.W h u o o 2 M N N N N N N M v m N N N l o X X X X X X X X X X X X X X X X X X X X                           ",
"        X . & k z k & $ o X = d W E E D h t + X 2 M N N N N N N M 1 X $ j M m $ X X                                                                 ",
"          X o 2 2 $ X X X o X = h F F g ; o o j N N b M N N N N j o X X o % $ X X                                                                   ",
"          X X o X o = = X o o X = a t + X o l N N l o o j b M l o X t s = X X X X                                                                   ",
"          X X X O 8 ]  .= X o o X X X X X 1 M N v $ X X o & k $ X 6 F p. .u 6 7 X X                                                                 ",
"        X X = 7 a W >.k.] @ o $ X X X X X o l v $ X X   X o $ X # s | k.k.p.O.] # X                                                                 ",
"        X o t h p.k.p.L :.g o X X X     . X o o X X     X X X o u F F W O.k.k.q.8 X X                                                               ",
"        X O t p p.k.G + 7 9.p @ X X       X X X X         X o 7 F F F F %.L @ g g o X                                                               ",
"      X X ; d D k.k.s X y  .L g X X           X           X = F F F F F %.g X 6 g @ X                                                               ",
"      X X = t G p.9.8 X D 7 6 s X X                       X + F F F F F | L X o @ X X                                                               ",
"        X X X X O ; @ X >.X = t X X                       X X d F F h u = X X X X X                                                                 ",
"          X X X X X X X @ X = = X X                       X X t y ; o X X X X X                                                                     ",
"                    X X X X X X X                         . X o X X X X                                                                             ",
"                              X                             X X X                                                                                   ",
"                                                                                                                                                    ",
"                                                                                                                                                    "
};
