/* XPM */
static char *ahf4f_eb2os[] = {
/* columns rows colors chars-per-pixel */
"74 74 160 2 ",
"   c None",
".  c #171615",
"X  c #181615",
"o  c #1C1917",
"O  c #1D1B18",
"+  c #211A17",
"@  c #241D1A",
"#  c #281F1B",
"$  c #1A231A",
"%  c #1A2D1D",
"&  c #1A331F",
"*  c #22231C",
"=  c #2C221D",
"-  c #272C1C",
";  c #292E1C",
":  c #31241E",
">  c #38261E",
",  c #2B321D",
"<  c #1C3722",
"1  c #1C3B23",
"2  c #242621",
"3  c #262923",
"4  c #292E26",
"5  c #332620",
"6  c #372821",
"7  c #3B2B23",
"8  c #2D332A",
"9  c #3F3227",
"0  c #323B20",
"q  c #30372D",
"w  c #313A2E",
"e  c #353F32",
"r  c #422E25",
"t  c #463027",
"y  c #483127",
"u  c #463228",
"i  c #4B342A",
"p  c #4B392C",
"a  c #51372B",
"s  c #55392D",
"d  c #5B3C2F",
"f  c #573C30",
"g  c #5C3E31",
"h  c #603F31",
"j  c #1D4426",
"k  c #1B4A26",
"l  c #1F4929",
"z  c #1D532A",
"x  c #1F5C2E",
"c  c #204F2B",
"v  c #384422",
"b  c #3C4924",
"n  c #20532D",
"m  c #215A2F",
"M  c #374134",
"N  c #394536",
"B  c #3B4738",
"V  c #3E4B3B",
"C  c #225D30",
"Z  c #226433",
"A  c #246B36",
"S  c #495D2A",
"D  c #414F3E",
"F  c #574331",
"G  c #5F4033",
"H  c #42513F",
"J  c #644133",
"K  c #6E4737",
"L  c #6D4736",
"P  c #694536",
"I  c #604A35",
"U  c #6A4738",
"Y  c #6A4638",
"T  c #6B4738",
"R  c #654E38",
"E  c #6C4838",
"W  c #6D4939",
"Q  c #6F4A3A",
"!  c #6E4A3A",
"~  c #6E4939",
"^  c #6E4939",
"/  c #704B3A",
"(  c #734B3B",
")  c #724C3B",
"_  c #734C3B",
"`  c #744D3B",
"'  c #734C3C",
"]  c #754D3C",
"[  c #774F3D",
"{  c #764E3D",
"}  c #734C3B",
"|  c #784F3D",
" . c #784F3E",
".. c #794F3D",
"X. c #7A513F",
"o. c #79503E",
"O. c #7D523F",
"+. c #7C513F",
"@. c #7C513E",
"#. c #75593E",
"$. c #51682D",
"%. c #546C2E",
"&. c #556F2F",
"*. c #536C2F",
"=. c #597331",
"-. c #5F7E34",
";. c #455542",
":. c #475844",
">. c #485945",
",. c #4C5F49",
"<. c #7D5240",
"1. c #7D5340",
"2. c #7F5340",
"3. c #7E5340",
"4. c #7E5340",
"5. c #7A5C41",
"6. c #50644D",
"7. c #556C52",
"8. c #586F55",
"9. c #597256",
"0. c #5C7559",
"q. c #5F795C",
"w. c #617D5E",
"e. c #637F60",
"r. c #815541",
"t. c #805441",
"y. c #815542",
"u. c #825542",
"i. c #835642",
"p. c #835743",
"a. c #845743",
"s. c #855743",
"d. c #845642",
"f. c #845743",
"g. c #846445",
"h. c #906C4B",
"j. c #96714E",
"k. c #99734F",
"l. c #9C7651",
"z. c #698B38",
"x. c #6A8C38",
"c. c #6E933A",
"v. c #6F943B",
"b. c #749B3D",
"n. c #779F3D",
"m. c #79A23F",
"M. c #7AA33F",
"N. c #AB8057",
"B. c #B7895C",
"V. c #B98A5D",
"C. c #86B644",
"Z. c #88B845",
"A. c #8CBC47",
"S. c #8EC048",
"D. c #91C549",
"F. c #92C64A",
"G. c #92C749",
"H. c #92C64A",
"J. c #93C84A",
"K. c #93C84A",
/* pixels */
"                                                                                                                                                    ",
"                                                                                                                                                    ",
"                                                                                                                                                    ",
"                                                                                                                                                    ",
"                                                                                                                                                    ",
"                                    X X X X X X X X X X X X X X X X X X X                                                                           ",
"                                    X X : : : : = = = # # # # + + O X X X X X X X X                                                                 ",
"                    X X X X X X X X X o r r r > # # # + + O O o X X X X X X O # = X X                                                               ",
"                X X O = 7 + X X o O X # r r r # X O O O @ # = : 5 7 X # s G P P { + X                                                               ",
"                X @ s J g = X X + + X @ = = = O O o.u.d.d.d.d.d.d.3.@ : d.d.@.= { 5 X                                                               ",
"                X : J i 6 = X @ + O o X X X X X O u.d.d.d.d.d.d.d.3.# # d.d.d.J { r X                                                               ",
"              X X r J s a = O G ~ ~ P P J G g # + u.d.d.d.d.d.d.d.3.= + d.d.d.) G i X                                                               ",
"            . X X 5 h J g # O / d.d.d.s.d.d.u.= + d.d.d.d.d.d.d.d.u.7 # d.d.d.i O s X                                                               ",
"            X = # O r J h = =  .d.d.d.d.d.d.u.= = d.d.d.d.d.d.d.d.d.) / d.d.d.i X f X                                                               ",
"          X o d J o O r J d { d.d.d.d.d.d.d.d.U ~ d.d.d.d.d.d.d.d.d.d.d.d.d.d.~ r g X                                                               ",
"          X + U K t O X 7 J u.d.d.d.d.d.d.d.d.d.d.d.d.d.d.d.d.d.d.d.d.d.d.3.) s = X X X                                                             ",
"          X + g J J i + = g d.d.d.3.J P ~ o.u.d.d.d.d.d.d.d.d.d.d.d.d.{ f 7 @ X + = X X                                                             ",
"          X X r J J J g d J d.d.d.5 X X o O @ = 7 i g ~ o.u.d.d.d.{ r O X X + i  .~ X X                                                             ",
"            X # d J J J J J d.d.) X # 7 5 = # @ O X X X X # G d.g X X # 7 G 3.d.d.@.# X                                                             ",
"            X X 7 J J J J J d.d.g X i u.@.{ ) ~ P J s i 7 O # u.7 X y ) u.d.d.u.J 6 O X                                                             ",
"            X X o J J J J J 3.d.r o g u.u.d.d.d.d.d.d.d./ # # d.u X s d.d.u.U = X X X                                                               ",
"            X # y J J J J J P @.i X @ 5 u s J / 3.d.d.d.~ O = P t X u  .g 6 X O 0 X X                                                               ",
"            X = h J J J J J J P o.r X X X X O # = 7 i P G X o @ O X @ = O o v v.n.X X                                                               ",
"            X = h J J J J J J J K U X b z.$.v ; * O o X X X X = # X X X 0 c.H.J.b.X X                                                               ",
"            X = h J J J J J P / @.] @ ; S.J.H.Z.M.z.=.v X X X ' g X X . &.H.J.H.&.X X                                                               ",
"            X = h J J J J J K d.d.3.6 X x.J.J.J.J.J.H.b X X X 3.3.o X X * -.A.v.- X X                                                               ",
"            X # g r 7 J 7 a P u.d.d.g X 0 M.H.J.H.C.&.O O o O u.d.r X = + X O o O # X                                                               ",
"            X o s a 7 J s s J @.d.d.3.7 X , S $.S 0 O @ s @ = d.d.~ X 7 P u 6 r g i X X                                                             ",
"              X # J J J J J J ] d.d.d.d.y o X X X X 5 { ~ O 7 d.d.3.= X o.d.d.d.d.3.= X X                                                           ",
"              X X 6 g t 6 y J ~ u.d.d.d.u./ g s g ~ u.d.P X 7 T U P 6 X P d.d.d.d.d.P @ X                                                           ",
"              X X X 7 7 X O t J K  .u.d.d.d.d.d.d.d.d.d.g X O @ @ + o # 3.d.d.d.d.u.s o X                                                           ",
"              X X X X X O # i J J J P ] u.d.d.d.d.d.d.d.~ : = = = = 5 J d.d.d.u.] g = X                                                             ",
"            X X # : : # X # d J J J J J J / o.u.d.d.d.d.d.d.u.s.d.d.d.d.d.u.{ J y # X X                                               X X X         ",
"          X X 7 d h h d 7 X @ 7 a h J J J J J P } u.d.d.d.d.s.s.d.d.d.d. .P a = o X X                                             X X X X X X X     ",
"          X = g J J P / P # X X X O # 6 t a d d h J / @.u.u.3.2.@.o.{ P s 5 X X X                                 X X         X X X = #.j.#.= X     ",
"        X X y t J / u.d.3.: X O X o o X X X + = : 7 r i g J J J J d y : O X X                                 X X @ X X     X X O X p B.B.B.g.o X   ",
"        X @ 6 = h u.d.d.3.= O 7 O o $ X X $ $ X X X X X o O # = # O X X X X                                 X X p k.X X X X X 7 s + = l.B.B.B.9 X   ",
"        X 5 r t / d.d.d.{ = O d 6 X X # O O n Z n j 1 % $ o X o X X # r r X                                 X u N.l.X X O = s 7 r O o R B.B.B.I X   ",
"        X r r J u.d.d.d.T @ @ J g 7 r d r O $ c j 1 Z A n O X o o o i J a o X                             X X 7 F 7 X + i # y 6 O X O * h.B.k.= X   ",
"      X X r = / d.d.d.d.G o : J J J J J J 6 X X X X < Z $ X X X X O s J g # X                             X X X X X X O ~ G # X @ a y X O 5.7 X X   ",
"      X O s J @.d.d.d.d.s X t J J J J J J g : + : # o $ X : d y 7 r P { o.5 X X                           X = G f P y X P / 7 u P J h 7 X X X X     ",
"      X # d P u.d.d.d.d.y X a J J  . .~ J J h d h s # X # d J P P / u.d.u.r X X                         X X 6 d.d.d.) u ~ u.3.u.o.J J r X X X       ",
"      X : h P u.d.d.d.d.y X a J J @.d.d.d.@. .@.@.2.P 7 ) d.d.d.d.d.d.d.d.i X X X                   X X O = J d.d.u. .] d.d.d.u.P d 5 X X X         ",
"      X 7 J P u.d.d.d.d.i X i J J  .d.d.d.d.d.d.s.d.d.d.d.d.d.d.d.d.d.d.d.g X X X                 X X 5 G 3.u.d.@./ { u.d.d.3.P t # X X             ",
"    X X r J a ) d.d.d.d.s X y J J  .d.d.d.d.d.d.d.d.d.d.d.d.d.d.d.d.d.d.d.P O X X X           X X X i o.3.7 J ] P @.d.d.d.3.g = o X X               ",
"    X X i s X t u.d.d.d.f X r J J  .d.d.d.d.d.d.d.d.d.d.d.d.d.d.d.d.d.d.d.{ O + @ X         X o : P d.d.s 5 J P @.d.u.3./ t O X X                   ",
"    X o s i X u u.d.u.u.g X 7 J J ] d.d.d.d.d.d.d.d.d.d.d.d.d.d.d.d.d.d.d.u.# X X X X X X X O p  .d.d.3.J h J o.u.{ P t # X X                       ",
"    X O g t X i d.2.7 # g o 5 J / u.d.d.d.d.d.d.d.d.d.d.d.d.d.d.d.d.d.d.d.d.5 X # : X X X = { d.d.d. .J J J / K g 7 O X X X                         ",
"    X O s 7 X y u.o.: X s O : o.d.d.d.d.d.d.d.d.d.d.d.s.d.d.d.d.d.d.d.d.d.d.y X G d.P = O g d.d.u. .~ P J d i 7 + X X X                             ",
"    X X # + X # 7 7 + X # X 5 3.d.d.d.d.d.d.d.d.d.u.3.o.{ ~ U P J g f s i y 5 X 5 P d.i X i 3.d.d.@./ g 7 = O X X                                   ",
"    X X O O O o o o O O O X : i i u 7 7 5 = # + o X X X X X X X X X X X X o o o X O { 7 X a u.3.P a : o X X X                                       ",
"    X # P ~ J G g G J U J = X X X X o O O * * 2 3 4 4 8 8 w w e M N B V D H ;.:.8 X g G o = s 7 # X X X X                                           ",
"  X X s 3.d.d.d.d.d.d.d.d.J X 3 ,.7.7.7.8.9.9.9.0.0.0.0.q.q.w.w.w.w.w.e.e.e.e.e.;.X r u.7 X O X X X                                                 ",
"  X = J u.d.d.d.d.d.d.d.d.u.O 3 9.q.q.0.0.0.0.9.9.8.8.7.7.7.6.,.>.;.D V N e w 8 3 X 7 2.u X X X                                                     ",
"  X 7 J u.d.d.d.d.d.d.d.u.g X O 8 q 8 8 4 4 3 2 * $ O o o X X X X X X X X X o X X + g ) @ X                                                         ",
"  X 7 J u.d.d.d.d.d.d.d.3.5 X X X X X . X X o O $ $ % % % 1 j j l c n m C Z m o o s J 5 X X                                                         ",
"  X 7 J u.d.d.d.d.d.d.d.d.7 o < j j k z m x z x A A A A A A A A Z m Z A A Z % X 7 d = X X                                                           ",
"  X = J / u.d.d.d.d.u.3.{ : o n Z x Z A A A A A A A A A A A A A 1 O % n A j o # r # X X                                                             ",
"  X X g J P ] / P J J J 7 X $ Z A A Z z Z A A A A A A A A A A n O X X X $ O X = o X X                                                               ",
"    X 7 J J J g s y 7 # X X 1 x x z 1 % k A A A A j $ 1 m Z x $ X a f @ X X X X X                                                                   ",
"    X O = : = # + o X o # X $ k z & o . $ z A A j o X X $ k & X 7 u.d.5 X X X X                                                                     ",
"      X X X X X X X 7 d g = X % % X O X X O m c O X = # X o X # / d.d.5 X                                                                           ",
"                X X : = J P # X X # J # X X O $ X X r d 7 O X s u.d.u.= X                                                                           ",
"                X X 7 y @.d.s X # / 3.r X X . X X O a J J i r P u.d.u.= X                                                                           ",
"                X X r y u.d.P X a y # g X .   X X + d J J J J  .{ ~ 3.= X                                                                           ",
"                  X r =  .d.{ X r y X g o X     X = J J J J J @.5 # / = X                                                                           ",
"                  X r J ] d.{ + @ = X X X .     X O = 5 r i d / = + ~ # X                                                                           ",
"                  X = 5 = # X X X X X X X       X X X X X X X X X X 5 O X                                                                           ",
"                  X X X X X X X                             X X X X X X X                                                                           ",
"                                                                                                                                                    ",
"                                                                                                                                                    ",
"                                                                                                                                                    ",
"                                                                                                                                                    ",
"                                                                                                                                                    "
};
