/* XPM */
static char *a22mh_tr36o[] = {
/* columns rows colors chars-per-pixel */
"74 74 161 2 ",
"   c None",
".  c #171615",
"X  c #181615",
"o  c #1B1917",
"O  c #1D1B18",
"+  c #201A17",
"@  c #231D1A",
"#  c #291F1B",
"$  c #1A231A",
"%  c #1A2B1D",
"&  c #19331F",
"*  c #22231C",
"=  c #2C221D",
"-  c #292E1C",
";  c #31241E",
":  c #3C281F",
">  c #2C331E",
",  c #31391F",
"<  c #1C3521",
"1  c #1C3C23",
"2  c #232620",
"3  c #262923",
"4  c #292D26",
"5  c #342620",
"6  c #362922",
"7  c #3B2B23",
"8  c #2A3027",
"9  c #2D332A",
"0  c #3C3026",
"q  c #30372D",
"w  c #323B2F",
"e  c #353E32",
"r  c #422E25",
"t  c #453027",
"y  c #483227",
"u  c #463229",
"i  c #4B342A",
"p  c #4F382D",
"a  c #51372C",
"s  c #54392D",
"d  c #5B3C2E",
"f  c #573C30",
"g  c #5C3E31",
"h  c #603F31",
"j  c #1D4425",
"k  c #1C4A26",
"l  c #1F4728",
"z  c #1F4A2A",
"x  c #1E542A",
"c  c #1E5A2D",
"v  c #204E2B",
"b  c #354022",
"n  c #3A4624",
"m  c #21542D",
"M  c #205C2F",
"N  c #374134",
"B  c #394536",
"V  c #3D4A3A",
"C  c #225E31",
"Z  c #226332",
"A  c #246B36",
"S  c #52402F",
"D  c #415226",
"F  c #414F3E",
"G  c #554230",
"H  c #5F4033",
"J  c #644133",
"K  c #694737",
"L  c #6A4535",
"P  c #6C4636",
"I  c #6A4636",
"U  c #604935",
"Y  c #6E4837",
"T  c #6B4738",
"R  c #694738",
"E  c #6B4738",
"W  c #674F38",
"Q  c #6D4838",
"!  c #6E4939",
"~  c #6F4A3A",
"^  c #6F4A3A",
"/  c #6D4939",
"(  c #704A38",
")  c #734A39",
"_  c #724C3B",
"`  c #734D3C",
"'  c #744D3C",
"]  c #754D3C",
"[  c #754E3C",
"{  c #774E3D",
"}  c #734C3A",
"|  c #784F3D",
" . c #784F3D",
".. c #79503E",
"X. c #7A513E",
"o. c #7C523F",
"O. c #7C513F",
"+. c #7C513E",
"@. c #765A3F",
"#. c #4C622C",
"$. c #4C622B",
"%. c #50672D",
"&. c #52692E",
"*. c #556F2F",
"=. c #577130",
"-. c #577130",
";. c #5D7A33",
":. c #455442",
">. c #475844",
",. c #495B46",
"<. c #4B5E48",
"1. c #7E5340",
"2. c #7D5240",
"3. c #7F5441",
"4. c #7E5340",
"5. c #795C41",
"6. c #4E614B",
"7. c #51664E",
"8. c #52684F",
"9. c #556B52",
"0. c #586F55",
"q. c #5A7257",
"w. c #5C7659",
"e. c #5F795C",
"r. c #617C5E",
"t. c #637F60",
"y. c #815441",
"u. c #825542",
"i. c #835642",
"p. c #825642",
"a. c #815542",
"s. c #845743",
"d. c #855743",
"f. c #845642",
"g. c #845743",
"h. c #8F6C4B",
"j. c #946F4D",
"k. c #95704D",
"l. c #99734F",
"z. c #A97E56",
"x. c #648336",
"c. c #668737",
"v. c #638335",
"b. c #678837",
"n. c #688A37",
"m. c #6B8E39",
"M. c #70963B",
"N. c #739A3C",
"B. c #769D3E",
"V. c #7AA43F",
"C. c #AE8258",
"Z. c #B7895C",
"A. c #B98A5D",
"S. c #87B745",
"D. c #8BBC47",
"F. c #8EC048",
"G. c #92C64A",
"H. c #92C749",
"J. c #91C649",
"K. c #93C84A",
"L. c #93C84A",
/* pixels */
"                                                                                                                                                    ",
"                                                                                                                                                    ",
"                                                                                                                                                    ",
"                                                                                                                                                    ",
"                                                                                                                                                    ",
"                                                                          X X X X X X X X X X X X X X X X X X                                       ",
"                                                                X X X X X X X X o o + + @ @ @ # # # = = = # X X                                     ",
"                                                              X X O o o X X X X X X o o + @ @ @ # = : r r r X X X X X X X X X X                     ",
"                                                              X O ! J f a u @ X 5 = = @ @ + o o o X = r r r + X o X X X @ ; # o X                   ",
"                                                              X = ..7 1.d.u.; @ | o.......[ [ [ ! o + ; ; ; + X + + X X 5 g g i o X                 ",
"                                                              X 7 [ g d.d.d.# # 3.d.d.d.d.d.d.d.d.o X X X X X X o o o X ; ; s h @ X                 ",
"                                                              X i K [ d.d.d.@ = u.d.d.d.d.d.d.d.u.O @ a a s f f H J a X ; i a J 7 X X               ",
"                                                              X a O i d.d.d.o 5 u.d.d.d.d.d.d.d.d.O ; d.d.d.d.d.d.d.R X ; h J h = X X .             ",
"                                                              X s X i d.d.d.! ! d.d.d.d.d.d.d.d.d.@ ; d.d.d.d.d.d.d.` O 5 h J r X @ @ X             ",
"                                                              X f 7 R d.d.d.d.d.d.d.d.d.d.d.d.d.d.J K d.d.d.d.d.d.d.u.K d J r O o J u X             ",
"                                                            X X X = H 1.u.d.d.d.d.d.d.d.d.d.d.d.d.d.d.d.d.d.d.d.d.d.d.u.J 7 X o i ( J X X           ",
"                                                            X X @ O X @ u J ..d.d.d.d.d.d.d.d.d.d.d.d.u..._ R R u.d.d.u.d @ @ i J K f X X           ",
"                                                            X X K ! i + X o # i [ d.d.d.u...! H a r 5 = @ @ + + 7 d.d.d.J s d J J J 7 X X           ",
"                                                            X @ o.d.d.1.f 5 @ X X J d.J @ X X X X o O @ @ = = + X [ d.d.J J J J J s @ X             ",
"                                                            X o 7 K u.d.d.u.! r X 7 u.@ o 6 t i f H K ! [ ..1.r X J d.d.L J J J J 6 X X             ",
"                                                              X X X 5 ! d.d.d.s X i d.@ @ [ d.d.d.d.d.d.d.d.d.a X i d.1.J J J J h X X X             ",
"                                                              X X > O X 7 J ..u X i ! = O _ d.d.d.1.[ K g i 6 @ X a o.J J J J J J r O X             ",
"                                                              X X N.n.b o O ; @ X O @ o o L K a 7 5 = + X X X X t [ K J J J J J J d @ X             ",
"                                                              X X B.K.H.m.> X X X @ @ X X X X X o O * , #.c.n X [ P J J J J J J J d @ X             ",
"                                                              X X *.H.K.H.-.X X X f _ X X X b &.x.B.S.H.K.F.- @ o...( J J J J J J d @ X             ",
"                                                              X X - M.D.v.* X X o o.1.X X X D H.K.K.K.K.K.b.X 7 u.d.d.K J J J J J d @ X             ",
"                                                              X @ o o O X O = X r d.u.o X o O ;.D.H.K.H.V.> o H d.d.u.J i r h 5 t d @ X             ",
"                                                            X X i f 7 5 r J 7 X ! d.d.= @ a + O n %.-.$.> X r 1.d.d...J a s g 5 s i o X             ",
"                                                          X X = ..d.u.u.u...X = u.d.d.7 o ( ( = X X X X o i u.d.d.d.( J J J J J J @ X               ",
"                                                          X + K d.d.d.d.d.K X 7 Q ! ! 7 X R d.u.K s p f ( d.d.d.d.u.P J i 7 i g ; X X               ",
"                                                          X o a u.d.d.d.d.1.@ o @ @ @ o X J d.d.d.d.d.d.d.d.d.u.| P J r o X 7 5 X X                 ",
"                                                            X = h ] u.d.d.d.J = = = @ = = ( d.d.d.d.d.d.d.u.] J J J J y @ o X X X X X               ",
"        X X X                                               X X # i L | u.d.d.d.d.d.d.u.d.d.d.d.d.d.u...( J J J J J J s @ X @ = ; @ X X             ",
"      X X X X X X                                             X X o = a K ..d.d.d.d.d.d.d.d.d.d.u.( K J J J J J h a 7 @ X r d h h d ; X X           ",
"    X @ W j.5.6 X X X         X X                                 X X X 5 s K [ ..o.1.u.u.u.o.( J h d d a t 6 @ o X X X = ! Y K J J d @ X           ",
"  X X @.Z.A.A.U X O X X X     X @ X X                                 X X o ; y d J J J J g i r 7 ; # + X X X o o X + X 7 u.d.u.P g r i X X         ",
"  X 6 Z.A.A.z.0 X a t X X X X X l.S o X                                 X X X X o # = @ o o X X X X X $ $ X X $ o O 7 X 7 u.d.d.1.d @ 7 + X         ",
"  X s A.A.A.5.o X r 7 f = O X X k.C.s X X                               X r r # X X o X o % % 1 l m Z m O o @ X X 7 s X 5 ..d.d.d.Y 7 r = X         ",
"  X @ h.A.l.= o X o 5 p # u @ X 6 G 0 X X                             X o a J i X o o X $ m A Z < j v O o t d r 7 g h o # [ d.d.d.o.J 7 6 X         ",
"    X * 5.= X r s @ X O g ! o X o X X X X                             X @ g J s o X X o X % Z < X X X X 7 J J J J J J = o ! d.d.d.d.P + 7 X         ",
"    X X X X 5 g J Q i 7 ! ! X r K f H = X                           X X 5 ..[ K r 7 i d ; X $ o # ; + 5 h J J J J J J r X g d.d.d.d...g i o .       ",
"        X X 7 h J [ u.1.u.( t ! d.d.d.7 X X                         X X r u.d.u.( K K L d @ X # d h d h J L ( | | J J i X a d.d.d.d.o.J s + X       ",
"          X X ; d L o.d.d.d.] [ u.d.d.K 5 O X X                   X X X i d.d.d.d.d.d.d.d._ r ! 1.o.o...o.d.d.d...J J i X s d.d.d.d.y.J d @ X       ",
"            X X + r J o.d.d.d.| ! ..d.d.1.L 6 X X                 X X X f d.d.d.d.d.d.d.d.d.d.d.d.d.d.d.d.d.d.d.| J J i X f d.d.d.d.u.J J = X       ",
"                X X @ s o.d.d.d.u.K ( K 6 ..1.p X X X           X X X o K d.d.d.d.d.d.d.d.d.d.d.d.d.d.d.d.d.d.d.[ J J r X H d.d.d.d.! i J 6 X       ",
"                  X X o 7 K o.u.d.1.K J 7 a d.d.! 5 o X         X @ + O [ d.d.d.d.d.d.d.d.d.d.d.d.d.d.d.d.d.d.d.] J J 7 X K d.d.d.1.6 X d r X X     ",
"                      X X @ 7 J ] 1.o.L J J o.d.d...s + X X X X X X X @ u.d.d.d.d.d.d.d.d.d.d.d.d.d.d.d.d.d.d.d.( J J 7 X R u.u.d.1.6 X a a X X     ",
"                        X X X o 7 d K ( J J J ] d.d.d...5 X X o 5 = X 5 d.d.d.d.d.d.d.d.d.d.d.d.d.d.d.d.d.d.d.d.u.( J ; o K @ u u.u.7 X i d X X     ",
"                            X X X o ; i d J K ( | u.d.d.J o = R d.J X i d.d.d.d.d.d.d.d.d.d.d.d.d.d.d.d.d.d.d.d.d.d...= + f X 7 u.1.7 X r a o X     ",
"                                  X X o @ 7 d P o.d.d.1.a X i d.K = X = t i p a f g J K ! ` | 1.u.d.d.d.d.d.d.d.d.d.o.= X @ X + 5 5 + X O + X X     ",
"                                      X X X X = i L ..u.a X 7 [ O o O o o o o X X X X X X X X X X o + @ = 5 6 7 t i i = X + @ + O o O + @ + X X     ",
"                                            X X X @ 7 a = o J f X 9 <.,.>.>.:.F V V B N e w q 9 8 4 3 2 * O O o X X X X 5 K ! K K J K K _ L @ X     ",
"                                                X X X X X 7 u.r X >.t.t.t.t.t.t.t.r.r.r.r.r.r.r.e.e.e.e.e.w.w.q.q.6.2 X Q d.d.d.d.d.d.d.d.o.a X X   ",
"                                                      X X r u.7 X 3 9 9 w N B V F :.>.,.6.6.8.8.8.9.9.0.0.q.q.w.w.8.* + u.d.d.d.d.d.d.d.d.1.g @ X   ",
"                                                        X + ! J @ X X o X X X X X X X X X X o O O $ * 2 2 3 3 4 8 4 o X g u.d.d.d.d.d.d.d.u.h ; X   ",
"                                                          X = J d o o C Z Z C M m v l j 1 & % % % $ O o o o X X X X X X 7 u.d.d.d.d.d.d.d.u.J ; X   ",
"                                                          X X = a r X % Z A A Z m Z A A A A A A A A M c M Z x k k k < X u d.d.d.d.d.d.d.d.o.h = X   ",
"                                                            X X + r = X j A l $ o 1 A A A A A A A A A A A A A Z Z A v X 7 [ o.u.d.d.d.d.u.Y d @ X   ",
"                                                              X X X = X O $ X o o o x A A A A Z A A A A A Z x Z A A Z o X 7 d J L K ( ] K J a X X   ",
"                                                                  X X X X X @ J f X $ c Z x < $ 1 A A A Z j % < x c c & X X @ 5 t a d J J h 5 X     ",
"                                                                    X X X X 5 d.d.r X % k $ X X X j A A k o X o & x k o X = o X X o o @ @ @ X X     ",
"                                                                          X 5 d.d.( = X o X = = X o v m o X o @ X % $ X 7 h a ; X X X X X X X       ",
"                                                                          X = u.d.u.s X o r g r X X O o X X ; K @ X X ; ! J = = X X                 ",
"                                                                          X = u.d.u.K i s J J i o X X X X X i o.| @ X J d.o.i 5 X                   ",
"                                                                          X = o.J R ..J J J J d o X X   X X s + p u X _ d.1.t 7 X                   ",
"                                                                          X = ! + 5 ..J J J J J # X     X o a X a 7 o u.d.] ; 7 X                   ",
"                                                                          X @ K o = K a r 7 ; @ o X     X X X X = O @ ( | K g 7 X                   ",
"                                                                          X o = X X X X X X X X X X       X X X X X X X @ = = @ X                   ",
"                                                                            X X X X X                                 X X X X X X                   ",
"                                                                                                                                                    ",
"                                                                                                                                                    ",
"                                                                                                                                                    ",
"                                                                                                                                                    ",
"                                                                                                                                                    "
};
