/* XPM */
static char *abmht_bhaxh[] = {
/* columns rows colors chars-per-pixel */
"74 74 166 2 ",
"   c None",
".  c #171615",
"X  c #181615",
"o  c #1B1917",
"O  c #1D1B18",
"+  c #201A17",
"@  c #231C19",
"#  c #291F1B",
"$  c #1A231A",
"%  c #1B2B1D",
"&  c #19321E",
"*  c #22231C",
"=  c #2C221D",
"-  c #262A1B",
";  c #32241E",
":  c #3A271F",
">  c #3C281F",
",  c #2D351E",
"<  c #2F381F",
"1  c #1C3621",
"2  c #1C3D23",
"3  c #242621",
"4  c #262A23",
"5  c #292E26",
"6  c #342620",
"7  c #362922",
"8  c #3B2B23",
"9  c #2A3027",
"0  c #2D342A",
"q  c #3D3025",
"w  c #313A20",
"e  c #31392E",
"r  c #343E31",
"t  c #422E25",
"y  c #453027",
"u  c #483127",
"i  c #463129",
"p  c #4B342A",
"a  c #52372B",
"s  c #55392D",
"d  c #5A3B2E",
"f  c #573B30",
"g  c #5C3E31",
"h  c #603F31",
"j  c #1E4426",
"k  c #1B4C26",
"l  c #1F4B29",
"z  c #1C5229",
"x  c #204C2A",
"c  c #3E4D25",
"v  c #20532C",
"b  c #215B2F",
"n  c #364233",
"m  c #225D30",
"M  c #236533",
"N  c #246B36",
"B  c #425327",
"V  c #544130",
"C  c #5E4133",
"Z  c #5E4835",
"A  c #41523F",
"S  c #654233",
"D  c #674333",
"F  c #644132",
"G  c #614134",
"H  c #634235",
"J  c #664335",
"K  c #654436",
"L  c #674536",
"P  c #674537",
"I  c #654435",
"U  c #644133",
"Y  c #684334",
"T  c #694434",
"R  c #694637",
"E  c #6D4737",
"W  c #6A4536",
"Q  c #644D37",
"!  c #6C4837",
"~  c #6E4837",
"^  c #6B4738",
"/  c #6A4738",
"(  c #6B4838",
")  c #6C4839",
"_  c #6D4939",
"`  c #6C4838",
"'  c #6E4939",
"]  c #6F4A3A",
"[  c #6D4939",
"{  c #714B3B",
"}  c #704B3A",
"|  c #714A39",
" . c #734C3B",
".. c #724C3B",
"X. c #754C3B",
"o. c #734C3C",
"O. c #744D3C",
"+. c #774F3D",
"@. c #764E3D",
"#. c #754E3D",
"$. c #734C3A",
"%. c #794F3D",
"&. c #784F3E",
"*. c #794F3D",
"=. c #6D533B",
"-. c #79503E",
";. c #78503E",
":. c #7B513F",
">. c #7C513F",
",. c #7D523F",
"<. c #7B513E",
"1. c #51672D",
"2. c #536C2F",
"3. c #51682E",
"4. c #566F30",
"5. c #597331",
"6. c #5B7832",
"7. c #4A5F48",
"8. c #7D5240",
"9. c #7E5340",
"0. c #7F5340",
"q. c #7F5441",
"w. c #7E5340",
"e. c #785B40",
"r. c #576E54",
"t. c #597156",
"y. c #5C7559",
"u. c #5F795C",
"i. c #617C5E",
"p. c #805441",
"a. c #815541",
"s. c #825541",
"d. c #815542",
"f. c #825542",
"g. c #835642",
"h. c #835643",
"j. c #845743",
"k. c #855743",
"l. c #845643",
"z. c #845743",
"x. c #816244",
"c. c #8C6949",
"v. c #97724E",
"b. c #9D7651",
"n. c #A57C55",
"m. c #648436",
"M. c #678937",
"N. c #678837",
"B. c #688937",
"V. c #6B8D39",
"C. c #6C8F39",
"Z. c #6A8D39",
"A. c #71973B",
"S. c #72973B",
"D. c #759D3D",
"F. c #AC8157",
"G. c #AE8258",
"H. c #B2855A",
"J. c #B6885C",
"K. c #B98A5D",
"L. c #80AC42",
"P. c #85B444",
"I. c #8BBD46",
"U. c #8FC248",
"Y. c #91C549",
"T. c #93C84A",
/* pixels */
"                                                                                                                                                    ",
"                                                                                                                                                    ",
"                                                                                          . X X X X X X X                                           ",
"                                                                    X X X X X X X X X X X X X X O O + O X X                                         ",
"                                                                  X X X X X O O + # # # = ; : : : : : ; X X X X   X X X X X X                       ",
"                                                      X X X X X X X X X X O + + + + + O O O X # 8 t t : O X X X X X X O X X X X                     ",
"                                                      X X = = = # @ + X X O O O O O O O + @ O X ; t t > @ X O O X X + a h s 8 X X                   ",
"                                                      X O W ' G ( L s X # s g g g g C C G G 8 X @ = # # O X O O X X O t t F s # X                   ",
"                                                      X O ..i f k.k.^ X = :.k.k.k.k.k.k.k.k.s X X X X X X X O = 8 O O t 6 F h : X X                 ",
"                                                      X + +.G 9.k.k.' X = :.k.k.k.k.k.k.k.k.g X = p d G ' >.a.k.k.; O y F F h 8 X X X               ",
"                                                      X @ } ' a.k.k.^ X = :.k.k.k.k.k.k.k.k.L X 8 9.k.k.k.k.k.k.k.8 X t F F p O + @ X               ",
"                                                      X + p # +.k.k.+.@ 8 9.k.k.k.k.k.k.k.k.' X 8 >.k.k.k.k.k.k.k.C = p F d # X p s X X             ",
"                                                      X + 8 X } k.k.k.+.>.k.k.k.k.k.k.k.k.k.a.7 a a.k.k.k.k.k.k.k.a.' F s @ X = ~ :.# X             ",
"                                                      X O p = :.k.k.k.k.k.k.k.k.k.k.k.k.k.k.k.k.k.k.k.k.k.k.k.k.k.k.%.d = X # s F :.6 X             ",
"                                                      X o 8 i ' a.k.k.k.k.k.k.k.k.k.k.k.k.k.k.k.k.k.k.a.:.} +.k.k.k.>.s = = s F F F = X             ",
"                                                      X X X O = 8 s } k.k.k.k.k.k.k.k.k.k.k.a.:.W g i 8 6 = 6 G k.k.9.F d d F F F i X X             ",
"                                                      X o 8 = X X X O = f :.k.k.k.k.:.L s 8 # O o X X X X X X 8 9.k.a.I F F F F F # X               ",
"                                                      X @ :.a.} p 6 # O X O p a.9.y O . X o + # = 6 t s L ^ X = } k.a.W F F F F u X X               ",
"                                                      X = %.k.k.k.9.' s 8 + o +.' # O 8 i s G ' %.a.k.k.k.a.= O I k.>.Y F F F F 8 X X X             ",
"                                                      X O = p +.k.k.k.k...; X :.' # + :.a.k.k.k.k.k.k.a.o.g # X g a.E F F F F F d t X X             ",
"                                                      X X X X X 8 } a.k.+.= O q...= X :.k.k.k.a.q.( i = X X X # ^ } F F F F F F F s X X             ",
"                                                        X O < - X O 8 g C @ O 8 8 @ X F ..L s 8 # X X $ - o O g X.F F F F F F F F d X X             ",
"                                                        X - Z.A.2.< o X # X X X X . X = = O X o - c 4.N.C.- O L } F F F F F F F F g o X             ",
"                                                        X O Z.T.Y.P.B.- X X X g g O . . o < 3.A.P.I.Y.T.D.- + +.a.p.} F F F F F F g O X             ",
"                                                        X X 1.U.T.T.P.- X X O 9.} = X X B I.T.T.T.T.T.Y.5.O ; a.k.k.%.F p F g t d g O X             ",
"                                                        X X - N.L.D.B X X X 8 k.+.6 X X * 6.I.T.T.T.Y.D.< X C k.k.k.} d ; h s # s a X X             ",
"                                                        X X X * w , o @ = X d k.9.8 X 6 O * B m.D.A.5.< o 8 a.k.k.k.W g s F d p h : X               ",
"                                                        X = y O X X 6 +.= + ' k.a.y X i g + X O O O o X 8 :.k.k.k.a.F F F F F F i X X               ",
"                                                      X X 8 >.a.+.:.k...X 6 %.k.k.s o 8 k.' y = = = 6 s 9.k.k.k.k.:.F s 6 @ i a @ X X               ",
"                                                    X X 6 ..k.k.k.k.k.g X 7 L ^ W i O = a.k.k.a.:.>.a.k.k.k.k.9.+.W g ; X X 8 = X X X               ",
"                                                    X X t k.k.k.k.k.k.+.O O # # # O X # %.k.k.k.k.k.k.k.k.a.} W F F h 8 X X + X X X X               ",
"                                                      X O W a.k.k.k.k.k.p X X o X + # t a.k.k.k.k.k.k.a.} F F F F F d # X X X X X X X               ",
"                                                      X X 6 d } >.a.k.k.a.:.:.q.a.a.a.k.k.k.k.k.a.9.X.W F F F F g d ; X 6 a s i ; O X X             ",
"                                                        X X = t d ' %.a.k.k.k.k.k.k.k.k.k.k.k.>.} W F F F d p t : # X = ' :.W F h t o X             ",
"                                                          X X X @ 8 g W %.a.k.k.k.k.k.k.k.>.~ F F h a 8 = @ O X X X o p a.k.>.W F h = X             ",
"                                                              X X X O 8 d h F I W W W W F g s t = O X X X X o $ o X @ ^ k.k.k.} F F t X .           ",
"                                                                  X X X O = t p a p i 8 = + X X o $ % $ o X o % o X = 9.k.k.k.} s t u X X           ",
"                                                                    X + # X X O + O X X X O % 2 x b m % X # O X X X y k.k.k.a.} 6 O 8 X X           ",
"                                                                    X 8 g p + X X X X $ b M M v v M % X # d s 6 o X W k.k.k.a.} 6 # 6 X X           ",
"                                                                  X X p F F = X X X X o j M x o X $ X @ p F F t X = a.k.k.k.a.} d d # X X           ",
"                                                                  X X ' ~ F t + = 6 8 O O 1 o o @ X O u F F d # O G k.k.k.k.a.W = p X X X X         ",
"                                                                  X @ a.a.%.F s d h F t o X X 8 s y i F F F 8 X 8 a.k.k.k.k.a.E p 6 X # X X         ",
"                                                                  X ; a.k.k.a.X...} } ' t X 8 E E E E E X.W X # W k.k.k.k.k.>.I F O O 8 O X         ",
"                                                                  X 8 a.k.k.k.k.k.k.k.k.9.' a.k.k.k.k.k.>.6 X y a.k.k.k.k.k.} F a X = a O X         ",
"                              X X X X                             X p k.k.k.k.k.k.k.k.k.k.k.k.k.k.k.k.a.s O # ..k.k.k.k.k.a.W F 8 X 6 h # X         ",
"                            X X O X X X X                       X X g k.k.k.k.k.k.k.k.k.k.k.k.k.k.k.k.} = X g I +.k.k.a.g i F g # X y F ; X         ",
"        X X X X X           X O v.n.Q # X .                     X O L k.k.k.k.k.k.k.k.k.k.k.k.k.k.k.k.g X 6 I X y a.k.' # X d a O O d F 8 X X       ",
"    X X O * * X X X X X X X X X Z b.c.q X X                     X @ ' k.k.k.k.k.k.k.k.k.k.k.k.k.k.+.g = X + # O g k.a.p X = F 8 X # F F i X X       ",
"    X = =.c.x.= o t 6 = @ X X X O 7 = o O X X                   X = } k.k.k.k.k.k.k.k.k.k.k.k.k.' 7 X X # O X O s a.} = X a d = X # F F s X X       ",
"  X o e.J.K.F.q O g # t 8 6 i # X X O t ' O X X X X             X 6 +.k.k.k.k.k.k.k.k.k.k.k.k.9.8 X = G :.W # X O 6 8 X = F s + X @ F F h o X       ",
"  X @ F.K.K.F.7 X = p g t ; i 7 X L 9.k.k.p @ @ O o X X X X X   X 6 ' +.+.%.%.:.:.:.:.:.:.:.:.' # O 9.k.k.k.9.p # X X X 8 d t X = p F F F + X       ",
"  X = J.K.K.n.# X o X X + s >.y O ^ k.k.k.9.( ' G s y 7 = + X X X X O + @ # # # = = = = ; ; 6 = X # a.k.k.k.k.a.' y = o X + O X ; 8 t t t + X       ",
"  X * H.K.K.c.X = p y t 6 g >.W s ..9.k.k.k.+.g L a.a.:.} g # X 9 5 5 4 4 4 3 * * * $ O O O o X X # a.k.k.k.k.k.k.a...g 6 X X X X X X X X X X X     ",
"  X X Z G.K.V X t F W 9.a.k.k.k.a.%.E W ~ +.' 6 X g k.k.k.G O 4 i.i.i.i.i.i.i.i.i.i.i.u.u.u.y.* o F k.k.k.k.k.k.k.k.k.k.g X O e r e e 0 0 0 4 o X   ",
"    X X 6 Z O + a F F X.p.k.k.k.k.k.k.p.X.E F F g E X.%.>.p X r r.r.t.t.t.t.t.t.t.y.y.y.y.y.r.X = +.k.k.k.k.k.k.k.k.k.a.F X * A 7.7.7.7.7.7.A * X   ",
"      X X X X + 8 u a d W } :.a.k.k.k.k.k.a.%.E F F F W } p X $ 3 4 4 4 5 5 5 9 9 0 0 0 0 e 0 X # I 9.k.k.k.k.k.k.k.k.%.d X O 0 r n n n n n n * X   ",
"          X X X X O + # = 8 i g ' X.X.X.} } } W F F F W } I 6 X X o O o o o o X X X X X X X X X o t W %.k.k.k.k.k.k.a.~ i X X X o o o o o o o X X   ",
"                X X X X X X X X X O # = ; 8 8 8 8 8 8 8 8 8 ; o X 1 M N N N M M M M M m z z b j o X p F } a.k.k.k.k.:.F ; X $ % % % $ $ $ X X X     ",
"                          X X X X X X X X X X X X X X X X X X X X o l N N M m v M N N N N N N M 2 o O i h W >.a.a.9.W p + X 2 k z z z k $ . .       ",
"                                                                X X $ m M j $ X 1 M N N N N N N M 2 X + t h I E E W d = X o $ & k z k & . .         ",
"                                                                  X X $ % o X X o j M N N N M b N M j o O : g F F h = X o X X o $ 2 2 o X           ",
"                                                                  X X X X = s t X O k M b j o o l N N l O X + t a = X o o X = = X X o X X           ",
"                                                                X X 8 6 i ..a.F 6 X $ k & o X X $ v N M 1 X . . X . O O X = ..' 8 O X X X           ",
"                                                                X # ' +.a.k.k.} s # X $ o X   X X $ v l O X . . . . $ X # ' k.>.W a 8 = X X         ",
"                                                              X X 8 q.k.k.+.W F F u O X X X     X X o o X .     X X X O g :.L a.k.a.h t o X         ",
"                                                              X O g g @ L %.F F F F 8 O X         X X X X       X X # p 9.7 + G k.a.p t O X         ",
"                                                              X @ g 6 X g %.F F F F F = X           X           X X g L ..y X s k.k.I d ; X X       ",
"                                                              X X # O X L } F F F F F + X                       X X s 6 7 I X 8 9.a.G t = X X       ",
"                                                                X X X X X = i h F F d X X                       X X t = X >.X @ ; O X X X X         ",
"                                                                    X X X X X O ; y t X X                       X X = = X @ X X X X X X X           ",
"                                                                            X X X X O X .                         X X X X X X X                     ",
"                                                                                  X X X                             X                               ",
"                                                                                                                                                    ",
"                                                                                                                                                    "
};
