/* XPM */
static char *a8rum_k0pog[] = {
/* columns rows colors chars-per-pixel */
"74 74 173 2 ",
"   c None",
".  c #1B1B17",
"X  c #1B1A18",
"o  c #191715",
"O  c #221D1A",
"+  c #2B1C1B",
"@  c #351C1D",
"#  c #3B1C1E",
"$  c #1D2317",
"%  c #1F2917",
"&  c #1E2318",
"*  c #212C17",
"=  c #21231C",
"-  c #212B18",
";  c #2A201B",
":  c #35241D",
">  c #39271E",
",  c #233417",
"<  c #263C16",
"1  c #243318",
"2  c #263A18",
"3  c #283D19",
"4  c #28361A",
"5  c #252522",
"6  c #2A2523",
"7  c #2C2A25",
"8  c #2B2D2B",
"9  c #272826",
"0  c #322D22",
"q  c #3B2A2A",
"w  c #322F2A",
"e  c #2F302E",
"r  c #33332E",
"t  c #333533",
"y  c #373836",
"u  c #3D3B34",
"i  c #3A3C3A",
"p  c #451D1F",
"a  c #541C21",
"s  c #5B1E24",
"d  c #621B23",
"f  c #6C1922",
"g  c #771924",
"h  c #781924",
"j  c #452C20",
"k  c #5B2829",
"l  c #433B2A",
"z  c #563223",
"x  c #413E36",
"c  c #443F38",
"v  c #7D222D",
"b  c #663A27",
"n  c #6D3C28",
"m  c #703E29",
"M  c #693F39",
"N  c #23490C",
"B  c #29550E",
"V  c #274215",
"C  c #294417",
"Z  c #2A4B16",
"A  c #2B4319",
"S  c #2D4C19",
"D  c #304B1B",
"F  c #2D5315",
"G  c #2E5C12",
"H  c #2F5119",
"J  c #315B17",
"K  c #32551A",
"L  c #335B19",
"P  c #355B1A",
"I  c #2F6211",
"U  c #316413",
"Y  c #356D14",
"T  c #356319",
"R  c #3A661B",
"E  c #376819",
"W  c #396C19",
"Q  c #367113",
"!  c #397416",
"~  c #3C7C16",
"^  c #3C7319",
"/  c #3E7B1A",
"(  c #44761F",
")  c #417E1B",
"_  c #44423A",
"`  c #48463C",
"'  c #7D432C",
"]  c #5A554B",
"[  c #664645",
"{  c #724A46",
"}  c #72584D",
"|  c #696356",
" . c #766C5E",
".. c #7C7767",
"X. c #841E2A",
"o. c #8D1B29",
"O. c #931D2B",
"+. c #80232D",
"@. c #98202E",
"#. c #9E2734",
"$. c #882B35",
"%. c #A82131",
"&. c #84462D",
"*. c #A64C56",
"=. c #816A5D",
"-. c #94676C",
";. c #887868",
":. c #B96871",
">. c #3E8216",
",. c #3F8018",
"<. c #408617",
"1. c #418917",
"2. c #41841A",
"3. c #49821F",
"4. c #448A1A",
"5. c #438D18",
"6. c #448F18",
"7. c #458E1A",
"8. c #448C19",
"9. c #4B8C1F",
"0. c #469119",
"q. c #479419",
"w. c #47951A",
"e. c #469319",
"r. c #48971A",
"t. c #48951A",
"y. c #48971A",
"u. c #49981A",
"i. c #49991A",
"p. c #48981A",
"a. c #4A9A1A",
"s. c #49991A",
"d. c #529D1F",
"f. c #4EA01C",
"g. c #50A31C",
"h. c #55AA1E",
"j. c #58AD1F",
"k. c #559B21",
"l. c #59A422",
"z. c #5CB421",
"x. c #62BC23",
"c. c #65C124",
"v. c #66C224",
"b. c #BA9E5E",
"n. c #8C8674",
"m. c #998F7C",
"M. c #938E7A",
"N. c #9A927F",
"B. c #AD917F",
"V. c #A58877",
"C. c #D5B46A",
"Z. c #FDD67C",
"A. c #AA9784",
"S. c #A29984",
"D. c #ABA48D",
"F. c #B4AF96",
"G. c #B1A590",
"H. c #B5B197",
"J. c #B7B298",
"K. c #BBB69C",
"L. c #CE8A92",
"P. c #C6BCA2",
"I. c #CDC3A8",
"U. c #D3CAAE",
"Y. c #DEC8AE",
"T. c #DACCB1",
"R. c #DAD3B5",
"E. c #E5D4B7",
"W. c #E4D6B9",
"Q. c #E5DABC",
"!. c #CDC2C0",
"~. c #F2E3C4",
"^. c #FEEECE",
/* pixels */
"                                                                        X X X X X                                                                   ",
"                                                            X X X X X X X X X X X X X X X X X                                                       ",
"                                                        X X X X X X X - , < < < , * & X X X X X X X                                                 ",
"                                                    X X X X - C J ! >.>.>.>.>.>.>.>.>.~ E H 2 & X X X X                                             ",
"                                                X X X & < ! >.>.>.>.>.>.>.>.<.6.q.i.i.i.i.i.i.q.W 2 & X X X                                         ",
"                                              X X X < >.>.>.>.>.>.>.>.>.6.i.i.i.i.i.i.i.i.i.i.i.i.i.r.D X X X X                                     ",
"                                            X X $ Y >.>.>.>.>.>.>.>.5.i.i.i.i.i.i.i.i.i.i.i.i.i.i.i.i.i.d.A X X X                                   ",
"                                          X X * ~ >.>.>.~ Q ~ >.>.0.i.i.i.i.i.i.i.i.i.i.i.i.i.i.r.5.i.i.i.j.3.& X X                                 ",
"                                        X X , >.>.>.>.>.~ Y ! >.0.i.i.i.i.i.i.i.0.0.i.i.i.i.i.i.i.i.i.i.i.i.z.k.- X X                               ",
"                                      X X * ~ >.>.>.>.>.>.~ >.5.i.i.i.i.i.i.i.r.>.>.i.i.i.i.i.i.i.i.i.i.i.i.i.x.l.- X X                             ",
"                                    X X X ! ~ ~ >.>.>.>.>.>.<.i.i.i.i.i.i.i.i.i.6.0.i.i.i.i.i.i.i.i.i.i.i.i.i.a.x.k.X X X                           ",
"                                    X X J >.>.>.>.>.>.>.>.>.0.i.i.i.i.i.i.i.i.i.i.i.i.i.i.i.i.i.i.i.i.>.q.i.i.i.h.v.3.X X                           ",
"                                  X X * ~ >.>.>.>.>.>.>.>.<.i.i.i.i.i.i.i.i.i.i.i.i.i.i.i.i.i.i.i.i.i.q.i.i.i.i.i.z.x.- X X                         ",
"                                  X X Y >.>.>.>.>.>.>.>.>.0.i.i.i.i.i.i.i.i.i.i.i.i.i.i.i.i.i.i.i.i.i.i.i.i.i.i.i.g.v.k.X X                         ",
"                                X X & >.>.>.>.>.>.>.>.>.>.q.q.r.i.i.i.i.i.i.i.i.i.i.i.i.i.i.i.0.i.i.i.i.i.i.i.i.i.i.x.v.1 X X                       ",
"                                X X T >.>.>.>.>.>.>.>.>.>.<.>.>.i.i.i.i.i.i.i.i.i.i.i.i.i.i.i.i.i.i.i.i.i.i.i.i.i.i.g.v.P X X                       ",
"                                X & >.>.>.>.>.>.>.>.>.>.1.>.>.>.q.i.i.i.i.i.i.i.i.i.i.i.i.i.i.i.i.i.i.i.i.i.i.i.i.i.a.v.k.X X                       ",
"                              X X , >.>.>.>.>.>.>.>.>.>.0.q.5.0.i.i.i.i.i.i.i.i.i.i.i.i.i.i.i.i.i.i.i.i.i.i.i.i.i.i.i.x.x.& X                       ",
"                              X X J >.>.>.>.>.>.>.>.>.>.r.i.i.i.i.i.i.i.6.i.i.i.i.i.i.i.i.i.i.1.>.r.i.i.i.i.i.i.i.i.i.h.v.4 X                       ",
"                              X X ~ >.>.>.>.~ ~ >.>.>.>.i.i.i.i.i.i.i.i.q.i.i.i.0.1.r.i.i.i.i.5.<.r.i.i.i.i.i.i.i.i.i.a.v.D X X                     ",
"                              X & >.>.>.>.~ Y Q >.>.>.>.i.i.i.i.i.i.i.i.i.i.i.i.1.>.6.i.i.i.i.i.i.i.i.i.i.i.i.i.i.i.i.i.v.K X X                     ",
"                            X X 1 >.>.>.>.>.~ >.>.>.>.>.r.i.i.i.i.i.i.i.i.i.i.i.i.r.i.i.i.i.i.i.i.i.i.i.i.i.i.i.i.i.i.i.v.P X X                     ",
"                        X   X X < >.>.>.>.>.>.>.>.>.>.>.q.i.i.i.i.i.i.i.i.i.i.i.i.i.i.i.i.i.i.i.i.i.i.i.i.i.i.i.i.i.i.i.v.K X X                     ",
"                      X X X X X C >.>.>.>.>.>.>.>.>.>.>.0.i.i.i.i.i.i.i.i.i.i.i.i.i.i.i.i.i.i.i.i.i.i.i.i.i.i.i.i.i.i.i.v.K X X                     ",
"                      X X & X X Z >.>.>.>.>.>.>.>.>.>.>.5.i.i.i.i.i.i.i.i.i.i.i.i.i.i.i.6.2.6.0.6.2.4.i.i.i.i.i.i.i.i.i.v.A X X                     ",
"                      X & >.1 X & ! >.>.>.>.>.>.>.~ >.>.<.i.i.i.i.i.i.i.i.i.i.i.i.i.i.i.i.4.T K T 2.i.i.r.i.i.6.q.i.i.f.v.4 X                       ",
"                      X - >.>.J X & ~ >.>.>.>.>.~ Y Q >.>.i.^ H 2.i.i.i.i.i.i.i.i.r.L S ^ 6.i.i.r.4.W S T i.6.>.1.i.i.h.v.& X                       ",
"                      X - T - Y Y - & ! >.>.>.>.>.~ ~ >.>.C X X X 1 ^ i.i.i.i.i.i.i.i.6./ E L K L W 2.0.i.i.i.0.q.i.i.z.l.X X                       ",
"                    X X 2 < X & J ~ < - ~ >.>.>.>.>.>.>.! X 5 t 9 X X 3 2.i.i.i.i.i.i.i.i.i.E i.i.i.i.i.i.i.i.i.i.i.i.x.( X X                       ",
"                    X X C - - , X J >.V S >.>.>.>.>.>.>.< X t i i y 5 X X K 6.i.i.i.i.i.i.i.3 i.0.4.i.i.i.i.i.i.i.i.i.v.A X X                       ",
"                    X X C - * Y V X T >.2 ~ >.>.>.>.>.~ X X y t t i i t = X X ^ r.i.i.i.q.W S i.2.L i.i.i.i.i.i.6.^ C R = X                         ",
"                    X X < C . Y F X X ! ! T >.~ >.>.>.~ X X 8 8 8 8 t i i e X X 1 4.i.i.0.H 0.i.6.- r.i.i.i.6.2 X X X X X X                         ",
"                      X - ! X G V $ , < >.~ >.>.>.>.>.! X = 8 8 = O 5 8 t y y 5 X & S 3 - 1 W i.^ 3 2.r.T 1 X X = r y X X X                         ",
"                      X X >.1 , Z % Y & ~ >.>.>.>.>.>.~ X X 5 X X X X X 5 9 t y t = X X = X K ^ X X & = X X 9 t y t y = X                           ",
"                      X X Z ! & Z C Y - Y >.>.>.~ >.>.>.V X X 9 m.P...x X X X 9 e y r t e X W K X e X = 9 y t e 8 8 8 X X                           ",
"                        X X ! J $ Y Y C T >.>.>.>.>.>.>.>.1 X | ^.E.T.T.G.c = X X 5 8 t X X 2.K X t y t 8 9 5 X X X 8 X X                           ",
"                        . X < >.Z X Z Y J >.>.>.>.>.>.>.0.i.- u ^.^.^.Q.T.;.A.| X X X X X S i.W X = = X X X X X X X 5 X X                           ",
"                          X X J >.~ , Y T >.>.>.>.>.>.>.i.i.S X D.^.^.^.^.V.p !.A.N.w X S 0.i.0.- X X X c  .} { n.X X X                             ",
"                            X & E >.T Y ~ >.>.>.>.>.>.>.i.i.4.& 7 T.^.^.^.E.M B.W.S.O & q.i.i.2.) X ..I.T.T.k { ] X X X                             ",
"                              X & ! ~ ~ >.>.~ >.>.>.>.<.i.i.i.^ X O N.W.^.^.^.~.S.5 & 2.i.i.i./ ^ X x ~.^.^.Y.=.X X X X                             ",
"                                X X T ! ! F ~ >.>.>.>.1.i.i.i.i./ = X X x | ] O X = / i.i.i.i.r.1 < X m.^.^.T.7 & 1 X X                             ",
"                                  . X X X , >.>.>.>.>.<.i.i.i.i.i.i.W - X X X X 3 q.i.i.i.i.i.i./ H - X O 5 X X ) K X X                             ",
"                                        X X , >.>.>.>.>.i.i.q.2.5.2.^ L 2 & S 2.r.i.i.i.E 2.i.i.q.& 2.C X X X H ^ - X                               ",
"                                          X X * ! >.>.>.q.i.i.2.^ W W ^ 2.0.i.i.i.i.i.i.r.1 H 0.i.1 ^ i.q.2.^ / k.X X                               ",
"                                            X X & T >.>.<.i.i.i.r.i.i.i.i.i.i.i.i.i./ K W 6.A & S & W 2.C S 5.z.3.X X                               ",
"                                              X X X < ! >.6.i.5.>.0.i.i.i.i.i.i.i.5.X 0 X ^ i./ S A 6.1 7 0 & x.A X X                               ",
"                                                X X X X S >.1.5.>.0.i.i.i.i.i.i.i.T 7 Z.l 2 i.i.i.i.5.X b.C.X K X X                                 ",
"                                                  X X X X & V ~ 1.i.i.i.i.i.i.i.i.K X 0 = & ^ W T L H X O = X X X X                                 ",
"                                                  X - < X X X X , K >.0.i.i.i.i.i./ L H S S H K L T W ( 3 X X X X                                   ",
"                                                  X X X $ $ $ X X X X , H W 2.q.i.i.i.i.i.i.i.i.a.9.R - X X X                                       ",
"                                                X X & - & X V F * $ X X X X X & 1 S L T E T S 4 X X X X X X                                         ",
"                                              . X < >.>.r.& X I U U G < & X X X X X X X X X X X X X X X                                             ",
"                                              X $ ~ >.q.i.S X F U U U 6.r.6.! H V , % $ - 1 A A X 2.- X                                             ",
"                                            X X ! >.5.i.i.S X F U U G q.i.i.i.i.r.q.0.q.i.i.i.2.X W W X X                                           ",
"                                          X X * ~ >.r.i.i.1 X G U I B i.i.1.r.i.i.i.i.i.i.i.i.4.X 1 & X X X                                         ",
"                                          X O o $ Y 0.i.r.= $ U I N Q i.i.i.i.i.i.i.i.i.i.r.6.r.X X O n : X                                         ",
"                                        X O &.: o X X H / X , U U N ~ i.i.i.i.r.0.2.6.r.i.6.Y i.- X m &.X X X                                       ",
"                                        X X j n z > O X X X Z U U U >.i.i.i.E = X X X & A 0.) S X X : ; X X X                                       ",
"                                        X X X O b ' b z : X % , < V J ^ ^ L X ` n.J.K.N.6 & X X 6 X X X T 2.X X                                     ",
"                                      X & ! H & X + j b O X O X X X X X X X _ F.H.Q.R.P.I.5 p $.L.6 X 2 2.S X X                                     ",
"                                      X < >.>.>.S - X X X X g h X.X.d d d X ...._ U.;._ R.u k :.-.O X X X X X X                                     ",
"                                      X < >.>.>.>.>.! J , X f g O.%.o.O.%.# r N.` H.U.D.U.5 6 X X X K T 3 L X X                                     ",
"                                      X X ! >.>.>.6.r.S X X X O O + + @ # @ X r M.J.J.F.6 X X & L X T i./ & X                                       ",
"                                        X , ~ >.J 2.L 2.X * < , % $ X X X X X X x | ] ` X C ^ T 1 X - - X X                                         ",
"                                        X X * Y C / K - X < G U U U 5.6.6.2.,.1 X O O q X 2 - X X X X X X                                           ",
"                                          X X X , = K X X X X & * , H L L L K - X d # *.X X - X X                                                   ",
"                                              X X X X X . X & X X X X X X X X X X a s #.O 1 i.1 X                                                   ",
"                                                          X F I U 0.6.6.6.= X X X # @.v q X 4.- X                                                   ",
"                                                          X Z U U i.i.i.i.2 X X X X @.+.[ X / X X                                                   ",
"                                                          X < U U 1.i.i.i.W X X X X a s = X / X X                                                   ",
"                                                          X , U U Q i.q.2.L X X X X X X & E 2.X X                                                   ",
"                                                          X $ G G Z A X X X X X X X X X X X & X X                                                   ",
"                                                          X X X X X X X X             X X X X X X                                                   ",
"                                                            X X                                                                                     "
};
