/* XPM */
static char *aodo7_t4b9k[] = {
/* columns rows colors chars-per-pixel */
"74 74 179 2 ",
"   c None",
".  c #171614",
"X  c #1B1A17",
"o  c #1B1A18",
"O  c #211D1B",
"+  c #281B1A",
"@  c #3E1C1E",
"#  c #361B1D",
"$  c #1E2417",
"%  c #1E2318",
"&  c #1F2818",
"*  c #1F2817",
"=  c #202C16",
"-  c #21221D",
";  c #212B18",
":  c #35251D",
">  c #38261E",
",  c #233417",
"<  c #263C16",
"1  c #243318",
"2  c #263A18",
"3  c #293F19",
"4  c #252422",
"5  c #292623",
"6  c #272826",
"7  c #282926",
"8  c #2B2D2B",
"9  c #322D2A",
"0  c #322D22",
"q  c #2F312F",
"w  c #32312D",
"e  c #373124",
"r  c #333432",
"t  c #3B3631",
"y  c #363836",
"u  c #3D3A34",
"i  c #3A3C3A",
"p  c #421C1F",
"a  c #401615",
"s  c #4E1D21",
"d  c #5A1B22",
"f  c #621E25",
"g  c #7B1B25",
"h  c #4A2D20",
"j  c #552927",
"k  c #453D2B",
"l  c #5B3625",
"z  c #453836",
"x  c #72272F",
"c  c #623826",
"v  c #743E29",
"b  c #7F2933",
"n  c #23470E",
"m  c #29560F",
"M  c #274215",
"N  c #294417",
"B  c #2B4C16",
"V  c #2A4319",
"C  c #2D4C19",
"Z  c #304A1B",
"A  c #2E5416",
"S  c #2E5D12",
"D  c #2F5119",
"F  c #315C16",
"G  c #32551A",
"H  c #335B19",
"J  c #3A5F1D",
"K  c #305717",
"L  c #2F6111",
"P  c #326315",
"I  c #356C15",
"U  c #366319",
"Y  c #376919",
"T  c #396D19",
"R  c #3A601D",
"E  c #377314",
"W  c #397416",
"Q  c #3C7C16",
"!  c #3B7419",
"~  c #3E7B1A",
"^  c #417E1B",
"/  c #44781E",
"(  c #45433A",
")  c #504630",
"_  c #75402A",
"`  c #6B5D3B",
"'  c #6B3C41",
"]  c #5B4A41",
"[  c #545046",
"{  c #5B554B",
"}  c #6C4A4C",
"|  c #754D45",
" . c #625C50",
".. c #715C51",
"X. c #6E675B",
"o. c #6D6B5C",
"O. c #696154",
"+. c #7D7767",
"@. c #7D7A69",
"#. c #861E2A",
"$. c #84222D",
"%. c #95202E",
"&. c #8C2D38",
"*. c #88343D",
"=. c #92323D",
"-. c #A52130",
";. c #88492E",
":. c #80655C",
">. c #827D6C",
",. c #997C6D",
"<. c #937A71",
"1. c #A9747A",
"2. c #C46A74",
"3. c #3E8216",
"4. c #408617",
"5. c #418A17",
"6. c #42841A",
"7. c #448E18",
"8. c #448C19",
"9. c #488C1C",
"0. c #49821F",
"q. c #459019",
"w. c #46921A",
"e. c #479419",
"r. c #479619",
"t. c #46931A",
"y. c #48961A",
"u. c #48951A",
"i. c #48961A",
"p. c #49981A",
"a. c #49991A",
"s. c #48981A",
"d. c #4B9B1B",
"f. c #49991A",
"g. c #53A51E",
"h. c #55A91E",
"j. c #58AE1F",
"k. c #569F22",
"l. c #539721",
"z. c #57A022",
"x. c #5BAA22",
"c. c #5DB321",
"v. c #61B523",
"b. c #62BE23",
"n. c #63BB24",
"m. c #66C224",
"M. c #65C024",
"N. c #98814F",
"B. c #9D8552",
"V. c #85816E",
"C. c #8B8573",
"Z. c #948F7B",
"A. c #978575",
"S. c #95907C",
"D. c #DAB86C",
"F. c #A79D88",
"G. c #A89D89",
"H. c #B39B87",
"J. c #AA9796",
"K. c #A9A38C",
"L. c #BCA18C",
"P. c #AEAA91",
"I. c #B3A892",
"U. c #BAB59B",
"Y. c #B7B298",
"T. c #C3B49C",
"R. c #C4BBA1",
"E. c #CEBAA2",
"W. c #CBC2A7",
"Q. c #CFC5AB",
"!. c #D3C4AA",
"~. c #D7CAAF",
"^. c #DACCB1",
"/. c #DFD9B9",
"(. c #E4DDBD",
"). c #E7D8BB",
"_. c #EFE0C2",
"`. c #F2E4C5",
"'. c #FDEDCE",
/* pixels */
"                                                                      o o o o o o o o o                                                             ",
"                                                            X o o o o o o o o o o o o o o o o o X                                                   ",
"                                                      o o o o o o o o $ < B A A A B < & o o o o o o o                                               ",
"                                                  o o o o o * B I W Q 3.3.3.4.5.q.r.r.r.q.8.~ H ; o o o o                                           ",
"                                                o o o % B I 3.3.3.3.3.4.7.r.a.a.a.a.a.a.a.a.a.a.a.9.H % o o o                                       ",
"                                            o o o % B Q 3.3.3.3.3.3.q.a.a.a.a.a.a.a.a.a.a.a.y.a.a.a.g.x.G o o o                                     ",
"                                          o o o , 3.3.3.3.3.3.3.5.a.a.a.a.a.a.a.a.a.a.a.a.a.8.r.a.a.a.d.b.z.; o o                                   ",
"                                        o o o A 3.3.3.3.3.3.3.7.a.a.a.a.a.a.a.a.a.a.a.a.a.a.a.a.a.a.a.a.d.b.v.3 o o                                 ",
"                                      o o o F 3.3.3.Q Q 3.3.5.a.a.a.a.a.a.r.5.q.a.a.a.a.a.a.a.a.a.a.a.a.a.d.b.v.Z o o                               ",
"                                    o o o F 3.3.3.3.E I Q 4.a.a.a.a.a.a.a.q.3.4.a.a.a.a.a.a.a.a.a.q.y.a.a.a.d.b.v.1 o o                             ",
"                                    o o N 3.3.3.3.3.Q Q 3.r.a.a.a.a.a.a.a.a.q.a.a.a.a.a.a.a.a.a.a.5.q.a.a.a.a.g.m.c.% o o                           ",
"                                  o o = 3.3.3.3.3.3.3.3.4.a.a.a.a.a.a.a.a.a.a.a.a.a.a.a.a.a.a.a.a.a.a.a.a.a.a.a.c.m.R o o                           ",
"                                  o o I Q Q 3.3.3.3.3.3.q.a.a.a.a.a.a.a.a.a.a.a.a.a.a.a.a.a.a.a.a.a.a.a.a.a.a.a.d.m.n.; o o                         ",
"                                o o M 3.3.3.3.3.3.3.3.3.a.a.a.a.a.a.a.a.a.a.a.a.a.a.a.a.a.r.7.a.a.a.a.a.a.a.a.a.a.h.m.J o o                         ",
"                                o o I 3.3.3.3.3.3.3.3.5.a.a.a.a.a.a.a.a.a.a.a.a.a.a.a.a.a.a.y.a.a.a.a.a.a.a.a.a.a.a.b.k.o o                         ",
"                              o o , 3.3.3.3.3.3.3.3.3.8.a.y.a.a.a.a.a.a.a.a.a.a.a.a.a.a.a.a.a.a.a.a.a.a.a.a.a.a.a.a.c.m.1 o                         ",
"                              o o P 3.3.3.3.3.3.3.3.3.7.3.3.5.a.a.a.a.a.a.a.a.a.a.a.a.a.a.a.a.a.a.a.a.a.a.a.a.a.a.a.d.m.J o o                       ",
"                              o o W 3.3.3.3.3.3.3.3.3.5.3.3.3.a.a.a.a.a.a.a.a.a.a.a.a.a.a.a.4.3.r.a.a.a.a.a.a.a.a.a.a.b.0.o o                       ",
"                              o % 3.3.3.3.3.3.3.3.3.3.q.8.5.q.a.a.a.a.r.a.a.a.a.a.a.a.a.a.a.7.5.a.a.a.a.a.a.a.a.a.a.a.c.l.o o                       ",
"                            o o M 3.3.3.3.3.3.3.3.3.3.r.a.a.a.a.a.a.a.8.y.a.a.q.3.7.a.a.a.a.a.a.a.a.a.a.a.a.a.a.a.a.a.c.x.o o                       ",
"                            o o F 3.3.3.3.3.3.3.3.3.3.r.a.a.a.a.a.a.a.a.a.a.a.7.3.7.a.a.a.a.a.a.a.a.a.a.a.a.a.a.a.a.a.j.v.o o                       ",
"                            o o W 3.3.3.3.Q Q 3.3.3.3.q.a.a.a.a.a.a.a.a.a.a.a.a.y.a.a.a.a.a.a.a.a.a.a.a.a.a.a.a.a.a.a.h.v.o o                       ",
"                            o o Q 3.3.3.3.E I 3.3.3.3.7.a.a.a.a.a.a.a.a.a.a.a.a.a.a.a.a.a.a.a.a.a.a.a.a.a.a.a.a.a.a.a.h.n.o o                       ",
"                            o o Q 3.3.3.3.W Q 3.3.3.3.5.a.a.a.a.a.a.a.a.a.a.a.a.a.a.a.a.q.q.q.7.~ ! 6.a.a.a.y.8.q.a.a.h.n.o o                       ",
"                            o o Q 3.3.3.3.3.3.3.3.3.3.3.a.a.a.a.a.a.a.a.a.a.a.a.a.a.a.a.6.U G U 6.a.y.8.! y.7.3.4.a.a.h.v.o o                       ",
"                            o o Q 3.3.3.3.3.3.3.3.3.3.3.r.a.a.a.a.a.a.a.a.a.a.a.a.y.a.a.a.a.a.y.~ C ; T a.a.a.r.a.a.a.h.x.o o                       ",
"                      o o o o o Q 3.3.3.3.3.3.3.3.3.3.3.7.a.a.a.a.a.a.a.a.a.a.a.a.y.8.! H C D G T 6.y.a.a.a.a.a.a.a.a.h.k.o o                       ",
"                      o o o o o Q 3.3.3.3.3.3.3.3.W Q 3.5.a.^ H Y 7.a.a.a.a.a.a.a.a.a.a.a.a.! y.a.a.a.a.a.a.a.a.a.a.y.9./ o o                       ",
"                      o o N % o , W 3.3.3.3.3.3.Q I E 3.3.^ o o o o V ! q.a.a.a.a.a.a.a.a.a.H ~ a.C y.a.a.a.a.a.q.U % o o o o                       ",
"                      o $ 3.Q < o o P 3.3.3.3.3.3.Q 3.3.3.$ o r 8 O o o % U q.a.a.a.a.a.a.a.V ^ a.1 ~ a.a.a.y.! % o o 4 o o o                       ",
"                      o ; Q B Q Q ; o B 3.3.3.3.3.3.3.3.W o 4 i i i i 6 o o % V 7.a.a.a.a.D V a.a.~ 1 y.a.8.1 o o 8 i i 4 o o                       ",
"                      o & F o % A Q P $ B 3.3.3.3.3.3.3.U o w y r y i i i q - o o 2 ! a.! V C ~ a.C 1 D C o o 4 y y q q 6 o                         ",
"                      o % F o < o 2 W W , I 3.3.Q 3.3.3.P o 8 8 8 8 8 q r y i r 4 o o ; o o o D T o o o o 4 r y q 8 6 8 4 o                         ",
"                      o o P o I S $ $ W Q < 3.Q W 3.3.3.U o 6 8 8 - o - 4 8 8 r i y 4 o 4 8 o G U o r 4 8 y 8 6 o o o 6 - o                         ",
"                      o o I o B I , o $ 3.Q W 3.3.3.3.3.I o - 6 o o O o o o o - 8 8 r i i 8 o Y ^ o 4 q 8 - o o o 5 o o o o                         ",
"                      o o P < * I = , , 1 3.3.3.3.3.3.3.Q $ o o O F.!.T.F. .- o o o o 4 6 o o q.y.% o o o o 5 ] :.A.9 o o o                         ",
"                      o o < I o N < , P o Q 3.3.3.Q 3.3.3.W $ o z '.`.).^.^.T...+.t O o o o H a.a.! % O X.F.!.H.j ,.- o o o                         ",
"                        o o U P o A B I < I 3.3.3.Q 3.3.3.3.q.2 o Q.'.'.'.`.!.a J.<.W.C.o 3 a.a.y.7.C o K.).`.'.L.O.o o o o                         ",
"                        o o ; Q A o F I I N 3.3.3.3.3.3.3.4.a.~ o ( '.'.'.'.'.| j E.~.t o ~ a.a.a.H Y o w _.'.'.R.o $ V o o                         ",
"                          o o 1 3.A o = I < Q 3.3.3.3.3.3.5.a.a.D o t `.'.'.'.'.'.'.[ o C a.a.a.a.a.2 D o 4 >.{ o o 9.G o o                         ",
"                            o o M 3.Q I A P Q 3.3.3.3.3.3.7.a.a.r.D o 5 [ A.I.G.X.9 o 3 y.a.a.a.a.a.~ 1 U o o o o V C 1 o o                         ",
"                              o o N 3.3.A W 3.3.3.3.3.3.3.7.a.a.a.y.T 2 o o o o o o D a.a.a.^ 8.a.a.a.C Y 7.~ ! T ~ c.V o o                         ",
"                                o o < Q 3.3.3.I 3.3.3.3.3.5.a.a.a.a.a.a.7.T C 1 1 ! a.a.a.a.q.2 H 6.y.! ; a.6.U ! d.m.; o                           ",
"                                  o o o B F < B 3.3.3.3.3.3.a.a.a.r.7.~ G ; 1 ~ a.a.a.a.a.r.q.q.V o o o ; y.; - o 0.z.o o                           ",
"                                        o o o o B 3.3.3.3.3.r.a.a.q.8.8.7.q.a.a.a.a.a.a.7.; % 3 a.q.^ ! 7.! o D.` ; ; o o                           ",
"                                            o o o 1 I 3.3.3.4.a.a.a.a.a.a.a.a.a.a.a.a.a.V e N.o ~ a.a.a.a.H o k 0 o o o                             ",
"                                              o o o o N W 3.3.8.a.a.3.3.y.a.a.a.a.a.a.a.; ) B.- 2 ~ U D V ; 1 ; o o o                               ",
"                                                  o o o o < I Q 4.q.3.4.y.a.a.a.a.a.a.a.1 o % $ ; 1 C Y 8.g./ % o o X                               ",
"                                                      o o o o o N Q 3.7.a.a.a.a.a.a.a.a.q.q.a.a.a.a.a.g./ o o o o                                   ",
"                                                      o o o o o o o $ ; N P Q 8.q.y.a.a.a.a.a.a.8.U 2 ; o o o o                                     ",
"                                                      o o o ; o o o o o o o o o $ ; 1 1 1 1 ; % o o o o o o                                         ",
"                                                      o o P 7.8.1 o < , = $ o o o o o o o o o o o ; o o o                                           ",
"                                                      o < 3.q.a.! o = P P I y.6.! B M M < = N F q.a.V o o                                           ",
"                                                      o F 3.r.a.a.; o S P E a.a.a.a.y.y.r.q.y.a.a.a.J o o X                                         ",
"                                                    o o U 3.r.a.a.U o A m I a.a.Q y.a.a.a.a.a.a.a.a./ o o o                                         ",
"                                                    o o W 3.r.a.a.! o , m 3.a.a.q.a.a.a.a.a.a.a.a.r.9.o o o                                         ",
"                                                    o o A F H D 1 o o o n 5.a.a.a.a.a.q.8.q.a.a.5.E y.$ o o                                         ",
"                                                    o o . . X o O O > o B 7.a.a.a.~ 1 o o o 1 6.a.q.! % o o                                         ",
"                                                    o O v : v _ l ;.l o % 8.a.a.H o 6 o.K.Z.u o ; % o o o o                                         ",
"                                                    o o h c > c : : o o o o $ ; o [ P.U.(.(./.V.o @ x 1.o o                                         ",
"                                                    o o o o o o o ; 2 K ; O p @ o S.V.>.(.o.+.Q.o $.2.1.o o                                         ",
"                                                    o o 1 F P I Q 3.8.H $ o #.-.O >.O.( W.C.V.R.o } z o o o                                         ",
"                                                    o o < 3.3.3.3.8.~ y.! o s %.# 4 Z.Y.Y.U.K.4 o o o % o o                                         ",
"                                                    o o $ 3.3.3.3.W q.U ; o o o o o o @.K.Z.o.o 1 Y ! V o o                                         ",
"                                                    o o o , W 3.3.W 3 U V o G U F H o o o o o o H V % o o                                           ",
"                                                        o o o , B A N o o ; 6.6.6.~ ; o d d ' o o o 1 o o                                           ",
"                                                            o o o o o o o o o o o o o o g p *.o 1 q.a.2 o                                           ",
"                                                          o o B S S 6.! U G V o X     o d f =.o o y.a.U o                                           ",
"                                                          o o S P I a.a.a.a.< o       o + %.&.z o 7.a.~ o o                                         ",
"                                                          o = P P E a.a.a.6.o o       o o #.b 9 o 7.a.y.V o                                         ",
"                                                          o , A L Q a.a.a.U o         o o o o o 3 8.~ C o o o                                       ",
"                                                          o o o o V 6.y.y.H o           o o o $ o o o o o                                           ",
"                                                              o o o o o $ % o           o o o o o o                                                 ",
"                                                                      o o o o                                                                       "
};
