/* XPM */
static char *agewb_zj3wt[] = {
/* columns rows colors chars-per-pixel */
"74 74 179 2 ",
"   c None",
".  c #1B1A17",
"X  c #1B1A18",
"o  c #181614",
"O  c #221C1A",
"+  c #391818",
"@  c #1E2417",
"#  c #1E2318",
"$  c #212D16",
"%  c #21231C",
"&  c #2B211B",
"*  c #222C18",
"=  c #34241D",
"-  c #3B281F",
";  c #233317",
":  c #263B16",
">  c #283F17",
",  c #243318",
"<  c #273A18",
"1  c #293D1A",
"2  c #252422",
"3  c #2A2724",
"4  c #272826",
"5  c #2A2925",
"6  c #2B2D2B",
"7  c #3B2E2E",
"8  c #2F302E",
"9  c #34322F",
"0  c #3A3326",
"q  c #333432",
"w  c #3B3631",
"e  c #363836",
"r  c #3B3A35",
"t  c #3A3C3A",
"y  c #431C1F",
"u  c #4B1C21",
"i  c #461C20",
"p  c #5C1B22",
"a  c #631E25",
"s  c #7D1B26",
"d  c #462B20",
"f  c #572B29",
"g  c #413A29",
"h  c #5A3525",
"j  c #453D38",
"k  c #772831",
"l  c #7F2A33",
"z  c #693A3F",
"x  c #24480E",
"c  c #29550F",
"v  c #274116",
"b  c #294417",
"n  c #2B4B16",
"m  c #2A4419",
"M  c #2E4C19",
"N  c #324E1C",
"B  c #2C5215",
"V  c #2F5D13",
"C  c #2F5119",
"Z  c #305717",
"A  c #315C17",
"S  c #31551A",
"D  c #335C19",
"F  c #336415",
"G  c #356C14",
"H  c #356219",
"J  c #376819",
"K  c #396C19",
"L  c #386F16",
"P  c #367314",
"I  c #397416",
"U  c #3C7C16",
"Y  c #3B7319",
"T  c #3E7B1A",
"R  c #42741E",
"E  c #447E1D",
"W  c #504630",
"Q  c #774029",
"!  c #7B432B",
"~  c #645738",
"^  c #4D4B40",
"/  c #534E45",
"(  c #5D4B43",
")  c #5B584C",
"_  c #664648",
"`  c #744C44",
"'  c #645B50",
"]  c #715C51",
"[  c #666456",
"{  c #6A6357",
"}  c #70695C",
"|  c #7A7665",
" . c #7E7B69",
".. c #797666",
"X. c #841E2A",
"o. c #8A232F",
"O. c #9B202E",
"+. c #8F2E39",
"@. c #86343D",
"#. c #94343F",
"$. c #A62130",
"%. c #87472D",
"&. c #947E4E",
"*. c #81665E",
"=. c #986A6F",
"-. c #867E6E",
";. c #937869",
":. c #937B71",
">. c #C6717B",
",. c #3E8216",
"<. c #408617",
"1. c #428917",
"2. c #41831A",
"3. c #448D19",
"4. c #498E1D",
"5. c #49851F",
"6. c #469319",
"7. c #459119",
"8. c #479419",
"9. c #47951A",
"0. c #47931A",
"q. c #48961A",
"w. c #48951A",
"e. c #48961A",
"r. c #49981A",
"t. c #49991A",
"y. c #48981A",
"u. c #4B9B1B",
"i. c #4D9E1B",
"p. c #49991A",
"a. c #4EA11C",
"s. c #56AA1E",
"d. c #57AD1F",
"f. c #54A71E",
"g. c #4E8C20",
"h. c #529621",
"j. c #549A21",
"k. c #57A421",
"l. c #58A422",
"z. c #5CAA22",
"x. c #5EB222",
"c. c #5DB521",
"v. c #62B923",
"b. c #63BE23",
"n. c #60B623",
"m. c #66C124",
"M. c #65C124",
"N. c #9B8451",
"B. c #8B8472",
"V. c #8D8975",
"C. c #928E7A",
"Z. c #9D8474",
"A. c #97937E",
"S. c #E1BE70",
"D. c #B47B81",
"F. c #A29A85",
"G. c #A99E8A",
"H. c #AA9885",
"J. c #B79B87",
"K. c #AC9A99",
"L. c #A6A18A",
"P. c #AEA48E",
"I. c #B3AE95",
"U. c #B2A691",
"Y. c #B9B39A",
"T. c #B7B298",
"R. c #C0AF99",
"E. c #C3B79F",
"W. c #CCBFA6",
"Q. c #D0BBA3",
"!. c #CDC3A9",
"~. c #C9C2A6",
"^. c #D3C4AA",
"/. c #D7C9AF",
"(. c #DACCB1",
"). c #E3DCBC",
"_. c #E7D8BB",
"`. c #F3E4C5",
"'. c #FDEDCE",
/* pixels */
"                                                              X X X X X X X                                                                         ",
"                                                    X X X X X X X X X X X X X X X X X                                                               ",
"                                              X X X X X X X @ , b n n n b , @ X X X X X X X                                                         ",
"                                          X X X X % M L 2.3.8.6.6.3.1.,.,.,.,.U L A b @ X X X X X                                                   ",
"                                      X X X X M E t.t.t.t.t.t.t.t.t.t.t.8.3.,.,.,.,.,.,.F > # X X X                                                 ",
"                                    X X X 1 l.s.t.t.t.t.t.t.t.t.t.t.t.t.t.t.t.3.,.,.,.,.,.,.I > X X X X                                             ",
"                                  X X X h.m.a.t.t.t.8.3.t.t.t.t.t.t.t.t.t.t.t.t.t.<.,.,.,.,.,.,.U @ X X X                                           ",
"                                X X < z.M.i.t.t.t.t.t.t.t.t.t.t.t.t.t.t.t.t.t.t.t.t.3.,.,.,.,.,.,.U n X X X                                         ",
"                              X X 1 x.b.i.t.t.t.t.t.t.t.t.t.t.t.t.t.6.3.w.t.t.t.t.t.t.1.,.,.I U ,.,.,.B X X X                                       ",
"                            X X * z.b.a.t.t.t.w.6.t.t.t.t.t.t.t.t.t.<.,.6.t.t.t.t.t.t.t.,.I G P ,.,.,.,.B X X                                       ",
"                            X X l.m.s.t.t.t.t.8.<.t.t.t.t.t.t.t.t.t.t.6.t.t.t.t.t.t.t.t.6.,.I U ,.,.,.,.,.< X X                                     ",
"                          X X S m.x.t.t.t.t.t.t.t.t.t.t.t.t.t.t.t.t.t.t.t.t.t.t.t.t.t.t.t.<.,.,.,.,.,.,.,.,.@ X X                                   ",
"                          X % v.m.i.t.t.t.t.t.t.t.t.t.t.t.t.t.t.t.t.t.t.t.t.t.t.t.t.t.t.t.3.,.,.,.,.,.,.U I F X X                                   ",
"                        X X N m.d.t.t.t.t.t.t.t.t.t.t.3.w.t.t.t.t.t.t.t.t.t.t.t.t.t.t.t.t.t.,.,.,.,.,.,.,.,.,.< X X                                 ",
"                        X X h.m.u.t.t.t.t.t.t.t.t.t.t.w.t.t.t.t.t.t.t.t.t.t.t.t.t.t.t.t.t.t.<.,.,.,.,.,.,.,.,.F X X                                 ",
"                        X * m.c.t.t.t.t.t.t.t.t.t.t.t.t.t.t.t.t.t.t.t.t.t.t.t.t.t.t.t.t.t.t.3.,.,.,.,.,.,.,.,.,.$ X X                               ",
"                      X X S m.a.t.t.t.t.t.t.t.t.t.t.t.t.t.t.t.t.t.t.t.t.t.t.t.t.t.t.t.1.,.<.3.,.,.,.,.,.,.,.,.,.Z X X                               ",
"                      X X R b.t.t.t.t.t.t.t.t.t.t.8.,.<.t.t.t.t.t.t.t.t.t.t.t.t.t.t.t.,.,.,.1.,.,.,.,.,.,.,.,.,.L X X                               ",
"                      X X g.v.t.t.t.t.t.t.t.t.t.t.w.1.3.t.t.t.t.t.t.t.t.t.t.8.t.t.t.t.6.1.1.6.,.,.,.,.,.,.,.,.,.U X X                               ",
"                      X X l.c.t.t.t.t.t.t.t.t.t.t.t.t.t.t.t.t.t.3.,.6.t.t.w.1.t.t.t.t.t.t.t.8.,.,.,.,.,.,.,.,.,.,.< X .                             ",
"                      X X x.x.t.t.t.t.t.t.t.t.t.t.t.t.t.t.t.t.t.3.,.3.t.t.t.t.t.t.t.t.t.t.t.6.,.,.,.,.,.,.,.,.,.,.V X X                             ",
"                      X X n.d.t.t.t.t.t.t.t.t.t.t.t.t.t.t.t.t.t.t.w.t.t.t.t.t.t.t.t.t.t.t.t.6.,.,.,.,.U U ,.,.,.,.G X X                             ",
"                      X X v.d.t.t.t.t.t.t.t.t.t.t.t.t.t.t.t.t.t.t.t.t.t.t.t.t.t.t.t.t.t.t.t.3.,.,.,.,.G P ,.,.,.,.I X X                             ",
"                      X X v.s.t.t.6.3.w.t.t.t.1.Y T 3.8.8.6.t.t.t.t.t.t.t.t.t.t.t.t.t.t.t.t.1.,.,.,.,.I I ,.,.,.,.I X X                             ",
"                      X X x.s.t.t.1.,.3.t.Y 3.w.t.1.D C H 1.t.t.t.t.t.t.t.t.t.t.t.t.t.t.t.t.,.,.,.,.,.,.,.,.,.,.,.I X X                             ",
"                      X X z.d.t.t.t.8.t.t.w.L * M T w.t.t.t.t.t.w.t.t.t.t.t.t.t.t.t.t.t.t.8.,.,.,.,.,.,.,.,.,.,.,.I X X                             ",
"                      X X h.d.t.t.t.t.t.t.t.t.8.2.K S M M D Y 1.w.t.t.t.t.t.t.t.t.t.t.t.t.3.,.,.,.,.,.,.,.,.,.,.,.I X X X X X                       ",
"                      X X K 4.w.t.t.t.t.t.t.t.t.t.t.w.Y t.t.t.t.t.t.t.t.t.t.t.t.3.L H 2.t.1.,.U I ,.,.,.,.,.,.,.,.I X X X X X                       ",
"                      X X X X X H 6.t.t.t.t.t.w.M t.T S t.t.t.t.t.t.t.t.t.8.T m X X X X 2.,.,.P G I ,.,.,.,.,.,.I ; X # b X X                       ",
"                      X X X 2 X X # Y w.t.t.t.2.* t.2.m t.t.t.t.t.t.t.6.J # X X X 6 9 X @ ,.,.,.I ,.,.,.,.,.,.H X X < U ,.@ X                       ",
"                      X X 2 t t 6 X X * 3.t.w.< Y t.t.m C t.t.t.t.3.m # X X 4 e t t t 2 X I ,.,.,.,.,.,.,.,.b X , I U n U @ X                       ",
"                        X 2 q 8 q e 4 X X M S , M w.2.C m Y t.Y 1 X X O 6 e t t q q e 8 X G ,.,.,.,.,.,.,.n @ H U C # X H @ X                       ",
"                        X % 6 4 5 8 q q 2 X X X X K S X X X * X X 2 q t e q 8 6 6 6 6 6 X H ,.,.,.U ,.,.G , I I < X < X H # X                       ",
"                        X X 4 X X X 4 6 q 6 2 q X H D X 6 % X 2 q t q 6 5 2 2 X % 5 6 2 X H ,.,.,.I U ,.b ,.I @ @ V F X F X X                       ",
"                        X X X X 3 X X X % 5 8 4 X T L X 5 t t q 6 5 % X X X X X X X 5 % X I ,.,.,.,.,.I U ,.# X < G n X G X X                       ",
"                        X X X % Z.*.( 3 X X X X # 6.6.# X 4 2 X X X X % ' G.E.^.F.X X X @ ,.,.,.,.,.,.,.,., < ; $ G # > A X X                       ",
"                        X X X X ;.f H.^.G.} % # L t.t.D X X X O w | ] R.(.(._.`.'.r X % I ,.,.,.I ,.,.,.I X F ; > v X I , X X                       ",
"                        X X X X ' J.'.`._.P.X m 3.w.t.t.1 X B.W.:.K.+ ^.`.'.'.'.!.X < 6.,.,.,.,.U ,.,.,.F > G n n X F H X X                         ",
"                        X X < % X Y.'.'.`.w X K S t.t.t.T X w /.Q.f ` '.'.'.'.'.j X T t.<.,.,.,.,.,.,.,.b G G V # A U @ X X                         ",
"                        X X m u.X X / -.2 X M < t.t.t.t.t.M X / '.'.'.'.'.'.`.9 X S t.t.1.,.,.,.,.,.,.U > G @ X A ,.* X X                           ",
"                        X X * M v X X X X D < T t.t.t.t.t.w.v X 6 { G.U.V./ 2 X C 8.t.t.3.,.,.,.,.,.,.U F B I U ,.> X X                             ",
"                        X X < v.T Y Y T 3.L M t.t.t.1.T t.t.t.S X X X X X X < Y w.t.t.t.3.,.,.,.,.,.,.,.I C ,.U b X X                               ",
"                          X * m.i.Y H 2.t.< L w.2.S < 6.t.t.t.t.Y , * M L 3.t.t.t.t.t.t.1.,.,.,.,.,.G ,.,.,.I < X X                                 ",
"                          X X j.5.X & # w., X X # v 6.3.6.t.t.t.t.t.T < , S T 3.6.t.t.t.,.,.,.,.,.,.b < A n X X X                                   ",
"                          X X % * ~ S.X L 6.T 2.6.t.v X @ 3.t.t.t.t.t.t.8.6.3.3.8.t.t.8.,.,.,.,.,.b X X X X                                         ",
"                            X X X 3 g X D t.t.t.t.T X N.0 < t.t.t.t.t.t.t.t.t.t.t.t.t.,.,.,.,.G * X X X                                             ",
"                              X X X * < * > M H Y < % &.W @ w.t.t.t.t.t.t.8.,.,.t.t.1.,.,.L v X X X X                                               ",
"                                X X # R k.3.L C < , * # X * t.t.t.t.t.t.t.w.<.<.6.<.U G < X X X X                                                   ",
"                                  X X X X R a.t.t.t.t.t.6.6.t.t.t.t.t.t.t.w.3.,.I b X X X X X                                                       ",
"                                    X X X X # , D 1.t.t.t.t.t.t.w.6.1.I A v * # X X X X X X X                                                       ",
"                                        X X X X X X X * * , , * * @ X X . X X X X X X * X X X                                                       ",
"                                          X X X , X X X X X X X X X X X @ $ < > X , 3.3.F X X                                                       ",
"                                          X X 1 t.6.H n ; v b b C Y 1.w.F F F $ X T t.6.,.> X                                                       ",
"                                        . X X S t.t.t.t.w.t.t.t.t.t.t.t.P F V X * t.t.8.,.A X                                                       ",
"                                        X X X R t.t.t.t.t.t.t.t.w.I t.t.G c B X K t.t.8.,.F X X                                                     ",
"                                        X X X 4.8.t.t.t.t.t.t.t.t.6.t.t.,.c $ X Y t.t.8.,.I X X                                                     ",
"                                        X X # w.I <.t.t.3.1.3.t.t.t.t.t.1.x X X X * M S C n X X                                                     ",
"                                        X X # L 1.w.T < X X X * Y t.t.t.3.n X - & & X . o o X X                                                     ",
"                                        X X X X X # X j F.Y...4 X C t.t.1.X X h %.h ! Q = %.O X                                                     ",
"                                        X X D.l i X B.).).).Y.I.) X @ # X X X X & = h = h d X X                                                     ",
"                                        X X =.>.o.X !...[ )... .A.X y u O * Z > $ X X X X X X X                                                     ",
"                                        X X X 7 _ X Y.C.C.~.^ [  .O $.X.X * H 1.,.U L F A , X X                                                     ",
"                                        X X % # X X % L.Y.T.I.B.% + X.u X Y 3.T 1.,.,.,.,.< X X                                                     ",
"                                        X X < T Y > X [ V.L.| X X X X X X @ K w.I ,.,.,.,.@ X X                                                     ",
"                                          X X X < S X X X X X # K F Y H X v D < I ,.,.L * X X X                                                     ",
"                                          X X 1 X X X z p p X % Y Y T T * X X > n b ; X X X                                                         ",
"                                          X < t.8.< X @.y s X X X X X X X X X X X X X X                                                             ",
"                                          X H t.w.# X #.a p X     . X m D K T 6.F F B X X                                                           ",
"                                        X X T t.6.X j +.O.O X       X < t.t.t.t.G F V . .                                                           ",
"                                        X m w.t.6.X 3 k X.X X       X X 2.t.t.t.P F F ; X                                                           ",
"                                      X X X v K 2.M X X X X X         X H t.t.t.U V n * X                                                           ",
"                                          X X X X X # X X X           X D 3.1.Y > X X . X                                                           ",
"                                                X X X X X             X X X X X X X X                                                               ",
"                                                                      X X X                                                                         "
};
