/* XPM */
static char *aknoy_zkcww[] = {
/* columns rows colors chars-per-pixel */
"74 74 173 2 ",
"   c None",
".  c #1B1B17",
"X  c #1B1A18",
"o  c #191715",
"O  c #221D1A",
"+  c #2B1C1B",
"@  c #351C1D",
"#  c #3B1C1E",
"$  c #1D2317",
"%  c #1F2917",
"&  c #1E2318",
"*  c #212C17",
"=  c #21231C",
"-  c #212B18",
";  c #2A201B",
":  c #35241D",
">  c #39271E",
",  c #233417",
"<  c #263C16",
"1  c #243318",
"2  c #263A18",
"3  c #283D19",
"4  c #28361A",
"5  c #252522",
"6  c #2A2523",
"7  c #2C2A25",
"8  c #2B2D2B",
"9  c #272826",
"0  c #322D22",
"q  c #3B2A2A",
"w  c #322F2A",
"e  c #2F302E",
"r  c #33332E",
"t  c #333533",
"y  c #373836",
"u  c #3D3B34",
"i  c #3A3C3A",
"p  c #451D1F",
"a  c #541C21",
"s  c #5B1E24",
"d  c #621B23",
"f  c #6C1922",
"g  c #771924",
"h  c #781924",
"j  c #452C20",
"k  c #5B2829",
"l  c #433B2A",
"z  c #563223",
"x  c #413E36",
"c  c #443F38",
"v  c #7D222D",
"b  c #663A27",
"n  c #6D3C28",
"m  c #703E29",
"M  c #693F39",
"N  c #23490C",
"B  c #29550E",
"V  c #274215",
"C  c #294417",
"Z  c #2A4B16",
"A  c #2B4319",
"S  c #2D4C19",
"D  c #304B1B",
"F  c #2D5315",
"G  c #2E5C12",
"H  c #2F5119",
"J  c #315B17",
"K  c #32551A",
"L  c #335B19",
"P  c #355B1A",
"I  c #2F6211",
"U  c #316413",
"Y  c #356D14",
"T  c #356319",
"R  c #3A661B",
"E  c #376819",
"W  c #396C19",
"Q  c #367113",
"!  c #397416",
"~  c #3C7C16",
"^  c #3C7319",
"/  c #3E7B1A",
"(  c #44761F",
")  c #417E1B",
"_  c #44423A",
"`  c #48463C",
"'  c #7D432C",
"]  c #5A554B",
"[  c #664645",
"{  c #724A46",
"}  c #72584D",
"|  c #696356",
" . c #766C5E",
".. c #7C7767",
"X. c #841E2A",
"o. c #8D1B29",
"O. c #931D2B",
"+. c #80232D",
"@. c #98202E",
"#. c #9E2734",
"$. c #882B35",
"%. c #A82131",
"&. c #84462D",
"*. c #A64C56",
"=. c #816A5D",
"-. c #94676C",
";. c #887868",
":. c #B96871",
">. c #3E8216",
",. c #3F8018",
"<. c #408617",
"1. c #418917",
"2. c #41841A",
"3. c #49821F",
"4. c #448A1A",
"5. c #438D18",
"6. c #448F18",
"7. c #458E1A",
"8. c #448C19",
"9. c #4B8C1F",
"0. c #469119",
"q. c #479419",
"w. c #47951A",
"e. c #469319",
"r. c #48971A",
"t. c #48951A",
"y. c #48971A",
"u. c #49981A",
"i. c #49991A",
"p. c #48981A",
"a. c #4A9A1A",
"s. c #49991A",
"d. c #529D1F",
"f. c #4EA01C",
"g. c #50A31C",
"h. c #55AA1E",
"j. c #58AD1F",
"k. c #559B21",
"l. c #59A422",
"z. c #5CB421",
"x. c #62BC23",
"c. c #65C124",
"v. c #66C224",
"b. c #BA9E5E",
"n. c #8C8674",
"m. c #998F7C",
"M. c #938E7A",
"N. c #9A927F",
"B. c #AD917F",
"V. c #A58877",
"C. c #D5B46A",
"Z. c #FDD67C",
"A. c #AA9784",
"S. c #A29984",
"D. c #ABA48D",
"F. c #B4AF96",
"G. c #B1A590",
"H. c #B5B197",
"J. c #B7B298",
"K. c #BBB69C",
"L. c #CE8A92",
"P. c #C6BCA2",
"I. c #CDC3A8",
"U. c #D3CAAE",
"Y. c #DEC8AE",
"T. c #DACCB1",
"R. c #DAD3B5",
"E. c #E5D4B7",
"W. c #E4D6B9",
"Q. c #E5DABC",
"!. c #CDC2C0",
"~. c #F2E3C4",
"^. c #FEEECE",
/* pixels */
"                                                                  X X X X X                                                                         ",
"                                                      X X X X X X X X X X X X X X X X X                                                             ",
"                                                X X X X X X X & * , < < < , - X X X X X X X                                                         ",
"                                            X X X X & 2 H E ~ >.>.>.>.>.>.>.>.>.Q J C - X X X X                                                     ",
"                                        X X X & 2 W w.a.a.a.a.a.a.w.6.<.>.>.>.>.>.>.>.>.Q < & X X X                                                 ",
"                                    X X X X D r.a.a.a.a.a.a.a.a.a.a.a.a.a.6.>.>.>.>.>.>.>.>.>.< X X X                                               ",
"                                  X X X A d.a.a.a.a.a.a.a.a.a.a.a.a.a.a.a.a.a.5.>.>.>.>.>.>.>.>.Y $ X X                                             ",
"                                X X & 3.j.a.a.a.1.r.a.a.a.a.a.a.a.a.a.a.a.a.a.a.0.>.>.~ Q ~ >.>.>.~ * X X                                           ",
"                              X X - k.z.a.a.a.a.r.a.a.a.a.a.a.a.0.0.a.a.a.a.a.a.a.0.>.! Y ~ >.>.>.>.>., X X                                         ",
"                            X X - l.x.a.a.a.a.a.a.a.a.a.a.a.a.a.>.>.r.a.a.a.a.a.a.a.5.>.~ >.>.>.>.>.>.~ * X X                                       ",
"                          X X X k.x.a.a.a.a.a.a.a.a.a.a.a.a.a.a.0.6.a.a.a.a.a.a.a.a.a.>.>.>.>.>.>.>.~ ~ Q X X X                                     ",
"                          X X 3.v.h.a.a.a.w.>.a.a.a.a.a.a.a.a.a.a.a.a.a.a.a.a.a.a.a.a.0.>.>.>.>.>.>.>.>.>.J X X                                     ",
"                        X X - x.z.a.a.a.a.a.w.a.a.a.a.a.a.a.a.a.a.a.a.a.a.a.a.a.a.a.a.a.<.>.>.>.>.>.>.>.>.~ * X X                                   ",
"                        X X k.v.f.a.a.a.a.a.a.a.a.a.a.a.a.a.a.a.a.a.a.a.a.a.a.a.a.a.a.a.0.>.>.>.>.>.>.>.>.>.Y X X                                   ",
"                      X X 1 v.x.a.a.a.a.a.a.a.a.a.r.0.a.a.a.a.a.a.a.a.a.a.a.a.a.a.a.r.0.w.>.>.>.>.>.>.>.>.>.>.& X X                                 ",
"                      X X P v.g.a.a.a.a.a.a.a.a.a.a.r.a.a.a.a.a.a.a.a.a.a.a.a.a.a.a.>.>.<.>.>.>.>.>.>.>.>.>.>.E X X                                 ",
"                      X X k.v.a.a.a.a.a.a.a.a.a.a.a.a.a.a.a.a.a.a.a.a.a.a.a.a.a.a.w.>.>.>.<.>.>.>.>.>.>.>.>.>.>.& X                                 ",
"                      X & x.x.a.a.a.a.a.a.a.a.a.a.r.a.a.a.a.a.a.a.a.a.a.a.a.a.a.a.a.0.5.w.0.>.>.>.>.>.>.>.>.>.>., X X                               ",
"                      X 4 v.h.a.a.a.a.a.a.a.a.a.r.>.<.a.a.a.a.a.a.a.a.a.r.5.a.a.a.a.a.a.a.r.>.>.>.>.>.>.>.>.>.>.J X X                               ",
"                    X X D v.a.a.a.a.a.a.a.a.a.a.r.<.1.a.a.a.a.r.<.6.a.a.a.w.a.a.a.a.a.a.a.a.>.>.>.>.~ ~ >.>.>.>.~ X X                               ",
"                    X X K v.a.a.a.a.a.a.a.a.a.a.a.a.a.a.a.a.a.6.>.<.a.a.a.a.a.a.a.a.a.a.a.a.>.>.>.>.Q Y ~ >.>.>.>.& X                               ",
"                    X X P v.a.a.a.a.a.a.a.a.a.a.a.a.a.a.a.a.a.a.r.r.a.a.a.a.a.a.a.a.a.a.a.r.>.>.>.>.>.~ >.>.>.>.>.1 X X                             ",
"                    X X K v.a.a.a.a.a.a.a.a.a.a.a.a.a.a.a.a.a.a.a.a.a.a.a.a.a.a.a.a.a.a.a.w.>.>.>.>.>.>.>.>.>.>.>.< X X   X                         ",
"                    X X K v.a.a.a.a.a.a.a.a.a.a.a.a.a.a.a.a.a.a.a.a.a.a.a.a.a.a.a.a.a.a.a.0.>.>.>.>.>.>.>.>.>.>.>.C X X X X X                       ",
"                    X X A v.a.a.a.a.a.a.a.a.a.4.2.6.0.6.2.6.a.a.a.a.a.a.a.a.a.a.a.a.a.a.a.1.>.>.>.>.>.>.>.>.>.>.>.Z X X & X X                       ",
"                      X 4 v.f.a.a.w.6.r.a.r.a.a.2.T K T 4.a.a.a.a.a.a.a.a.a.a.a.a.a.a.a.a.<.>.>.~ >.>.>.>.>.>.>.! & X 1 >.& X                       ",
"                      X & v.h.a.a.<.>.5.a.T A W 4.r.a.a.6.^ S L r.a.a.a.a.a.a.a.a.2.H ^ a.>.>.! Y ~ >.>.>.>.>.~ & X J >.>.- X                       ",
"                      X X l.z.a.a.w.6.r.a.a.0.) W L K L E / 6.a.a.a.a.a.a.a.a.^ 1 X X X A >.>.~ ~ >.>.>.>.>.! & - Y Y - T - X                       ",
"                      X X ( x.a.a.a.a.a.a.a.a.a.a.a.a.E a.a.a.a.a.a.a.a.a.) 3 X X 9 t 5 X Q >.>.>.>.>.>.>.~ - < ~ J & X < 2 X X                     ",
"                      X X A v.a.a.a.a.a.a.a.a.a.4.0.a.3 a.a.a.a.a.a.a.6.H X X 5 y i i y X < >.>.>.>.>.>.>.S V >.J X , - - A X X                     ",
"                        X = R A ^ 6.a.a.a.a.a.a.L 2.a.A W w.a.a.a.r.^ X X = y i i y t y X X ~ >.>.>.>.>.~ 2 >.E X V Y * - A X X                     ",
"                        X X X X X X 2 6.a.a.a.r.- 6.a.0.H 0.a.a.4.1 X X e i i t 8 8 8 8 X X ~ >.>.>.~ >.E Q ! X X F Y . C < X X                     ",
"                        X X X y r = X X 1 T r.2.3 ^ a.W 1 - 3 A & X 5 y y t 8 5 O = 8 8 = X ! >.>.>.>.>.~ >.< , $ V G X ! - X                       ",
"                          X = y y y t 9 X X = & X X ^ K X = X X = t y t 9 5 X X X X X 5 X X ~ >.>.>.>.>.>.~ & Y % Z , 1 >.X X                       ",
"                          X X 8 8 8 e y y 9 = X e X L W X e t r y e 9 X X X x ..P.m.9 X X V >.>.>.~ >.>.>.Y - Y C Z & ! Z X X                       ",
"                          X X 8 X X X 5 9 8 t y y X K 2.X X t 8 5 X X = c G.T.T.E.^.| X 1 >.>.>.>.>.>.>.>.T C Y Y $ J ! X X                         ",
"                          X X 5 X X X X X X X = = X W a.S X X X X X | A.;.T.Q.^.^.^.u - a.0.>.>.>.>.>.>.>.J Y Z X Z >.< X .                         ",
"                            X X X n.{ }  .c X X X - 0.a.0.A X w N.A.!.p V.^.^.^.^.D.X S a.a.>.>.>.>.>.>.>.T Y , ~ >.J X X                           ",
"                            X X X ] { k T.T.I...X ) 2.a.a.w.& O S.W.B.M E.^.^.^.U.7 & 4.a.a.>.>.>.>.>.>.>.~ Y E >.Y & X                             ",
"                            X X X X =.Y.^.^.~.x X ^ / a.a.a.2.& 5 S.~.^.^.^.W.N.O X ^ a.a.a.<.>.>.>.>.~ >.>.~ ~ Q & X                               ",
"                            X X 1 & 7 T.^.^.m.X < 1 r.a.a.a.a./ = X O ] | x X X = / a.a.a.a.<.>.>.>.>.~ F ! ! T X X                                 ",
"                            X X K ) X X 5 O X - H / a.a.a.a.a.a.w.3 X X X X - W a.a.a.a.a.a.<.>.>.>.>.>., X X X .                                   ",
"                              X - ^ H X X X A 2.& w.a.a.2.E a.a.a.r.2.S & 2 L ^ 2.1.2.w.a.a.>.>.>.>.>., X X                                         ",
"                              X X k./ ^ 2.w.a.^ 1 a.0.H 1 r.a.a.a.a.a.a.0.2.^ W W ^ 2.a.a.w.>.>.>.! * X X                                           ",
"                              X X 3.z.1.A A 2.W & A & A 6.W K / a.a.a.a.a.a.a.a.a.r.a.a.a.<.>.>.T & X X                                             ",
"                              X X A x.& 0 7 1 6.A A / a.^ X 0 X 1.a.a.a.a.a.a.a.0.>.5.a.6.>.! < X X X                                               ",
"                                X X K X C.b.X 1.a.a.a.a.2 l Z.7 T a.a.a.a.a.a.a.0.>.5.<.>.S X X X X                                                 ",
"                                X X X X = O X H L T W ^ & = 0 X K a.a.a.a.a.a.a.a.<.~ V & X X X X                                                   ",
"                                  X X X X 3 ( W T L K H S S H L / a.a.a.a.a.0.>.K , X X X X < - X                                                   ",
"                                      X X X - R 9.a.a.a.a.a.a.a.a.a.w.2.W H , X X X X $ $ $ X X X                                                   ",
"                                        X X X X X X 4 S T E T L S 1 & X X X X X $ * F V X & - & X X                                                 ",
"                                            X X X X X X X X X X X X X X X & < G U U I X & r.>.>.< X .                                               ",
"                                            X - 2.X A A 1 - $ % , V H ! 6.r.6.U U U F X A a.w.>.~ $ X                                               ",
"                                          X X W W X 2.a.a.a.0.0.w.r.a.a.a.a.w.G U U F X S a.a.1.>.Q X X                                             ",
"                                        X X X & 1 X 6.a.a.a.a.a.a.a.a.r.<.a.a.B I U G X 1 a.a.r.>.~ * X X                                           ",
"                                        X > n O X X r.6.r.a.a.a.a.a.a.a.a.a.a.Q N I U $ & r.a.0.Y $ o O X                                           ",
"                                      X X X &.m X - a.Y 6.a.r.6.2.0.r.a.a.a.a.~ N U U , X / H X X o : &.O X                                         ",
"                                      X X X ; > X X A ) 0.A & X X X = E a.a.a.>.U U U Z X X X O > z n j X X                                         ",
"                                    X X 2.T X X X 6 X X & 5 N.K.J.n.` X L ^ ^ J V < , % X : z b ' b O X X X                                         ",
"                                    X X S 2.2 X 6 L.$.p 5 I.P.R.W.H.F._ X X X X X X X + X O b j + X & H Q & X                                       ",
"                                    X X X X X X O -.:.k u R._ ;.U._ ....X d d d X.X.h g X X X X - S >.>.>.< X                                       ",
"                                    X X L 3 T K X X X 6 5 U.D.U.H.` N.r # %.O.o.%.O.g f X , J Q >.>.>.>.>.< X                                       ",
"                                      X & / a.T X L & X X 6 F.J.J.M.r X @ # @ + + + O X X X S r.6.>.>.>.Q X X                                       ",
"                                        X X - - X 1 T ^ A X ` ] | x X X X X X X $ % , < * X 2.L 2.J >.~ , X                                         ",
"                                          X X X X X X - 2 X q + O X 1 ,.2.6.6.5.U U U G < X - K / C Y * X X                                         ",
"                                                  X X - X X *.# d X - K L L L H , * & X X X X K = , X X X                                           ",
"                                                  X 1 a.1 O #.s a X X X X X X X X X X & X . X X X X X                                               ",
"                                                  X - 4.X q v @.# X X X = 6.6.6.0.U I F X                                                           ",
"                                                  X X / X [ +.@.X X X X 2 a.a.a.a.U U Z X                                                           ",
"                                                  X X / X = s a X X X X W a.a.a.<.U U < X                                                           ",
"                                                  X X 2.E & X X X X X X L 2.w.a.Q U U , X                                                           ",
"                                                  X X & X X X X X X X X X X X A Z G G $ X                                                           ",
"                                                  X X X X X X             X X X X X X X X                                                           ",
"                                                                                    X X                                                             "
};
